SplineFontDB: 3.0
FontName: Dirooz
FullName: Dirooz
FamilyName: Dirooz
Weight: Regular
Copyright: Copyright (c) 2003 by Bitstream, Inc. All Rights Reserved.\nDejaVu changes are in public domain\nChanges by Saber Rastikerdar are in public domain.\nNon-Arabic(Latin) glyphs and data in extended version are imported from Roboto font under the Apache License, Version 2.0.
Version: 0.1.0
ItalicAngle: 0
UnderlinePosition: -500
UnderlineWidth: 100
Ascent: 1638
Descent: 410
InvalidEm: 0
LayerCount: 2
Layer: 0 1 "Back" 1
Layer: 1 1 "Fore" 0
PreferredKerning: 4
XUID: [1021 502 1027637223 12546297]
UniqueID: 4019487
UseUniqueID: 1
FSType: 0
OS2Version: 1
OS2_WeightWidthSlopeOnly: 0
OS2_UseTypoMetrics: 1
CreationTime: 1431850356
ModificationTime: 1502235486
PfmFamily: 33
TTFWeight: 400
TTFWidth: 5
LineGap: 0
VLineGap: 0
Panose: 2 11 6 3 3 8 4 2 2 4
OS2TypoAscent: 2350
OS2TypoAOffset: 0
OS2TypoDescent: -1100
OS2TypoDOffset: 0
OS2TypoLinegap: 0
OS2WinAscent: 2350
OS2WinAOffset: 0
OS2WinDescent: 1100
OS2WinDOffset: 0
HheadAscent: 2350
HheadAOffset: 0
HheadDescent: -1100
HheadDOffset: 0
OS2SubXSize: 1331
OS2SubYSize: 1433
OS2SubXOff: 0
OS2SubYOff: 286
OS2SupXSize: 1331
OS2SupYSize: 1433
OS2SupXOff: 0
OS2SupYOff: 983
OS2StrikeYSize: 102
OS2StrikeYPos: 530
OS2CapHeight: 1638
OS2XHeight: 1082
OS2Vendor: 'PfEd'
OS2CodePages: 00000041.20080000
OS2UnicodeRanges: 80002003.80000000.00000008.00000000
Lookup: 1 9 0 "'fina' Terminal Forms in Arabic lookup 9" { "'fina' Terminal Forms in Arabic lookup 9 subtable"  } ['fina' ('arab' <'KUR ' 'SND ' 'URD ' 'dflt' > ) ]
Lookup: 1 9 0 "'medi' Medial Forms in Arabic lookup 11" { "'medi' Medial Forms in Arabic lookup 11 subtable"  } ['medi' ('arab' <'KUR ' 'SND ' 'URD ' 'dflt' > ) ]
Lookup: 1 9 0 "'init' Initial Forms in Arabic lookup 13" { "'init' Initial Forms in Arabic lookup 13 subtable"  } ['init' ('arab' <'KUR ' 'SND ' 'URD ' 'dflt' > ) ]

StartChar: exclam
Encoding: 33 33 1
GlifName: exclam
Width: 641
VWidth: 2764
GlyphClass: 2
Flags: W
LayerCount: 2
Fore
SplineSet
185.091796875 140.493164062 m 0,0,1
 185.091796875 196.368164062 185.091796875 196.368164062 224.748046875 236.0234375 c 128,-1,2
 264.403320312 275.6796875 264.403320312 275.6796875 320.278320312 275.6796875 c 128,-1,3
 376.154296875 275.6796875 376.154296875 275.6796875 415.809570312 236.0234375 c 128,-1,4
 455.463867188 196.368164062 455.463867188 196.368164062 455.463867188 140.493164062 c 128,-1,5
 455.463867188 84.6181640625 455.463867188 84.6181640625 415.809570312 44.962890625 c 128,-1,6
 376.154296875 5.306640625 376.154296875 5.306640625 320.278320312 5.306640625 c 0,7,8
 271.354492188 5.306640625 271.354492188 5.306640625 234.928710938 35.65234375 c 0,9,10
 207.508789062 58.4951171875 207.508789062 58.4951171875 194.985351562 88.666015625 c 0,11,12
 185.091796875 112.499023438 185.091796875 112.499023438 185.091796875 140.493164062 c 0,0,1
213.161132812 1466.07128906 m 5,13,-1
 430.612304688 1466.07128906 l 5,14,-1
 406.094726562 499.32421875 l 1,15,-1
 238.90234375 499.32421875 l 1,16,-1
 213.161132812 1466.07128906 l 5,13,-1
EndSplineSet
EndChar

StartChar: period
Encoding: 46 46 2
GlifName: period
Width: 641
VWidth: 2764
GlyphClass: 2
Flags: W
LayerCount: 2
Fore
SplineSet
185.091796875 140.493164062 m 4,0,1
 185.091796875 196.368164062 185.091796875 196.368164062 224.748046875 236.0234375 c 132,-1,2
 264.403320312 275.6796875 264.403320312 275.6796875 320.278320312 275.6796875 c 132,-1,3
 376.154296875 275.6796875 376.154296875 275.6796875 415.809570312 236.0234375 c 132,-1,4
 455.463867188 196.368164062 455.463867188 196.368164062 455.463867188 140.493164062 c 132,-1,5
 455.463867188 84.6181640625 455.463867188 84.6181640625 415.809570312 44.962890625 c 132,-1,6
 376.154296875 5.306640625 376.154296875 5.306640625 320.278320312 5.306640625 c 4,7,8
 271.354492188 5.306640625 271.354492188 5.306640625 234.928710938 35.65234375 c 4,9,10
 207.508789062 58.4951171875 207.508789062 58.4951171875 194.985351562 88.666015625 c 4,11,12
 185.091796875 112.499023438 185.091796875 112.499023438 185.091796875 140.493164062 c 4,0,1
EndSplineSet
EndChar

StartChar: colon
Encoding: 58 58 3
GlifName: colon
Width: 641
VWidth: 2764
GlyphClass: 2
Flags: W
LayerCount: 2
Fore
SplineSet
185.091796875 1010.49316406 m 0,0,1
 185.091796875 1066.36816406 185.091796875 1066.36816406 224.748046875 1106.0234375 c 128,-1,2
 264.403320312 1145.6796875 264.403320312 1145.6796875 320.278320312 1145.6796875 c 128,-1,3
 376.154296875 1145.6796875 376.154296875 1145.6796875 415.809570312 1106.0234375 c 128,-1,4
 455.463867188 1066.36816406 455.463867188 1066.36816406 455.463867188 1010.49316406 c 128,-1,5
 455.463867188 954.618164062 455.463867188 954.618164062 415.809570312 914.962890625 c 128,-1,6
 376.154296875 875.306640625 376.154296875 875.306640625 320.278320312 875.306640625 c 0,7,8
 271.354492188 875.306640625 271.354492188 875.306640625 234.928710938 905.65234375 c 0,9,10
 207.508789062 928.495117188 207.508789062 928.495117188 194.985351562 958.666015625 c 0,11,12
 185.091796875 982.499023438 185.091796875 982.499023438 185.091796875 1010.49316406 c 0,0,1
185.091796875 140.493164062 m 0,13,14
 185.091796875 196.368164062 185.091796875 196.368164062 224.748046875 236.0234375 c 128,-1,15
 264.403320312 275.6796875 264.403320312 275.6796875 320.278320312 275.6796875 c 128,-1,16
 376.154296875 275.6796875 376.154296875 275.6796875 415.809570312 236.0234375 c 128,-1,17
 455.463867188 196.368164062 455.463867188 196.368164062 455.463867188 140.493164062 c 128,-1,18
 455.463867188 84.6181640625 455.463867188 84.6181640625 415.809570312 44.962890625 c 128,-1,19
 376.154296875 5.306640625 376.154296875 5.306640625 320.278320312 5.306640625 c 0,20,21
 271.354492188 5.306640625 271.354492188 5.306640625 234.928710938 35.65234375 c 0,22,23
 207.508789062 58.4951171875 207.508789062 58.4951171875 194.985351562 88.666015625 c 0,24,25
 185.091796875 112.499023438 185.091796875 112.499023438 185.091796875 140.493164062 c 0,13,14
EndSplineSet
EndChar

StartChar: afii57388
Encoding: 1548 1548 5
GlifName: afii57388
Width: 739
VWidth: 2772
GlyphClass: 2
Flags: W
LayerCount: 2
Fore
SplineSet
235.5 290 m 0,0,1
 285 535 285 535 482.162109375 684.440429688 c 1,2,-1
 530.396484375 654.436523438 l 1,3,4
 372 512 372 512 355.990234375 289.19921875 c 1,5,6
 489 291 489 291 522.62890625 224.916015625 c 0,7,8
 542 186 542 186 541.086914062 148 c 0,9,10
 539 9 539 9 396 8.9072265625 c 0,11,12
 179 8 179 8 235.5 290 c 0,0,1
EndSplineSet
EndChar

StartChar: uni0615
Encoding: 1557 1557 6
GlifName: uni0615
Width: -29
VWidth: 2714
GlyphClass: 4
Flags: W
AnchorPoint: "Anchor-10" 658.199 1624.46 mark 0
AnchorPoint: "Anchor-9" 658.199 1624.46 mark 0
AnchorPoint: "Anchor-1" 672.366 2447.86 basemark 0
AnchorPoint: "Anchor-1" 658.199 1624.46 mark 0
LayerCount: 2
Fore
SplineSet
541.2421875 1790.00390625 m 1,0,-1
 677.703125 1790.00390625 l 2,1,2
 781.798204784 1790.00390625 781.798204784 1790.00390625 845.899102392 1824.50195312 c 128,-1,3
 910 1859 910 1859 912.581054688 1912.3965269 c 128,-1,4
 915.162109375 1965.79305381 915.162109375 1965.79305381 882.439453125 1983.51855469 c 0,5,6
 775.123475479 2043.41282427 775.123475479 2043.41282427 541.2421875 1790.00390625 c 1,0,-1
991.1328125 1928.79980469 m 0,7,8
 991.00004589 1714.07421875 991.00004589 1714.07421875 668.384765625 1714.07421875 c 6,9,-1
 354.936523438 1714.07421875 l 1,10,-1
 354.936523438 1790.00390625 l 1,11,-1
 462.987304688 1790.00390625 l 1,12,-1
 462.987304688 2322.15039062 l 1,13,-1
 540.234375 2321.18359375 l 1,14,-1
 539.275390625 1893.90234375 l 1,15,16
 747 2130 747 2130 912.387695312 2066.69433594 c 0,17,18
 991 2037 991 2037 991.1328125 1928.79980469 c 0,7,8
EndSplineSet
EndChar

StartChar: uni061B
Encoding: 1563 1563 7
GlifName: uni061B_
Width: 739
VWidth: 2772
GlyphClass: 2
Flags: W
LayerCount: 2
Fore
SplineSet
262.091796875 140.493164062 m 0,0,1
 262.091796875 196.368164062 262.091796875 196.368164062 301.748046875 236.0234375 c 128,-1,2
 341.403320312 275.6796875 341.403320312 275.6796875 397.278320312 275.6796875 c 128,-1,3
 453.154296875 275.6796875 453.154296875 275.6796875 492.809570312 236.0234375 c 128,-1,4
 532.463867188 196.368164062 532.463867188 196.368164062 532.463867188 140.493164062 c 128,-1,5
 532.463867188 84.6181640625 532.463867188 84.6181640625 492.809570312 44.962890625 c 128,-1,6
 453.154296875 5.306640625 453.154296875 5.306640625 397.278320312 5.306640625 c 0,7,8
 348.354492188 5.306640625 348.354492188 5.306640625 311.928710938 35.65234375 c 0,9,10
 284.508789062 58.4951171875 284.508789062 58.4951171875 271.985351562 88.666015625 c 0,11,12
 262.091796875 112.499023438 262.091796875 112.499023438 262.091796875 140.493164062 c 0,0,1
235.5 770 m 0,13,14
 285 1015 285 1015 482.162109375 1164.44042969 c 1,15,-1
 530.396484375 1134.43652344 l 1,16,17
 372 992 372 992 355.990234375 769.19921875 c 1,18,19
 489 771 489 771 522.62890625 704.916015625 c 0,20,21
 542 666 542 666 541.086622712 628 c 0,22,23
 539 489 539 489 396 488.907226562 c 0,24,25
 179 488 179 488 235.5 770 c 0,13,14
EndSplineSet
EndChar

StartChar: uni061F
Encoding: 1567 1567 8
GlifName: uni061F_
Width: 974
VWidth: 2764
GlyphClass: 2
Flags: W
LayerCount: 2
Fore
SplineSet
418.091796875 140.493164062 m 0,0,1
 418.091796875 196.368164062 418.091796875 196.368164062 457.748046875 236.0234375 c 128,-1,2
 497.403320312 275.6796875 497.403320312 275.6796875 553.278320312 275.6796875 c 128,-1,3
 609.154296875 275.6796875 609.154296875 275.6796875 648.809570312 236.0234375 c 128,-1,4
 688.463867188 196.368164062 688.463867188 196.368164062 688.463867188 140.493164062 c 128,-1,5
 688.463867188 84.6181640625 688.463867188 84.6181640625 648.809570312 44.962890625 c 128,-1,6
 609.154296875 5.306640625 609.154296875 5.306640625 553.278320312 5.306640625 c 0,7,8
 504.354492188 5.306640625 504.354492188 5.306640625 467.928710938 35.65234375 c 0,9,10
 440.508789062 58.4951171875 440.508789062 58.4951171875 427.985351562 88.666015625 c 0,11,12
 418.091796875 112.499023438 418.091796875 112.499023438 418.091796875 140.493164062 c 0,0,1
452.352539062 496.333007812 m 1,13,14
 446 565 446 565 279.53515625 727.174804688 c 4,15,16
 101 901 101 901 105 1085 c 4,17,18
 108 1233 108 1233 192 1329 c 4,19,20
 313 1465 313 1465 508.94921875 1464.51660156 c 4,21,22
 876 1463 876 1463 876 1076 c 6,23,24
 876 1066.25 l 5,25,-1
 715.799804688 1066.24804688 l 5,26,-1
 715.799804688 1074.86523438 l 6,27,28
 716 1271 716 1271 517.600585938 1270.89453125 c 4,29,30
 400 1271 400 1271 344.391601562 1204 c 4,31,32
 300 1151 300 1151 299.510742188 1069 c 4,33,34
 299 959 299 959 439.584960938 812.73046875 c 4,35,36
 651 591 651 591 654.981445312 496.333007812 c 1,37,-1
 452.352539062 496.333007812 l 1,13,14
EndSplineSet
EndChar

StartChar: uni0621
Encoding: 1569 1569 9
GlifName: uni0621
Width: 938
VWidth: 2952
GlyphClass: 2
Flags: W
AnchorPoint: "Anchor-7" 465.326 -239.646 basechar 0
AnchorPoint: "Anchor-10" 483.848 1372.06 basechar 0
LayerCount: 2
Fore
SplineSet
117.76953125 11.8525390625 m 1,0,-1
 117.76953125 209.793945312 l 1,1,2
 246 291 246 291 358.288085938 326.58203125 c 1,3,4
 127 447 127 447 126.554131971 639.322826127 c 0,5,6
 127 763 127 763 210.333007812 861.111328125 c 0,7,8
 309 976 309 976 488.572265625 975.806640625 c 4,9,10
 645 976 645 976 763.940429688 874.368164062 c 1,11,-1
 707.364257812 746.549804688 l 1,12,13
 608 800 608 800 500.332529605 800.437144595 c 0,14,15
 295 800 295 800 295.028300611 639.26724831 c 0,16,17
 295 514 295 514 517.772460938 410.049804688 c 1,18,-1
 800.499023438 467.1484375 l 1,19,-1
 828.296875 274.701171875 l 1,20,21
 528 240 528 240 117.76953125 11.8525390625 c 1,0,-1
EndSplineSet
EndChar

StartChar: uni0627
Encoding: 1575 1575 15
GlifName: uni0627
Width: 497
VWidth: 2952
GlyphClass: 2
Flags: W
AnchorPoint: "Anchor-10" 239.871 1613.46 basechar 0
AnchorPoint: "Anchor-7" 253.587 -236.365 basechar 0
LayerCount: 2
Fore
SplineSet
164.890625 1448.15039062 m 1,0,-1
 334.205078125 1448.15039062 l 5,1,-1
 334.205078125 0.751953125 l 5,2,-1
 164.890625 0.751953125 l 1,3,-1
 164.890625 1448.15039062 l 1,0,-1
EndSplineSet
Substitution2: "'fina' Terminal Forms in Arabic lookup 9 subtable" uniFE8E
EndChar

StartChar: uni062C
Encoding: 1580 1580 20
GlifName: uni062C_
Width: 1306
VWidth: 2703
GlyphClass: 2
Flags: W
AnchorPoint: "Anchor-7" 536.833 -922.619 basechar 0
AnchorPoint: "Anchor-10" 633.478 1366.07 basechar 0
LayerCount: 2
Fore
SplineSet
791.528320312 -701.249023438 m 1024
EndSplineSet
Refer: 21 1581 N 1 0 0 1 0 0 2
Refer: 264 -1 S 1.07 0 0 1.07 701.95 -174.716 2
Substitution2: "'fina' Terminal Forms in Arabic lookup 9 subtable" uniFE9E
Substitution2: "'medi' Medial Forms in Arabic lookup 11 subtable" uniFEA0
Substitution2: "'init' Initial Forms in Arabic lookup 13 subtable" uniFE9F
EndChar

StartChar: uni062D
Encoding: 1581 1581 21
GlifName: uni062D_
Width: 1306
VWidth: 2952
GlyphClass: 2
Flags: W
AnchorPoint: "Anchor-7" 496.833 -922.619 basechar 0
AnchorPoint: "Anchor-10" 573.478 1306.07 basechar 0
LayerCount: 2
Fore
SplineSet
791 539.994140625 m 1,0,1
 734 563 734 563 677.876953125 585.083007812 c 0,2,3
 478.504152114 663.409075263 478.504152114 663.409075263 364.310546875 663.686523438 c 0,4,5
 234.998789062 664.000703125 234.998789062 664.000703125 101.99 608.03 c 1,6,-1
 101.991210938 771.029296875 l 1,7,8
 207 851 207 851 372.32421875 851.841796875 c 0,9,10
 517 852 517 852 715.991210938 766.029296875 c 0,11,12
 1071 612 1071 612 1198.90820312 606.69140625 c 1,13,-1
 1184.91894531 426.9296875 l 1,14,15
 1009 416 1009 416 892.70703125 389.5703125 c 0,16,17
 285 247 285 247 285.249023438 -89.302734375 c 0,18,19
 285 -468 285 -468 816.383789062 -467.783203125 c 0,20,21
 1008 -468 1008 -468 1188.31152344 -382.284179688 c 1,22,-1
 1188 -578 l 1,23,24
 1036 -651 1036 -651 801.528320312 -651.249023438 c 0,25,26
 422 -651 422 -651 244 -459.306640625 c 0,27,28
 115 -320 115 -320 114.987304688 -104.852539062 c 0,29,30
 115 390.072265625 115 390.072265625 781 537.776367188 c 2,31,-1
 791 539.994140625 l 1,0,1
EndSplineSet
Substitution2: "'fina' Terminal Forms in Arabic lookup 9 subtable" uniFEA2
Substitution2: "'medi' Medial Forms in Arabic lookup 11 subtable" uniFEA4
Substitution2: "'init' Initial Forms in Arabic lookup 13 subtable" uniFEA3
EndChar

StartChar: uni062F
Encoding: 1583 1583 23
GlifName: uni062F_
Width: 980
VWidth: 2952
GlyphClass: 2
Flags: W
AnchorPoint: "Anchor-10" 424.137 1375.03 basechar 0
AnchorPoint: "Anchor-7" 437.24 -239.316 basechar 0
LayerCount: 2
Fore
SplineSet
100.982421875 213.208007812 m 1,0,1
 222 188 222 188 341.663085938 188.107421875 c 0,2,3
 692 188 692 188 691.954101562 366.380859375 c 4,4,5
 692 566 692 566 323 798 c 5,6,-1
 396 972.844726562 l 5,7,8
 879 682 879 682 878.479492188 368.896484375 c 4,9,10
 878 3 878 3 354.810072299 2.25983437974 c 0,11,12
 208 2 208 2 100.982421875 25.8583984375 c 1,13,-1
 100.982421875 213.208007812 l 1,0,1
EndSplineSet
Substitution2: "'fina' Terminal Forms in Arabic lookup 9 subtable" uniFEAA
EndChar

StartChar: uni0631
Encoding: 1585 1585 25
GlifName: uni0631
Width: 800
VWidth: 2144
GlyphClass: 2
Flags: W
AnchorPoint: "Anchor-10" 459.256 1370.2 basechar 0
AnchorPoint: "Anchor-7" 364.969 -769.998 basechar 0
LayerCount: 2
Fore
SplineSet
633 511 m 1,0,1
 703 295 703 295 703 114 c 4,2,3
 703 -8 703 -8 674 -97.637835552 c 0,4,5
 558 -454 558 -454 -13 -482.319335938 c 1,6,-1
 -13.130859375 -299.87890625 l 1,7,8
 528 -273 528 -273 528.250976562 112.243164062 c 0,9,10
 528 313 528 313 435 512 c 1,11,-1
 633 511 l 1,0,1
EndSplineSet
PairPos2: "'kern' Horizontal Kerning lookup 15-2" uniFBFE dx=60 dy=0 dh=60 dv=0 dx=0 dy=0 dh=0 dv=0
PairPos2: "'kern' Horizontal Kerning lookup 15-1" uniFEE7 dx=-178 dy=0 dh=-178 dv=0 dx=0 dy=0 dh=0 dv=0
PairPos2: "'kern' Horizontal Kerning lookup 15-2" uniFB90 dx=-226 dy=0 dh=-226 dv=0 dx=0 dy=0 dh=0 dv=0
PairPos2: "'kern' Horizontal Kerning lookup 15-2" uniFB8E dx=-226 dy=0 dh=-226 dv=0 dx=0 dy=0 dh=0 dv=0
PairPos2: "'kern' Horizontal Kerning lookup 15-2" uni06A9 dx=-226 dy=0 dh=-226 dv=0 dx=0 dy=0 dh=0 dv=0
PairPos2: "'kern' Horizontal Kerning lookup 15-2" uni064A dx=-60 dy=0 dh=-60 dv=0 dx=0 dy=0 dh=0 dv=0
PairPos2: "'kern' Horizontal Kerning lookup 15-2" afii57414 dx=-60 dy=0 dh=-60 dv=0 dx=0 dy=0 dh=0 dv=0
PairPos2: "'kern' Horizontal Kerning lookup 15-2" uni0649 dx=-60 dy=0 dh=-60 dv=0 dx=0 dy=0 dh=0 dv=0
PairPos2: "'kern' Horizontal Kerning lookup 15-2" uniFEEB dx=-178 dy=0 dh=-178 dv=0 dx=0 dy=0 dh=0 dv=0
PairPos2: "'kern' Horizontal Kerning lookup 15-2" uni0647 dx=-178 dy=0 dh=-178 dv=0 dx=0 dy=0 dh=0 dv=0
PairPos2: "'kern' Horizontal Kerning lookup 15-2" uni0646 dx=-60 dy=0 dh=-60 dv=0 dx=0 dy=0 dh=0 dv=0
PairPos2: "'kern' Horizontal Kerning lookup 15-2" uniFEE3 dx=-178 dy=0 dh=-178 dv=0 dx=0 dy=0 dh=0 dv=0
PairPos2: "'kern' Horizontal Kerning lookup 15-2" uni0645 dx=-178 dy=0 dh=-178 dv=0 dx=0 dy=0 dh=0 dv=0
PairPos2: "'kern' Horizontal Kerning lookup 15-2" uniFEFB dx=-143 dy=0 dh=-143 dv=0 dx=0 dy=0 dh=0 dv=0
PairPos2: "'kern' Horizontal Kerning lookup 15-2" uniFEDF dx=-143 dy=0 dh=-143 dv=0 dx=0 dy=0 dh=0 dv=0
PairPos2: "'kern' Horizontal Kerning lookup 15-2" uni0644 dx=-60 dy=0 dh=-60 dv=0 dx=0 dy=0 dh=0 dv=0
PairPos2: "'kern' Horizontal Kerning lookup 15-2" uniFEDB dx=-226 dy=0 dh=-226 dv=0 dx=0 dy=0 dh=0 dv=0
PairPos2: "'kern' Horizontal Kerning lookup 15-2" uni0643 dx=-143 dy=0 dh=-143 dv=0 dx=0 dy=0 dh=0 dv=0
PairPos2: "'kern' Horizontal Kerning lookup 15-2" uniFED7 dx=-178 dy=0 dh=-178 dv=0 dx=0 dy=0 dh=0 dv=0
PairPos2: "'kern' Horizontal Kerning lookup 15-2" uni0642 dx=-60 dy=0 dh=-60 dv=0 dx=0 dy=0 dh=0 dv=0
PairPos2: "'kern' Horizontal Kerning lookup 15-2" uniFED3 dx=-178 dy=0 dh=-178 dv=0 dx=0 dy=0 dh=0 dv=0
PairPos2: "'kern' Horizontal Kerning lookup 15-2" uni0641 dx=-178 dy=0 dh=-178 dv=0 dx=0 dy=0 dh=0 dv=0
PairPos2: "'kern' Horizontal Kerning lookup 15-2" uniFECF dx=-178 dy=0 dh=-178 dv=0 dx=0 dy=0 dh=0 dv=0
PairPos2: "'kern' Horizontal Kerning lookup 15-2" uniFECB dx=-178 dy=0 dh=-178 dv=0 dx=0 dy=0 dh=0 dv=0
PairPos2: "'kern' Horizontal Kerning lookup 15-2" uniFEC7 dx=-178 dy=0 dh=-178 dv=0 dx=0 dy=0 dh=0 dv=0
PairPos2: "'kern' Horizontal Kerning lookup 15-2" uni0638 dx=-178 dy=0 dh=-178 dv=0 dx=0 dy=0 dh=0 dv=0
PairPos2: "'kern' Horizontal Kerning lookup 15-2" uniFEC3 dx=-178 dy=0 dh=-178 dv=0 dx=0 dy=0 dh=0 dv=0
PairPos2: "'kern' Horizontal Kerning lookup 15-2" uni0637 dx=-178 dy=0 dh=-178 dv=0 dx=0 dy=0 dh=0 dv=0
PairPos2: "'kern' Horizontal Kerning lookup 15-2" uniFEBF dx=-178 dy=0 dh=-178 dv=0 dx=0 dy=0 dh=0 dv=0
PairPos2: "'kern' Horizontal Kerning lookup 15-2" uni0636 dx=-178 dy=0 dh=-178 dv=0 dx=0 dy=0 dh=0 dv=0
PairPos2: "'kern' Horizontal Kerning lookup 15-2" uniFEBB dx=-178 dy=0 dh=-178 dv=0 dx=0 dy=0 dh=0 dv=0
PairPos2: "'kern' Horizontal Kerning lookup 15-2" uni0635 dx=-178 dy=0 dh=-178 dv=0 dx=0 dy=0 dh=0 dv=0
PairPos2: "'kern' Horizontal Kerning lookup 15-2" uniFEB7 dx=-178 dy=0 dh=-178 dv=0 dx=0 dy=0 dh=0 dv=0
PairPos2: "'kern' Horizontal Kerning lookup 15-2" uni0634 dx=-178 dy=0 dh=-178 dv=0 dx=0 dy=0 dh=0 dv=0
PairPos2: "'kern' Horizontal Kerning lookup 15-2" uniFEB3 dx=-178 dy=0 dh=-178 dv=0 dx=0 dy=0 dh=0 dv=0
PairPos2: "'kern' Horizontal Kerning lookup 15-2" uni0633 dx=-178 dy=0 dh=-178 dv=0 dx=0 dy=0 dh=0 dv=0
PairPos2: "'kern' Horizontal Kerning lookup 15-2" uni0630 dx=-178 dy=0 dh=-178 dv=0 dx=0 dy=0 dh=0 dv=0
PairPos2: "'kern' Horizontal Kerning lookup 15-2" uni062F dx=-178 dy=0 dh=-178 dv=0 dx=0 dy=0 dh=0 dv=0
PairPos2: "'kern' Horizontal Kerning lookup 15-2" uniFEA7 dx=-178 dy=0 dh=-178 dv=0 dx=0 dy=0 dh=0 dv=0
PairPos2: "'kern' Horizontal Kerning lookup 15-2" uniFEA3 dx=-178 dy=0 dh=-178 dv=0 dx=0 dy=0 dh=0 dv=0
PairPos2: "'kern' Horizontal Kerning lookup 15-2" uniFE9F dx=-178 dy=0 dh=-178 dv=0 dx=0 dy=0 dh=0 dv=0
PairPos2: "'kern' Horizontal Kerning lookup 15-2" uniFE9B dx=-178 dy=0 dh=-178 dv=0 dx=0 dy=0 dh=0 dv=0
PairPos2: "'kern' Horizontal Kerning lookup 15-2" uni062B dx=-178 dy=0 dh=-178 dv=0 dx=0 dy=0 dh=0 dv=0
PairPos2: "'kern' Horizontal Kerning lookup 15-2" uniFE97 dx=-178 dy=0 dh=-178 dv=0 dx=0 dy=0 dh=0 dv=0
PairPos2: "'kern' Horizontal Kerning lookup 15-2" uni062A dx=-178 dy=0 dh=-178 dv=0 dx=0 dy=0 dh=0 dv=0
PairPos2: "'kern' Horizontal Kerning lookup 15-2" uni0629 dx=-178 dy=0 dh=-178 dv=0 dx=0 dy=0 dh=0 dv=0
PairPos2: "'kern' Horizontal Kerning lookup 15-2" uni0628 dx=-178 dy=0 dh=-178 dv=0 dx=0 dy=0 dh=0 dv=0
PairPos2: "'kern' Horizontal Kerning lookup 15-2" uni0627 dx=-143 dy=0 dh=-143 dv=0 dx=0 dy=0 dh=0 dv=0
PairPos2: "'kern' Horizontal Kerning lookup 15-2" uni0623 dx=-143 dy=0 dh=-143 dv=0 dx=0 dy=0 dh=0 dv=0
PairPos2: "'kern' Horizontal Kerning lookup 15-2" uni0622 dx=-143 dy=0 dh=-143 dv=0 dx=0 dy=0 dh=0 dv=0
PairPos2: "'kern' Horizontal Kerning lookup 15-2" uni0621 dx=-178 dy=0 dh=-178 dv=0 dx=0 dy=0 dh=0 dv=0
PairPos2: "'kern' Horizontal Kerning lookup 15-2" uniFB94 dx=-226 dy=0 dh=-226 dv=0 dx=0 dy=0 dh=0 dv=0
PairPos2: "'kern' Horizontal Kerning lookup 15-2" uniFB92 dx=-226 dy=0 dh=-226 dv=0 dx=0 dy=0 dh=0 dv=0
PairPos2: "'kern' Horizontal Kerning lookup 15-2" uni06AF dx=-226 dy=0 dh=-226 dv=0 dx=0 dy=0 dh=0 dv=0
PairPos2: "'kern' Horizontal Kerning lookup 15-2" afii57506 dx=-178 dy=0 dh=-178 dv=0 dx=0 dy=0 dh=0 dv=0
PairPos2: "'kern' Horizontal Kerning lookup 15-2" afii57440 dx=-178 dy=0 dh=-178 dv=0 dx=0 dy=0 dh=0 dv=0
PairPos2: "'kern' Horizontal Kerning lookup 15-2" uniFE8B dx=-178 dy=0 dh=-178 dv=0 dx=0 dy=0 dh=0 dv=0
Substitution2: "'fina' Terminal Forms in Arabic lookup 9 subtable" uniFEAE
EndChar

StartChar: uni0633
Encoding: 1587 1587 27
GlifName: uni0633
Width: 2486
VWidth: 2952
GlyphClass: 2
Flags: W
AnchorPoint: "Anchor-10" 1764.53 1377.1 basechar 0
AnchorPoint: "Anchor-7" 565.902 -800.086 basechar 0
LayerCount: 2
Fore
SplineSet
1501.80664062 -0.0810546875 m 0,0,1
 1368 0 1368 0 1299.91992188 56.0498046875 c 1,2,3
 1257 -477 1257 -477 687.330078125 -476.724609375 c 0,4,5
 101 -477 101 -477 101.752929688 101.043945312 c 0,6,7
 102 262 102 262 163.028320312 440.125 c 1,8,-1
 335.548828125 439.787109375 l 1,9,10
 282 252 282 252 282.268554688 102.860351562 c 0,11,12
 282 -293 282 -293 694.400390625 -293.203125 c 0,13,14
 1129 -293 1129 -293 1130.5546875 141.93359375 c 0,15,16
 1131 335 1131 335 1090.44628906 510.768554688 c 1,17,-1
 1263.08789062 512.0859375 l 1,18,-1
 1286.26855469 398.080078125 l 2,19,20
 1329 188 1329 188 1503.50097656 187.9921875 c 16,21,22
 1694.92997562 187.999997143 1694.92997562 187.999997143 1708.81640625 412.627929688 c 2,23,-1
 1718.81640625 574.388671875 l 5,24,-1
 1863.62695312 574.388671875 l 5,25,-1
 1873.62695312 412.563476562 l 2,26,27
 1887 189 1887 189 2056.93359375 188.45703125 c 0,28,29
 2227.41699219 187.998879388 2227.41699219 187.998879388 2227.41699219 409.317382812 c 2,30,-1
 2227.41699219 717.228515625 l 1,31,-1
 2399.36621094 717.228515625 l 1,32,-1
 2399.36621094 410.418945312 l 2,33,34
 2399 1 2399 1 2060.16210938 0.912109375 c 0,35,36
 1865 1 1865 1 1806.15527344 140.961914062 c 1,37,38
 1705 0 1705 0 1501.80664062 -0.0810546875 c 0,0,1
EndSplineSet
Substitution2: "'fina' Terminal Forms in Arabic lookup 9 subtable" uniFEB2
Substitution2: "'medi' Medial Forms in Arabic lookup 11 subtable" uniFEB4
Substitution2: "'init' Initial Forms in Arabic lookup 13 subtable" uniFEB3
EndChar

StartChar: uni0635
Encoding: 1589 1589 29
GlifName: uni0635
Width: 2585
VWidth: 2952
GlyphClass: 2
Flags: W
AnchorPoint: "Anchor-7" 595.902 -800.086 basechar 0
AnchorPoint: "Anchor-10" 2064.53 1372.1 basechar 0
LayerCount: 2
Fore
SplineSet
1289.26855469 358.080078125 m 2,0,1
 1315 206 1315 206 1363.78710938 217.107421875 c 1,2,3
 1716 811 1716 811 2091.34765625 810.42578125 c 0,4,5
 2300 810 2300 810 2410.26367188 652.060546875 c 0,6,7
 2474 561 2474 561 2474.56445312 441.813476562 c 0,8,9
 2475 367 2475 367 2454 302.029296875 c 0,10,11
 2357 0 2357 0 1703.15136719 0 c 2,12,-1
 1652.34082031 0 l 2,13,14
 1413 0 1413 0 1299.91992188 56.0498046875 c 1,15,16
 1257 -477 1257 -477 687.330078125 -476.724609375 c 0,17,18
 100 -477 100 -477 101.752929688 101.043945312 c 0,19,20
 102 262 102 262 163.028320312 440.120117188 c 1,21,-1
 335.548828125 440.120117188 l 1,22,23
 282 252 282 252 282.268554688 102.860351562 c 0,24,25
 283 -293 283 -293 694.400390625 -293.203125 c 0,26,27
 1128 -293 1128 -293 1130.5546875 141.93359375 c 0,28,29
 1131 336 1131 336 1090.44628906 512.08984375 c 1,30,-1
 1263.08789062 512.08984375 l 1,31,-1
 1289.26855469 358.080078125 l 2,0,1
1554.65625 188.416992188 m 1,32,-1
 1708.75292969 188.416992188 l 2,33,34
 2295.08455747 187.698409341 2295.08455747 187.698409341 2292.66894531 431.143554688 c 4,35,36
 2292 496 2292 496 2257.95605469 541 c 0,37,38
 2199 618 2199 618 2092.11816406 618.573242188 c 0,39,40
 1828 618 1828 618 1554.65625 188.416992188 c 1,32,-1
EndSplineSet
Substitution2: "'fina' Terminal Forms in Arabic lookup 9 subtable" uniFEBA
Substitution2: "'medi' Medial Forms in Arabic lookup 11 subtable" uniFEBC
Substitution2: "'init' Initial Forms in Arabic lookup 13 subtable" uniFEBB
EndChar

StartChar: uni0637
Encoding: 1591 1591 31
GlifName: uni0637
Width: 1534
VWidth: 2952
GlyphClass: 2
Flags: W
AnchorPoint: "Anchor-10" 475.36 1612.58 basechar 0
AnchorPoint: "Anchor-7" 641.602 -236.453 basechar 0
LayerCount: 2
Fore
SplineSet
1047.84667969 810.423828125 m 0,0,1
 1260 810 1260 810 1369.52441406 651.025390625 c 0,2,3
 1430 563 1430 563 1429.67382812 447.791992188 c 0,4,5
 1430 0 1430 0 658.228515625 0 c 2,6,-1
 101.302734375 0 l 1,7,-1
 101.302734375 188.221679688 l 1,8,-1
 321.826171875 188.376953125 l 1,9,-1
 323.553710938 188.377929688 l 1,10,-1
 324.419921875 189.873046875 l 2,11,12
 362 246 362 246 399.209960938 301.157226562 c 2,13,-1
 399.6328125 301.866210938 l 1,14,-1
 399.6328125 302.692382812 l 1,15,-1
 399.6328125 1448.87402344 l 1,16,-1
 568.946289062 1448.87402344 l 1,17,-1
 568.946289062 528.209960938 l 1,18,19
 795 810 795 810 1047.84667969 810.423828125 c 0,0,1
663.833007812 188.534179688 m 2,20,21
 1248.30423281 188.534179688 1248.30423281 188.534179688 1247.73828125 429.374023438 c 4,22,23
 1248 514 1248 514 1188.93261719 567.390625 c 0,24,25
 1133 619 1133 619 1047.39648438 618.573242188 c 0,26,27
 782 619 782 619 509.755859375 188.534179688 c 1,28,-1
 663.833007812 188.534179688 l 2,20,21
EndSplineSet
Substitution2: "'fina' Terminal Forms in Arabic lookup 9 subtable" uniFEC2
Substitution2: "'medi' Medial Forms in Arabic lookup 11 subtable" uniFEC4
Substitution2: "'init' Initial Forms in Arabic lookup 13 subtable" uniFEC3
EndChar

StartChar: uni0639
Encoding: 1593 1593 33
GlifName: uni0639
Width: 1286
VWidth: 2952
GlyphClass: 2
Flags: W
AnchorPoint: "Anchor-10" 733.478 1366.07 basechar 0
AnchorPoint: "Anchor-7" 526.833 -922.619 basechar 0
LayerCount: 2
Fore
SplineSet
104.987304688 -104.852539062 m 0,0,1
 105 245 105 245 442.815429688 401.236328125 c 1,2,3
 316 547 316 547 315.84375 695.0703125 c 0,4,5
 316 764 316 764 343.353515625 833.65625 c 0,6,7
 370 900 370 900 423.698242188 956.767578125 c 0,8,9
 531 1070 531 1070 714 1070 c 128,-1,10
 897 1070 897 1070 1075.66113281 947.680664062 c 1,11,-1
 1008.3125 792.307617188 l 1,12,13
 859 881 859 881 723.943359375 880.802734375 c 0,14,15
 595 881 595 881 535.880859375 782.607421875 c 0,16,17
 506 734 506 734 506.20703125 682.166015625 c 0,18,19
 506 637 506 637 529.54296875 589.2421875 c 0,20,21
 552 544 552 544 615.020507812 463.221679688 c 1,22,23
 794 494 794 494 971.204101562 494.546875 c 0,24,25
 1065 495 1065 495 1153.74121094 484.849609375 c 5,26,-1
 1131.38867188 309.689453125 l 5,27,28
 1071 312 1071 312 1015.02636719 312.172851562 c 0,29,30
 275 312 275 312 275.249023438 -89.302734375 c 0,31,32
 275 -468 275 -468 806.383789062 -467.783203125 c 0,33,34
 998 -468 998 -468 1178.31152344 -382.284179688 c 1,35,-1
 1178 -578 l 1,36,37
 1026 -651 1026 -651 791.528320312 -651.249023438 c 0,38,39
 412 -651 412 -651 234 -459.306640625 c 0,40,41
 105 -320 105 -320 104.987304688 -104.852539062 c 0,0,1
EndSplineSet
Substitution2: "'fina' Terminal Forms in Arabic lookup 9 subtable" uniFECA
Substitution2: "'medi' Medial Forms in Arabic lookup 11 subtable" uniFECC
Substitution2: "'init' Initial Forms in Arabic lookup 13 subtable" uniFECB
EndChar

StartChar: afii57440
Encoding: 1600 1600 35
GlifName: afii57440
Width: 286
VWidth: 2952
GlyphClass: 2
Flags: W
AnchorPoint: "Anchor-10" 143.774 1376.11 basechar 0
AnchorPoint: "Anchor-7" 147.7 -234.739 basechar 0
LayerCount: 2
Fore
SplineSet
-6.9384765625 0 m 2,0,1
 -84.7783203125 0 -84.7783203125 0 -84.7783203125 88.3134765625 c 2,2,-1
 -84.7783203125 107.192382812 l 2,3,4
 -84.999997321 187.999023438 -84.999997321 187.999023438 -6.9384765625 187.999023438 c 2,5,-1
 294.64453125 187.999023438 l 2,6,7
 314.771484375 187.999989037 314.771484375 187.999989037 314.771484375 107.174804688 c 2,8,-1
 314.771484375 88.3251953125 l 2,9,10
 315.45975557 -1.52766688188e-12 315.45975557 -1.52766688188e-12 294.69140625 0 c 6,11,-1
 -6.9384765625 0 l 2,0,1
EndSplineSet
EndChar

StartChar: uni0643
Encoding: 1603 1603 38
GlifName: uni0643
Width: 1981
VWidth: 2952
GlyphClass: 2
Flags: W
AnchorPoint: "Anchor-7" 750.268 -236.468 basechar 0
AnchorPoint: "Anchor-10" 943.11 1606.05 basechar 0
LayerCount: 2
Fore
SplineSet
871.8671875 188.13671875 m 0,0,1
 1042 188 1042 188 1159.71875 198.809570312 c 0,2,3
 1653 245 1653 245 1646.82910156 571.963867188 c 5,4,-1
 1646.82910156 1444.56640625 l 5,5,-1
 1819.70996094 1444.56640625 l 1,6,-1
 1819.70996094 574.338867188 l 2,7,8
 1820 307 1820 307 1652.49707031 168.098632812 c 0,9,10
 1451 0 1451 0 892.133789062 0 c 0,11,-1
 890.911132812 0 l 2,12,13
 105 0 105 0 104.16015625 485.872070312 c 0,14,15
 104 616 104 616 132 709 c 1,16,-1
 312 709 l 1,17,18
 283 607 283 607 283.424804688 504.521484375 c 0,19,20
 285 188 285 188 871.8671875 188.13671875 c 0,0,1
726.16015625 772.014648438 m 1,21,22
 820 762 820 762 888.541992188 761.266601562 c 0,23,24
 995 761 995 761 1048.5078125 782.905273438 c 128,-1,25
 1102 805 1102 805 1102.74707031 851.642578125 c 0,26,27
 1103 895 1103 895 1072.24511719 920.521484375 c 0,28,29
 1042 947 1042 947 981.092773438 955.450195312 c 0,30,31
 767 988 767 988 770.930664062 1168.4921875 c 0,32,33
 776 1375 776 1375 1163.61035156 1403.55273438 c 1,34,-1
 1163.61035156 1274.98925781 l 1,35,36
 904 1251 904 1251 904.139648438 1160.4453125 c 0,37,38
 904 1086 904 1086 1042.91601562 1064.75683594 c 0,39,40
 1236 1035 1236 1035 1235.36425781 856.126953125 c 0,41,42
 1235 735 1235 735 1116.39941406 670.239257812 c 0,43,44
 1041 629 1041 629 906 629.088867188 c 0,45,46
 826 629 826 629 726.16015625 644.366210938 c 1,47,-1
 726.16015625 772.014648438 l 1,21,22
EndSplineSet
Substitution2: "'fina' Terminal Forms in Arabic lookup 9 subtable" uniFEDA
Substitution2: "'medi' Medial Forms in Arabic lookup 11 subtable" uniFEDC
Substitution2: "'init' Initial Forms in Arabic lookup 13 subtable" uniFEDB
EndChar

StartChar: uni0644
Encoding: 1604 1604 39
GlifName: uni0644
Width: 1411
VWidth: 2952
GlyphClass: 2
Flags: W
AnchorPoint: "Anchor-7" 565.902 -800.086 basechar 0
AnchorPoint: "Anchor-10" 563.908 1221.66 basechar 0
LayerCount: 2
Fore
SplineSet
687.330078125 -476.724609375 m 4,0,1
 101 -477 101 -477 101.752929688 101.043945312 c 4,2,3
 102 262 102 262 163.028320312 440.125 c 5,4,-1
 335.548828125 439.787109375 l 5,5,6
 282 252 282 252 282.268554688 102.860351562 c 4,7,8
 282 -293 282 -293 687.685546875 -293.216796875 c 4,9,10
 1083.63964844 -293 1083.63964844 -293 1084.60449219 99.8037109375 c 6,11,-1
 1087.91699219 1447.99316406 l 5,12,-1
 1257.88574219 1447.99316406 l 5,13,-1
 1257.18554688 299.321289062 l 6,14,15
 1257 157 1257 157 1247.859375 28.4931640625 c 4,16,17
 1210 -477 1210 -477 687.330078125 -476.724609375 c 4,0,1
EndSplineSet
Substitution2: "'fina' Terminal Forms in Arabic lookup 9 subtable" uniFEDE
Substitution2: "'medi' Medial Forms in Arabic lookup 11 subtable" uniFEE0
Substitution2: "'init' Initial Forms in Arabic lookup 13 subtable" uniFEDF
EndChar

StartChar: uni0645
Encoding: 1605 1605 40
GlifName: uni0645
Width: 1242
VWidth: 2622
GlyphClass: 2
Flags: W
AnchorPoint: "Anchor-7" 724.983 -346.909 basechar 0
AnchorPoint: "Anchor-10" 697.239 1374.48 basechar 0
LayerCount: 2
Fore
SplineSet
800.723632812 150.75 m 0,0,1
 901 151 901 151 940 221.044921875 c 0,2,3
 957.219726562 251.58984375 957.219726562 251.58984375 957.864257812 289 c 0,4,5
 958.690429688 336.932617188 958.690429688 336.932617188 939.724609375 383 c 0,6,7
 907.21875 461.958007812 907.21875 461.958007812 851 495.620117188 c 0,8,9
 811.836914062 519.069335938 811.836914062 519.069335938 760.614257812 519.158203125 c 0,10,11
 597.599609375 518.90625 597.599609375 518.90625 569.541015625 302.028320312 c 1,12,13
 671 151 671 151 800.723632812 150.75 c 0,0,1
507 110 m 0,14,15
 477 138 477 138 428.370117188 137.747070312 c 0,16,17
 279 136 279 136 279.751475698 -368 c 0,18,19
 280 -564 280 -564 293.813476562 -724.813476562 c 1,20,-1
 110.231445312 -724.813476562 l 1,21,22
 98 -535 98 -535 99.0615234375 -364 c 0,23,24
 102 9 102 9 178 159 c 0,25,26
 258 316 258 316 397.721679688 340 c 1,27,28
 431 489 431 489 495 572.666992188 c 0,29,30
 595 703 595 703 757.327148438 703.532226562 c 0,31,32
 926 704 926 704 1032.42578125 570.094726562 c 0,33,34
 1125 454 1125 454 1124.47460938 291.60546875 c 0,35,36
 1124 148 1124 148 1052.41796875 64.3955078125 c 0,37,38
 975 -27 975 -27 815.204101562 -27.2431640625 c 0,39,40
 657 -27 657 -27 553 67.9232483932 c 0,41,42
 530 89 530 89 507 110 c 0,14,15
EndSplineSet
Substitution2: "'init' Initial Forms in Arabic lookup 13 subtable" uniFEE3
Substitution2: "'medi' Medial Forms in Arabic lookup 11 subtable" uniFEE4
Substitution2: "'fina' Terminal Forms in Arabic lookup 9 subtable" uniFEE2
EndChar

StartChar: uni0647
Encoding: 1607 1607 42
GlifName: uni0647
Width: 942
VWidth: 2952
GlyphClass: 2
Flags: W
AnchorPoint: "Anchor-10" 430.775 1379.01 basechar 0
AnchorPoint: "Anchor-7" 450.63 -240.576 basechar 0
LayerCount: 2
Fore
SplineSet
461.8671875 644.166992188 m 1,0,1
 271.884553421 477.774717419 271.884553421 477.774717419 271.884553421 350.989329604 c 0,2,3
 271.884553421 189.000043067 271.884553421 189.000043067 475.345703125 188.9921875 c 0,4,5
 680.423918412 189.00013265 680.423918412 189.00013265 680.423918412 352.147601374 c 0,6,7
 680.423918412 470.052253303 680.423918412 470.052253303 461.8671875 644.166992188 c 1,0,1
375 973 m 1,8,9
 851 626 851 626 850.791827689 346.377299235 c 0,10,11
 851 157 851 157 686.272460938 54.5078125 c 0,12,13
 607 5 607 5 476.05078125 4.1943359375 c 0,14,15
 355 4 355 4 269.450195312 46.7998046875 c 0,16,17
 101 131 101 131 101.368342912 345.788734753 c 0,18,19
 101 552 101 552 335.907226562 780.524414062 c 5,20,-1
 305 803 l 29,21,-1
 375 973 l 1,8,9
EndSplineSet
Substitution2: "'fina' Terminal Forms in Arabic lookup 9 subtable" uniFEEA
Substitution2: "'medi' Medial Forms in Arabic lookup 11 subtable" uniFEEC
Substitution2: "'init' Initial Forms in Arabic lookup 13 subtable" uniFEEB
EndChar

StartChar: uni0648
Encoding: 1608 1608 43
GlifName: uni0648
Width: 910
VWidth: 2144
GlyphClass: 2
Flags: W
AnchorPoint: "Anchor-7" 364.969 -769.998 basechar 0
AnchorPoint: "Anchor-10" 459.256 1370.2 basechar 0
LayerCount: 2
Fore
SplineSet
67 -492.319335938 m 1,0,-1
 66.869140625 -309.87890625 l 1,1,2
 552 -288 552 -288 632.099609375 12.228515625 c 1,3,4
 562 9 562 9 552.180664062 8.8115234375 c 0,5,6
 549.712713475 8.80127367015 549.712713475 8.80127367015 547.258726938 8.80127367015 c 0,7,8
 116.000027627 8.80127367015 116.000027627 8.80127367015 116.004882812 325.353515625 c 0,9,10
 116 494 116 494 207 607.883789062 c 0,11,12
 295 718 295 718 449.10546875 718.077148438 c 0,13,14
 658 718 658 718 745.26953125 480 c 0,15,16
 774.389207406 400.278828753 774.389207406 400.278828753 789.941095614 319 c 0,17,18
 807.75979188 225.874152957 807.75979188 225.874152957 807.75979188 130.180003156 c 0,19,20
 807.75979188 103.688416598 807.75979188 103.688416598 806.394199498 77 c 0,21,22
 797.318027261 -100.37991864 797.318027261 -100.37991864 728 -209.212528719 c 0,23,24
 565 -467 565 -467 67 -492.319335938 c 1,0,-1
630.629882812 192.602539062 m 1,25,26
 608 534 608 534 437.405273438 534.124023438 c 0,27,28
 365 534 365 534 324 479.53515625 c 0,29,30
 283 424 283 424 283.159179688 337.5625 c 0,31,32
 283.011315075 187.484453958 283.011315075 187.484453958 512.488759537 187.484453958 c 0,33,34
 530.049110401 187.484453958 530.049110401 187.484453958 548.954101562 188.36328125 c 0,35,36
 563 189 563 189 630.629882812 192.602539062 c 1,25,26
EndSplineSet
Substitution2: "'fina' Terminal Forms in Arabic lookup 9 subtable" uniFEEE
EndChar

StartChar: uni0649
Encoding: 1609 1609 44
GlifName: uni0649
Width: 1494
VWidth: 2952
GlyphClass: 2
Flags: W
AnchorPoint: "Anchor-10" 717.6 1368.22 basechar 0
AnchorPoint: "Anchor-7" 595.902 -750.086 basechar 0
LayerCount: 2
Fore
SplineSet
763.400390625 -223.203125 m 0,0,1
 1136 -222 1136 -222 1218.04492188 -22 c 0,2,3
 1266.08307521 94.2009531514 1266.08307521 94.2009531514 1143.56640625 97.0146484375 c 2,4,-1
 1103 97.9462890625 l 2,5,6
 844 104 844 104 841 318 c 0,7,8
 839 478 839 478 911.001953125 577 c 0,9,10
 1058 779 1058 779 1388.37597656 785.549804688 c 5,11,-1
 1388.07421875 592.741210938 l 5,12,13
 1254 591 1254 591 1176 554.277079166 c 0,14,15
 1014 478 1014 478 1016.30326811 332 c 0,16,17
 1016.99867306 284.091416978 1016.99867306 284.091416978 1077 284.037109375 c 2,18,-1
 1118 284 l 2,19,20
 1474 284 1474 284 1388.890625 -43 c 0,21,22
 1294 -405 1294 -405 756.330078125 -406.724609375 c 0,23,24
 150 -408 150 -408 150.752929688 171.043945312 c 0,25,26
 151 372 151 372 212.028320312 550.125 c 1,27,-1
 384.548828125 549.787109375 l 1,28,29
 331 362 331 362 331.268554688 172.860351562 c 0,30,31
 331 -224 331 -224 763.400390625 -223.203125 c 0,0,1
EndSplineSet
Substitution2: "'fina' Terminal Forms in Arabic lookup 9 subtable" uniFEF0
Substitution2: "'medi' Medial Forms in Arabic lookup 11 subtable" uniFBE9
Substitution2: "'init' Initial Forms in Arabic lookup 13 subtable" uniFBE8
EndChar

StartChar: uni064B
Encoding: 1611 1611 46
GlifName: uni064B_
Width: -26
VWidth: 2316
GlyphClass: 4
Flags: W
AnchorPoint: "Anchor-10" 593.551 1113.65 mark 0
AnchorPoint: "Anchor-9" 593.551 1113.65 mark 0
AnchorPoint: "Anchor-1" 553.285 1666.25 basemark 0
AnchorPoint: "Anchor-1" 593.551 1113.65 mark 0
LayerCount: 2
Fore
SplineSet
326.700195312 1076.40039062 m 1,0,-1
 326.700195312 1179.97753906 l 1,1,-1
 782.099609375 1366.27832031 l 1,2,-1
 782.099609375 1262.70019531 l 1,3,-1
 326.700195312 1076.40039062 l 1,0,-1
326.700195312 1328.40039062 m 1,4,-1
 326.700195312 1431.97753906 l 1,5,-1
 782.099609375 1618.27832031 l 1,6,-1
 782.099609375 1514.70019531 l 1,7,-1
 326.700195312 1328.40039062 l 1,4,-1
EndSplineSet
EndChar

StartChar: uni064C
Encoding: 1612 1612 47
GlifName: uni064C_
Width: -26
VWidth: 2316
GlyphClass: 4
Flags: W
AnchorPoint: "Anchor-10" 680.906 1218.67 mark 0
AnchorPoint: "Anchor-9" 680.906 1218.67 mark 0
AnchorPoint: "Anchor-1" 571.739 1915.46 basemark 0
AnchorPoint: "Anchor-1" 680.906 1218.67 mark 0
LayerCount: 2
Fore
SplineSet
587.700195312 1717.20019531 m 0,0,1
 568 1694 568 1694 567.713867188 1664.09277344 c 0,2,3
 567.992998269 1607.42154258 567.992998269 1607.42154258 633.58203125 1579.84570312 c 0,4,5
 657 1570 657 1570 707.779296875 1554.83300781 c 1,6,7
 735 1601 735 1601 735.001953125 1648.8203125 c 0,8,9
 735 1747 735 1747 654.299804688 1746.29394531 c 4,10,11
 612 1746 612 1746 587.700195312 1717.20019531 c 0,0,1
318.795898438 1514.47949219 m 1,12,13
 323 1288 323 1288 452.537109375 1289.27539062 c 0,14,15
 524 1290 524 1290 600.506835938 1364.1015625 c 0,16,17
 645 1408 645 1408 684.62890625 1486.18359375 c 1,18,-1
 655.040039062 1492.46289062 l 2,19,20
 555 1514 555 1514 518.3046875 1562.05078125 c 0,21,22
 486 1605 486 1605 486 1655.09960938 c 0,23,24
 486 1706 486 1706 503.069335938 1739.70019531 c 0,25,26
 547 1825 547 1825 650.174804688 1825.4140625 c 4,27,28
 722 1826 722 1826 765.19140625 1784.28027344 c 0,29,30
 813 1738 813 1738 813.390625 1650.37890625 c 0,31,32
 814 1610 814 1610 791.735351562 1541.11914062 c 1,33,-1
 821.8671875 1539.53710938 l 2,34,35
 851 1538 851 1538 880.497070312 1537.51953125 c 1,36,-1
 880.497070312 1459.00878906 l 1,37,38
 840.4852365 1459.9881233 840.4852365 1459.9881233 829.890625 1461.00683594 c 2,39,-1
 753.71875 1468.33105469 l 1,40,41
 708 1357 708 1357 620.0390625 1281.13378906 c 0,42,43
 540 1211 540 1211 453.6796875 1210.96386719 c 0,44,45
 268 1210 268 1210 263.147460938 1514.47949219 c 1,46,-1
 318.795898438 1514.47949219 l 1,12,13
EndSplineSet
EndChar

StartChar: uni064D
Encoding: 1613 1613 48
GlifName: uni064D_
Width: -26
VWidth: 2316
GlyphClass: 4
Flags: W
AnchorPoint: "Anchor-7" 546.278 61.7109 mark 0
AnchorPoint: "Anchor-6" 546.278 61.7109 mark 0
AnchorPoint: "Anchor-0" 592.022 -447.025 basemark 0
AnchorPoint: "Anchor-0" 546.278 61.7109 mark 0
LayerCount: 2
Fore
SplineSet
332.099609375 -486 m 1,0,-1
 332.099609375 -382.422851562 l 1,1,-1
 787.5 -196.122070312 l 1,2,-1
 787.5 -299.700195312 l 1,3,-1
 332.099609375 -486 l 1,0,-1
332.099609375 -234 m 1,4,-1
 332.099609375 -130.422851562 l 1,5,-1
 787.5 55.8779296875 l 1,6,-1
 787.5 -47.7001953125 l 1,7,-1
 332.099609375 -234 l 1,4,-1
EndSplineSet
EndChar

StartChar: uni064E
Encoding: 1614 1614 49
GlifName: uni064E_
Width: -26
VWidth: 2316
GlyphClass: 4
Flags: W
AnchorPoint: "Anchor-10" 581.66 1364.63 mark 0
AnchorPoint: "Anchor-9" 581.66 1364.63 mark 0
AnchorPoint: "Anchor-1" 541.396 1691.77 basemark 0
AnchorPoint: "Anchor-1" 581.66 1364.63 mark 0
LayerCount: 2
Fore
SplineSet
296.099609375 1349.09960938 m 5,0,-1
 296.099609375 1452.67773438 l 5,1,-1
 751.5 1638.97851562 l 5,2,-1
 751.5 1535.40039062 l 5,3,-1
 296.099609375 1349.09960938 l 5,0,-1
EndSplineSet
EndChar

StartChar: uni064F
Encoding: 1615 1615 50
GlifName: uni064F_
Width: -26
VWidth: 2316
GlyphClass: 4
Flags: W
AnchorPoint: "Anchor-10" 611.295 1299.37 mark 0
AnchorPoint: "Anchor-9" 611.295 1299.37 mark 0
AnchorPoint: "Anchor-1" 580.134 1920.4 basemark 0
AnchorPoint: "Anchor-1" 611.295 1299.37 mark 0
LayerCount: 2
Fore
SplineSet
822.65234375 1474.00195312 m 1,0,1
 762.442709859 1474.00001426 762.442709859 1474.00001426 724 1479 c 2,2,3
 692.682617188 1483.07324219 l 1,4,5
 559.162650294 1295.10025939 559.162650294 1295.10025939 318.57421875 1282.671875 c 5,6,-1
 318.57421875 1360.92578125 l 1,7,8
 508 1369 508 1369 605.90625 1507.50097656 c 1,9,10
 563 1516 563 1516 516.532226562 1541.44140625 c 0,11,12
 430 1590 430 1590 430.25 1675.55273438 c 0,13,14
 431 1740 431 1740 466.200195312 1782.81054688 c 0,15,16
 512 1838 512 1838 592.970703125 1837.95996094 c 0,17,18
 654 1838 654 1838 698.7109375 1802 c 0,19,20
 731 1776 731 1776 745.739257812 1737.19824219 c 0,21,22
 756 1709 756 1709 755.545898438 1675.40039062 c 0,23,24
 755.001400201 1617.14979395 755.001400201 1617.14979395 729.807617188 1556.24804688 c 1,25,-1
 749.616210938 1554.48535156 l 2,26,27
 789 1551 789 1551 822.65234375 1552.28222656 c 1,28,-1
 822.65234375 1474.00195312 l 1,0,1
649.93359375 1569.78027344 m 1,29,-1
 656.099609375 1584 l 2,30,31
 677 1632 677 1632 677.158203125 1673.71679688 c 0,32,33
 677 1715 677 1715 652.086914062 1735.38183594 c 0,34,35
 627 1757 627 1757 596.94140625 1757.47167969 c 0,36,37
 552 1758 552 1758 527.400390625 1725.90039062 c 0,38,39
 510.43897218 1702.94729395 510.43897218 1702.94729395 509.868164062 1672.02734375 c 0,40,41
 510 1625 510 1625 575.73828125 1594.79003906 c 0,42,43
 599 1584 599 1584 649.93359375 1569.78027344 c 1,29,-1
EndSplineSet
EndChar

StartChar: uni0650
Encoding: 1616 1616 51
GlifName: uni0650
Width: -26
VWidth: 2316
GlyphClass: 4
Flags: W
AnchorPoint: "Anchor-7" 571.144 -21.8242 mark 0
AnchorPoint: "Anchor-6" 571.144 -21.8242 mark 0
AnchorPoint: "Anchor-0" 619.091 -334.624 basemark 0
AnchorPoint: "Anchor-0" 571.144 -21.8242 mark 0
LayerCount: 2
Fore
SplineSet
342.900390625 -345.599609375 m 1,0,-1
 342.900390625 -242.022460938 l 1,1,-1
 798.299804688 -55.7216796875 l 1,2,-1
 798.299804688 -159.299804688 l 1,3,-1
 342.900390625 -345.599609375 l 1,0,-1
EndSplineSet
EndChar

StartChar: uni0651
Encoding: 1617 1617 52
GlifName: uni0651
Width: -26
VWidth: 2393
GlyphClass: 4
Flags: W
AnchorPoint: "Anchor-10" 598.801 1463.71 mark 0
AnchorPoint: "Anchor-9" 598.801 1463.71 mark 0
AnchorPoint: "Anchor-1" 570.087 1849.1 basemark 0
AnchorPoint: "Anchor-1" 598.801 1463.71 mark 0
LayerCount: 2
Fore
SplineSet
608.421875 1768.46289062 m 1,0,1
 610.200195312 1727.09960938 610.200195312 1727.09960938 610.623046875 1685.90234375 c 0,2,3
 610.200195312 1593.90039062 610.200195312 1593.90039062 676.689453125 1594.25195312 c 0,4,5
 747 1594.79980469 747 1594.79980469 747.626953125 1695.16894531 c 0,6,7
 747.900390625 1733.40039062 747.900390625 1733.40039062 731.092773438 1812.90917969 c 1,8,-1
 819.168945312 1826.859375 l 1,9,10
 837 1764.90039062 837 1764.90039062 836.52734375 1705.04003906 c 0,11,12
 837 1503 837 1503 690.397460938 1501.66601562 c 4,13,14
 626.400390625 1501.20019531 626.400390625 1501.20019531 583.87890625 1555.26660156 c 1,15,16
 553.5 1438.20019531 553.5 1438.20019531 431.985351562 1437.88964844 c 0,17,18
 297 1438.20019531 297 1438.20019531 294.302734375 1606.5 c 0,19,20
 293.400390625 1665.90039062 293.400390625 1665.90039062 307.078125 1715.74121094 c 1,21,-1
 385.392578125 1702.72070312 l 1,22,23
 375.299804688 1656 375.299804688 1656 375.577148438 1619.63378906 c 0,24,25
 376.200195312 1536.29980469 376.200195312 1536.29980469 443.658203125 1535.90234375 c 0,26,27
 525.599609375 1535.40039062 525.599609375 1535.40039062 529.950195312 1649.21582031 c 0,28,29
 531.900390625 1700.09960938 531.900390625 1700.09960938 531.095703125 1768.46289062 c 1,30,-1
 608.421875 1768.46289062 l 1,0,1
EndSplineSet
EndChar

StartChar: uni0652
Encoding: 1618 1618 53
GlifName: uni0652
Width: -26
VWidth: 2316
GlyphClass: 4
Flags: W
AnchorPoint: "Anchor-10" 603.219 1222.43 mark 0
AnchorPoint: "Anchor-9" 603.219 1222.43 mark 0
AnchorPoint: "Anchor-1" 577.537 1799.66 basemark 0
AnchorPoint: "Anchor-1" 603.219 1222.43 mark 0
LayerCount: 2
Fore
SplineSet
398.139648438 1461.671875 m 128,-1,1
 398.139648438 1543.57226562 398.139648438 1543.57226562 454.838867188 1600.27246094 c 128,-1,2
 511.5390625 1656.97167969 511.5390625 1656.97167969 593.439453125 1656.97167969 c 128,-1,3
 675.338867188 1656.97167969 675.338867188 1656.97167969 732.0390625 1600.27246094 c 128,-1,4
 788.739257812 1543.57226562 788.739257812 1543.57226562 788.739257812 1461.671875 c 128,-1,5
 788.739257812 1379.77246094 788.739257812 1379.77246094 732.0390625 1323.07226562 c 128,-1,6
 675.338867188 1266.37207031 675.338867188 1266.37207031 593.439453125 1266.37207031 c 128,-1,7
 511.5390625 1266.37207031 511.5390625 1266.37207031 454.838867188 1323.07226562 c 128,-1,0
 398.139648438 1379.77246094 398.139648438 1379.77246094 398.139648438 1461.671875 c 128,-1,1
484.5390625 1460.77246094 m 0,8,9
 484.200195312 1413.90039062 484.200195312 1413.90039062 516.939453125 1381.57226562 c 0,10,11
 549 1349.09960938 549 1349.09960938 596.139648438 1349.171875 c 0,12,13
 642.599609375 1349.09960938 642.599609375 1349.09960938 675.338867188 1381.57226562 c 0,14,15
 707.400390625 1413.90039062 707.400390625 1413.90039062 707.739257812 1460.77246094 c 0,16,17
 707.400390625 1507.5 707.400390625 1507.5 675.338867188 1539.97167969 c 0,18,19
 642.599609375 1572.29980469 642.599609375 1572.29980469 596.139648438 1572.37207031 c 0,20,21
 549 1572.29980469 549 1572.29980469 516.939453125 1539.97167969 c 0,22,23
 484.200195312 1507.5 484.200195312 1507.5 484.5390625 1460.77246094 c 0,8,9
EndSplineSet
EndChar

StartChar: uni0653
Encoding: 1619 1619 54
GlifName: uni0653
Width: -30
VWidth: 2673
GlyphClass: 4
Flags: W
AnchorPoint: "Anchor-10" 461.017 1539.11 mark 0
AnchorPoint: "Anchor-9" 461.017 1539.11 mark 0
AnchorPoint: "Anchor-1" 461.017 1975.25 basemark 0
AnchorPoint: "Anchor-1" 461.017 1539.11 mark 0
LayerCount: 2
Fore
SplineSet
400.348632812 1636.8046875 m 6,0,1
 289.097070302 1652.11547185 289.097070302 1652.11547185 197.061523438 1542.6328125 c 5,2,-1
 95.6953125 1649.29980469 l 5,3,4
 214.313143403 1819.44918336 214.313143403 1819.44918336 383.756835938 1792.15820312 c 6,5,-1
 532.506835938 1768.20019531 l 2,6,7
 630 1752 630 1752 752.004882812 1813.74121094 c 1,8,-1
 817.659179688 1677.28320312 l 1,9,10
 689.104504566 1597.06521075 689.104504566 1597.06521075 540.869140625 1617.46582031 c 2,11,-1
 400.348632812 1636.8046875 l 6,0,1
EndSplineSet
EndChar

StartChar: uni0657
Encoding: 1623 1623 57
GlifName: uni0657
Width: -26
VWidth: 2316
GlyphClass: 4
Flags: W
AnchorPoint: "Anchor-10" 573.285 1350.55 mark 0
AnchorPoint: "Anchor-9" 573.285 1350.55 mark 0
AnchorPoint: "Anchor-1" 573.285 2089.85 basemark 0
AnchorPoint: "Anchor-1" 573.285 1350.55 mark 0
LayerCount: 2
Fore
SplineSet
264.529296875 1804.66113281 m 1,0,1
 324 1803 324 1803 394.52734375 1795.6015625 c 1,2,-1
 395.744140625 1797.33398438 l 2,3,4
 545 2010 545 2010 784.673828125 2032.71289062 c 1,5,-1
 784.673828125 1954.59179688 l 1,6,7
 600 1925 600 1925 486.279296875 1778.19140625 c 1,8,9
 548 1760 548 1760 591.110351562 1728.47753906 c 0,10,11
 658 1678 658 1678 657.9765625 1598.87109375 c 0,12,13
 658 1529 658 1529 613.258789062 1482.93261719 c 0,14,15
 570 1438 570 1438 501.358398438 1438.01367188 c 0,16,17
 427 1438 427 1438 373.69921875 1490.15820312 c 0,18,19
 332 1532 332 1532 331.635742188 1603.27929688 c 0,20,21
 332 1647 332 1647 355.373046875 1722.42480469 c 1,22,23
 315 1726 315 1726 264.529296875 1726.37695312 c 1,24,-1
 264.529296875 1804.66113281 l 1,0,1
501.342773438 1516.40234375 m 0,25,26
 542 1517 542 1517 561.741210938 1544 c 0,27,28
 577 1566 577 1566 577.313476562 1596.63378906 c 0,29,30
 577 1656 577 1656 499 1689 c 0,31,32
 468 1702 468 1702 437.249023438 1708.89453125 c 1,33,34
 410 1645 410 1645 410.0234375 1604.96484375 c 0,35,36
 410 1584 410 1584 416.790039062 1568.4453125 c 0,37,38
 427 1545 427 1545 452 1530.51660156 c 128,-1,39
 477 1516 477 1516 501.342773438 1516.40234375 c 0,25,26
EndSplineSet
EndChar

StartChar: uni065A
Encoding: 1626 1626 58
GlifName: uni065A_
Width: 1135
VWidth: 2316
GlyphClass: 4
Flags: W
AnchorPoint: "Anchor-10" 573.285 1350.55 mark 0
AnchorPoint: "Anchor-9" 573.285 1350.55 mark 0
AnchorPoint: "Anchor-1" 571.012 1862.38 basemark 0
AnchorPoint: "Anchor-1" 573.285 1350.55 mark 0
LayerCount: 2
Fore
SplineSet
502.3671875 1444.42578125 m 1,0,-1
 308.524414062 1768.49023438 l 1,1,-1
 412.922851562 1768.49023438 l 1,2,-1
 573.28515625 1527.93945312 l 1,3,-1
 733.6484375 1768.49023438 l 1,4,-1
 838.047851562 1768.49023438 l 1,5,-1
 644.202148438 1444.42578125 l 1,6,-1
 502.3671875 1444.42578125 l 1,0,-1
EndSplineSet
EndChar

StartChar: afii57392
Encoding: 1632 1632 59
GlifName: afii57392
Width: 1077
VWidth: 2952
GlyphClass: 2
Flags: W
LayerCount: 2
Fore
SplineSet
399.290039062 593.262695312 m 128,-1,1
 399.290039062 533.686523438 399.290039062 533.686523438 440.400390625 492.579101562 c 0,2,3
 460.923828125 472.0546875 460.923828125 472.0546875 486.515625 461.638671875 c 128,-1,4
 512.106445312 451.22265625 512.106445312 451.22265625 542.592773438 450.966796875 c 0,5,6
 602.68359375 451.48046875 602.68359375 451.48046875 643.782226562 492.579101562 c 0,7,8
 664.297851562 513.094726562 664.297851562 513.094726562 674.594726562 538.3203125 c 128,-1,9
 684.890625 563.545898438 684.890625 563.545898438 684.890625 593.262695312 c 128,-1,10
 684.890625 622.98046875 684.890625 622.98046875 674.594726562 648.20703125 c 128,-1,11
 664.298828125 673.432617188 664.298828125 673.432617188 643.782226562 693.94921875 c 0,12,13
 602.68359375 735.046875 602.68359375 735.046875 541.587890625 735.560546875 c 0,14,15
 511.594726562 735.3046875 511.594726562 735.3046875 486.258789062 724.887695312 c 128,-1,16
 460.922851562 714.470703125 460.922851562 714.470703125 440.400390625 693.94921875 c 0,17,0
 399.290039062 652.83984375 399.290039062 652.83984375 399.290039062 593.262695312 c 128,-1,1
313.629882812 817.463867188 m 0,18,19
 336.936523438 840.76953125 336.936523438 840.76953125 362.502929688 858.217773438 c 128,-1,20
 388.0703125 875.666992188 388.0703125 875.666992188 415.919921875 887.284179688 c 0,21,22
 471.620117188 910.51953125 471.620117188 910.51953125 536.678710938 910.51953125 c 0,23,24
 580.053710938 910.51953125 580.053710938 910.51953125 619.258789062 900.193359375 c 128,-1,25
 658.46484375 889.8671875 658.46484375 889.8671875 693.568359375 869.192382812 c 128,-1,26
 728.672851562 848.518554688 728.672851562 848.518554688 759.727539062 817.463867188 c 0,27,28
 806.303710938 770.887695312 806.303710938 770.887695312 829.543945312 715.178710938 c 128,-1,29
 852.784179688 659.469726562 852.784179688 659.469726562 852.784179688 594.4140625 c 0,30,31
 852.784179688 464.420898438 852.784179688 464.420898438 759.727539062 371.364257812 c 0,32,33
 736.422851562 348.059570312 736.422851562 348.059570312 710.858398438 330.65234375 c 128,-1,34
 685.29296875 313.244140625 685.29296875 313.244140625 657.446289062 301.705078125 c 128,-1,35
 629.586914062 290.16015625 629.586914062 290.16015625 599.411132812 284.466796875 c 128,-1,36
 569.235351562 278.774414062 569.235351562 278.774414062 536.625 278.923828125 c 0,37,38
 471.583007812 278.625 471.583007812 278.625 415.895507812 301.70703125 c 0,39,40
 397.336914062 309.399414062 397.336914062 309.399414062 379.796875 319.6953125 c 128,-1,41
 362.256835938 329.991210938 362.256835938 329.991210938 345.711914062 342.909179688 c 128,-1,42
 329.166992188 355.827148438 329.166992188 355.827148438 313.629882812 371.364257812 c 0,43,44
 267.055664062 417.939453125 267.055664062 417.939453125 243.81640625 473.6484375 c 128,-1,45
 220.577148438 529.357421875 220.577148438 529.357421875 220.577148438 594.415039062 c 128,-1,46
 220.577148438 659.475585938 220.577148438 659.475585938 243.811523438 715.17578125 c 128,-1,47
 267.049804688 770.883789062 267.049804688 770.883789062 313.629882812 817.463867188 c 0,18,19
EndSplineSet
EndChar

StartChar: afii57393
Encoding: 1633 1633 60
GlifName: afii57393
Width: 756
VWidth: 2952
GlyphClass: 2
Flags: W
LayerCount: 2
Fore
SplineSet
314.71875 1416.01269531 m 5,0,1
 519.115234375 967.747277526 519.115234375 967.747277526 519.115234375 308.771484375 c 2,2,-1
 519.115234375 11.5537109375 l 1,3,-1
 334.796875 11.5537109375 l 1,4,-1
 334.791992188 311.91796875 l 2,5,6
 335 973 335 973 144.876953125 1357.90820312 c 5,7,-1
 314.71875 1416.01269531 l 5,0,1
EndSplineSet
EndChar

StartChar: afii57394
Encoding: 1634 1634 61
GlifName: afii57394
Width: 1237
VWidth: 2952
GlyphClass: 2
Flags: W
LayerCount: 2
Fore
SplineSet
416.250976562 1134.26855469 m 1,0,1
 477 962 477 962 685.032477694 961.769052576 c 0,2,3
 833 962 833 962 881.30078125 1056 c 0,4,5
 936 1162 936 1162 935.948242188 1404.54394531 c 1,6,-1
 1115.69335938 1403.99023438 l 1,7,8
 1115 1329 1115 1329 1110.75585938 1263.66308594 c 0,9,10
 1092 1008 1092 1008 1002.73242188 896.075195312 c 0,11,12
 905 774 905 774 689.243419666 774.568221355 c 0,13,14
 559 775 559 775 485.4296875 821.508789062 c 1,15,-1
 486.266601562 815.135742188 l 2,16,17
 519.115234375 564.119424279 519.115234375 564.119424279 519.115234375 308.771484375 c 2,18,-1
 519.115234375 11.5537109375 l 1,19,-1
 334.796875 11.5537109375 l 1,20,-1
 334.791992188 311.91796875 l 2,21,22
 335 973 335 973 144.876953125 1357.90820312 c 1,23,-1
 314.497070312 1415.9375 l 1,24,-1
 416.250976562 1134.26855469 l 1,0,1
EndSplineSet
EndChar

StartChar: afii57395
Encoding: 1635 1635 62
GlifName: afii57395
Width: 1492
VWidth: 2952
GlyphClass: 2
Flags: W
LayerCount: 2
Fore
SplineSet
486.0859375 816.447265625 m 2,0,1
 519.115234375 567.284511529 519.115234375 567.284511529 519.115234375 308.771484375 c 2,2,-1
 519.115234375 11.5537109375 l 1,3,-1
 334.796875 11.5537109375 l 1,4,-1
 334.791992188 311.916992188 l 2,5,6
 335 973 335 973 144.876953125 1357.90820312 c 5,7,-1
 314.466796875 1415.92675781 l 5,8,-1
 424.159179688 1101.63671875 l 2,9,10
 467 979 467 979 610.522460938 977.631835938 c 0,11,12
 770.313712353 976.998757099 770.313712353 976.998757099 764.365234375 1234.56054688 c 2,13,-1
 761.662109375 1351.60253906 l 1,14,-1
 920.317382812 1356.65332031 l 1,15,-1
 924.010742188 1212.3984375 l 2,16,17
 930 972 930 972 1080.54199219 970.891601562 c 0,18,19
 1148 970 1148 970 1177.61523438 1030.83007812 c 0,20,21
 1194.34209049 1065.80634409 1194.34209049 1065.80634409 1201.2890625 1127.03515625 c 0,22,23
 1209.31289651 1200.87963067 1209.31289651 1200.87963067 1209.51855469 1288.29785156 c 2,24,-1
 1209.83105469 1421.13085938 l 1,25,-1
 1386.63378906 1421.29394531 l 1,26,-1
 1386.0546875 1290.61523438 l 2,27,28
 1386 1233 1386 1233 1378.70898438 1143.52148438 c 0,29,30
 1350 786 1350 786 1086.67382812 787.768554688 c 0,31,32
 936.561714736 789.003606003 936.561714736 789.003606003 839.801757812 901.188476562 c 2,33,-1
 837.467773438 903.89453125 l 1,34,-1
 835.20703125 901.125976562 l 2,35,36
 742 787 742 787 623.100585938 786.943359375 c 0,37,38
 599 787 599 787 578.809570312 789.684570312 c 0,39,40
 558 792 558 792 542 796.032226562 c 128,-1,41
 526 800 526 800 512.768554688 805.875 c 0,42,43
 501.565194255 810.371767537 501.565194255 810.371767537 490.973632812 819.150390625 c 2,44,-1
 485.080078125 824.03515625 l 1,45,-1
 486.0859375 816.447265625 l 2,0,1
EndSplineSet
EndChar

StartChar: afii57396
Encoding: 1636 1636 63
GlifName: afii57396
Width: 1056
VWidth: 2952
GlyphClass: 2
Flags: W
LayerCount: 2
Fore
SplineSet
139.309570312 311.82421875 m 0,0,1
 131 560 131 560 501.677734375 752.083007812 c 1,2,3
 221 853 221 853 221.663085938 1059.95703125 c 0,4,5
 222 1171 222 1171 269.499023438 1239.296875 c 4,6,7
 411 1446 411 1446 820.08203125 1397.38085938 c 1,8,-1
 807.461914062 1215.27636719 l 1,9,10
 757 1221 757 1221 714 1221.45898438 c 0,11,12
 432 1222 432 1222 430.830078125 1062.08496094 c 0,13,14
 430 901 430 901 787.768554688 871.708984375 c 1,15,-1
 790.048828125 688.10546875 l 1,16,17
 326 501 326 501 335.516601562 350.264648438 c 0,18,19
 346.022652892 193.662337911 346.022652892 193.662337911 723.831054688 196.053710938 c 2,20,-1
 917.767578125 197.28125 l 1,21,-1
 919.984375 0.01953125 l 1,22,-1
 717.081054688 0.46875 l 2,23,24
 149 2 149 2 139.309570312 311.82421875 c 0,0,1
EndSplineSet
EndChar

StartChar: afii57397
Encoding: 1637 1637 64
GlifName: afii57397
Width: 1257
VWidth: 2952
GlyphClass: 2
Flags: W
LayerCount: 2
Fore
SplineSet
600.591796875 1070.64550781 m 5,0,1
 310 760 310 760 309.721679688 493.224609375 c 0,2,3
 310 348 310 348 416.696289062 264.071289062 c 0,4,5
 505 195 505 195 654.083496094 195.291015625 c 0,6,7
 804 195 804 195 885.265625 291.330078125 c 0,8,9
 947 364 947 364 946.259765625 500.30859375 c 0,10,11
 946 808 946 808 600.591796875 1070.64550781 c 5,0,1
397.208984375 1230.90136719 m 5,12,-1
 501.911132812 1399.72949219 l 5,13,14
 1136 993 1136 993 1136.70605469 477.263671875 c 0,15,16
 1137 205 1137 205 941.158203125 83.97265625 c 0,17,18
 817 7 817 7 640.247070313 8.38818359375 c 0,19,20
 463 9 463 9 335.077148438 80.3515625 c 0,21,22
 116 201 116 201 118.62890625 475.9453125 c 0,23,24
 122 823 122 823 451.9921875 1188.9296875 c 5,25,-1
 397.208984375 1230.90136719 l 5,12,-1
EndSplineSet
EndChar

StartChar: afii57398
Encoding: 1638 1638 65
GlifName: afii57398
Width: 1305
VWidth: 2952
GlyphClass: 2
Flags: W
LayerCount: 2
Fore
SplineSet
832.682617188 1166.31835938 m 6,0,1
 667.302566654 1121.00162112 667.302566654 1121.00162112 494.029296875 1120.07324219 c 4,2,3
 266 1120 266 1120 81.41796875 1203.32128906 c 5,4,-1
 81.41796875 1413.89746094 l 5,5,6
 279 1322 279 1322 509.7890625 1321.84277344 c 4,7,8
 574 1322 574 1322 636.537109375 1327.67578125 c 4,9,10
 700 1334 700 1334 761.530273438 1345.32519531 c 4,11,12
 824 1357 824 1357 884.536132812 1374.69824219 c 4,13,14
 946 1392 946 1392 1005.52734375 1415.73535156 c 5,15,16
 1017 498 1017 498 1163.07519531 11.5537109375 c 1,17,-1
 969.34765625 11.5537109375 l 1,18,19
 848.509823726 502.993515836 848.509823726 502.993515836 836.473632812 1163.47949219 c 6,20,-1
 836.403320312 1167.33789062 l 5,21,-1
 832.682617188 1166.31835938 l 6,0,1
EndSplineSet
EndChar

StartChar: afii57399
Encoding: 1639 1639 66
GlifName: afii57399
Width: 1301
VWidth: 2952
GlyphClass: 2
Flags: W
LayerCount: 2
Fore
SplineSet
1202.60644531 1330.14648438 m 5,0,1
 878 693 878 693 734.271484375 11.5537109375 c 1,2,-1
 566.603515625 11.5537109375 l 1,3,4
 418 688 418 688 98.2646484375 1330.1328125 c 5,5,-1
 266.727539062 1415.70214844 l 5,6,7
 547.443338191 836.084602309 547.443338191 836.084602309 647.508789062 341.645507812 c 2,8,-1
 650.446289062 327.130859375 l 1,9,-1
 653.389648438 341.64453125 l 2,10,11
 754 838 754 838 1034.1640625 1415.703125 c 5,12,-1
 1202.60644531 1330.14648438 l 5,0,1
EndSplineSet
EndChar

StartChar: afii57400
Encoding: 1640 1640 67
GlifName: afii57400
Width: 1301
VWidth: 2952
GlyphClass: 2
Flags: W
LayerCount: 2
Fore
SplineSet
647.508789062 1065.99023438 m 6,0,1
 546.549837131 569.134184605 546.549837131 569.134184605 266.729492188 -8.0693359375 c 1,2,-1
 98.2646484375 77.5009765625 l 1,3,4
 418 720 418 720 566.603515625 1396.08105469 c 5,5,-1
 734.283203125 1396.08105469 l 5,6,7
 881 721 881 721 1202.62109375 77.49609375 c 1,8,-1
 1034.1640625 -8.0693359375 l 1,9,10
 753.57879943 571.870576806 753.57879943 571.870576806 653.389648438 1065.98828125 c 6,11,-1
 650.452148438 1080.47558594 l 5,12,-1
 647.508789062 1065.99023438 l 6,0,1
EndSplineSet
EndChar

StartChar: afii57401
Encoding: 1641 1641 68
GlifName: afii57401
Width: 1198
VWidth: 2952
GlyphClass: 2
Flags: W
LayerCount: 2
Fore
SplineSet
509.53125 615.165039062 m 4,0,1
 111 615 111 615 111.948242188 967.607421875 c 0,2,3
 112 1111 112 1111 182.5 1224.5 c 0,4,5
 304 1420 304 1420 515.064453125 1420.31542969 c 0,6,7
 925 1420 925 1420 947.947265625 921.424804688 c 0,8,9
 963 594 963 594 1000.78222656 11.5537109375 c 1,10,-1
 819.748046875 11.5537109375 l 1,11,-1
 796.065429688 682.900390625 l 1,12,13
 660 615 660 615 509.53125 615.165039062 c 4,0,1
778.341796875 869.395507812 m 1,14,-1
 776.405273438 892.450195312 l 2,15,16
 747.12106522 1236.57732786 747.12106522 1236.57732786 513.16796875 1228.54296875 c 0,17,18
 410 1225 410 1225 341.44921875 1133.54492188 c 0,19,20
 287 1060 287 1060 287.008789062 975.275390625 c 0,21,22
 287.932886164 804.409381303 287.932886164 804.409381303 514 804.892273837 c 0,23,24
 649.297118611 805.18127637 649.297118611 805.18127637 778.341796875 869.395507812 c 1,14,-1
EndSplineSet
EndChar

StartChar: afii57381
Encoding: 1642 1642 69
GlifName: afii57381
Width: 1288
VWidth: 4038
GlyphClass: 2
Flags: W
LayerCount: 2
Fore
SplineSet
749.512695312 345.344726562 m 128,-1,1
 749.512695312 415.227539062 749.512695312 415.227539062 799.518554688 464.306640625 c 0,2,3
 848.588867188 513.376953125 848.588867188 513.376953125 918.5 513.83984375 c 0,4,5
 953.512695312 514.071289062 953.512695312 514.071289062 983.178710938 501.719726562 c 128,-1,6
 1012.84472656 489.368164062 1012.84472656 489.368164062 1037.44238281 464.306640625 c 0,7,8
 1062.01660156 439.731445312 1062.01660156 439.731445312 1074.25976562 410.045898438 c 128,-1,9
 1086.50390625 380.360351562 1086.50390625 380.360351562 1086.50390625 345.344726562 c 0,10,11
 1086.50390625 275.443359375 1086.50390625 275.443359375 1037.44238281 226.380859375 c 128,-1,12
 988.379882812 177.318359375 988.379882812 177.318359375 918.48046875 177.318359375 c 128,-1,13
 848.580078125 177.318359375 848.580078125 177.318359375 799.499023438 226.400390625 c 0,14,0
 749.512695312 275.459960938 749.512695312 275.459960938 749.512695312 345.344726562 c 128,-1,1
200.96875 1199.37011719 m 0,15,16
 201 1269 201 1269 250.965820312 1318.32324219 c 0,17,18
 300 1367 300 1367 369.958007812 1367.86523438 c 0,19,20
 440 1368 440 1368 488.895507812 1318.33496094 c 0,21,22
 538 1269 538 1269 537.959960938 1199.37011719 c 0,23,24
 538 1129 538 1129 488.888671875 1080.3984375 c 0,25,26
 464 1056 464 1056 434.78125 1043.51464844 c 0,27,28
 405 1031 405 1031 369.9296875 1031.34472656 c 0,29,30
 300 1031 300 1031 250.963867188 1080.41894531 c 0,31,32
 201 1129 201 1129 200.96875 1199.37011719 c 0,15,16
895.728515625 1452.96582031 m 1,33,-1
 1049 1374 l 1,34,-1
 354.951171875 33.673828125 l 1,35,-1
 202.111328125 117.6640625 l 1,36,-1
 895.728515625 1452.96582031 l 1,33,-1
EndSplineSet
EndChar

StartChar: uni066B
Encoding: 1643 1643 70
GlifName: uni066B_
Width: 822
VWidth: 2952
GlyphClass: 2
Flags: W
LayerCount: 2
Fore
SplineSet
532.755859375 818.005859375 m 1,0,-1
 664.05859375 762.266601562 l 1,1,-1
 199.7890625 -309.061523438 l 1,2,-1
 66.3642578125 -250.9921875 l 1,3,-1
 532.755859375 818.005859375 l 1,0,-1
EndSplineSet
EndChar

StartChar: uni066C
Encoding: 1644 1644 71
GlifName: uni066C_
Width: 588
VWidth: 2842
GlyphClass: 2
Flags: W
LayerCount: 2
Fore
SplineSet
127.02734375 150.623046875 m 0,0,1
 127.514648438 199.213867188 127.514648438 199.213867188 145.67578125 231.4453125 c 128,-1,2
 163.8359375 263.676757812 163.8359375 263.676757812 199.989257812 279.850585938 c 128,-1,3
 236.142578125 296.024414062 236.142578125 296.024414062 290.584960938 296.182617188 c 0,4,5
 436.666015625 296.829101562 436.666015625 296.829101562 463.669921875 167.809570312 c 0,6,7
 478.244140625 96.7724609375 478.244140625 96.7724609375 451.774414062 -9.224609375 c 0,8,9
 393.353515625 -232.500976562 393.353515625 -232.500976562 188.64453125 -401.0546875 c 1,10,-1
 137.49609375 -368.359375 l 1,11,12
 310.2109375 -193.501953125 310.2109375 -193.501953125 323.518554688 -10.2431640625 c 2,13,-1
 324.041015625 -3.078125 l 1,14,-1
 324.28125 0.2177734375 l 1,15,-1
 320.977539062 0.138671875 l 1,16,-1
 313.798828125 -0.0322265625 l 2,17,18
 266.21484375 -1.1533203125 266.21484375 -1.1533203125 246.815429688 3.404296875 c 0,19,20
 126.26953125 27.7294921875 126.26953125 27.7294921875 127.02734375 150.623046875 c 0,0,1
EndSplineSet
EndChar

StartChar: afii63167
Encoding: 1645 1645 72
GlifName: afii63167
Width: 1584
VWidth: 2952
GlyphClass: 2
Flags: W
LayerCount: 2
Fore
SplineSet
232.590820312 1038.65136719 m 1,0,-1
 662.741210938 1038.65136719 l 1,1,-1
 664.913085938 1038.65136719 l 1,2,-1
 665.591796875 1040.71484375 l 1,3,-1
 799.995117188 1449.92871094 l 1,4,-1
 934.400390625 1040.71484375 l 1,5,-1
 935.079101562 1038.65136719 l 1,6,-1
 937.250976562 1038.65136719 l 1,7,-1
 1367.40136719 1038.65136719 l 1,8,-1
 1019.86132812 784.586914062 l 1,9,-1
 1018.10644531 783.303710938 l 1,10,-1
 1018.77929688 781.236328125 l 1,11,-1
 1151.70117188 372.89453125 l 1,12,-1
 801.751953125 625.767578125 l 1,13,-1
 799.995117188 627.037109375 l 1,14,-1
 798.23828125 625.767578125 l 1,15,-1
 448.291992188 372.89453125 l 1,16,-1
 581.211914062 781.236328125 l 1,17,-1
 581.884765625 783.303710938 l 1,18,-1
 580.129882812 784.586914062 l 1,19,-1
 232.590820312 1038.65136719 l 1,0,-1
EndSplineSet
EndChar

StartChar: uni066E
Encoding: 1646 1646 73
GlifName: uni066E_
Width: 1837
VWidth: 2952
GlyphClass: 2
Flags: W
AnchorPoint: "Anchor-10" 1007.36 1415.35 basechar 0
AnchorPoint: "Anchor-7" 957.36 -257.261 basechar 0
LayerCount: 2
Fore
SplineSet
283.424804688 504.521484375 m 0,0,1
 285 188 285 188 871.8671875 188.13671875 c 0,2,3
 1566 188 1566 188 1564.37988281 515.411132812 c 0,4,5
 1564 605 1564 605 1527.80859375 730.631835938 c 1,6,-1
 1704.89355469 730.63 l 1,7,8
 1745 610 1745 610 1744.90625 519.708984375 c 4,9,10
 1744 0 1744 0 894.356445312 0 c 2,11,-1
 890.911132812 0 l 2,12,13
 105 0 105 0 104.16015625 485.872070312 c 0,14,15
 104 616 104 616 132 709 c 1,16,-1
 312 709 l 1,17,18
 283 607 283 607 283.424804688 504.521484375 c 0,0,1
EndSplineSet
Substitution2: "'init' Initial Forms in Arabic lookup 13 subtable" uni066E.init
Substitution2: "'medi' Medial Forms in Arabic lookup 11 subtable" uni066E.medi
Substitution2: "'fina' Terminal Forms in Arabic lookup 9 subtable" uni066E.fina
EndChar

StartChar: uni066F
Encoding: 1647 1647 74
GlifName: uni066F_
Width: 1393
VWidth: 2952
GlyphClass: 2
Flags: W
AnchorPoint: "Anchor-10" 121.809 1352.22 basechar 0
AnchorPoint: "Anchor-7" 335.219 -721.353 basechar 0
LayerCount: 2
Fore
SplineSet
1292.15429688 68.720703125 m 4,0,1
 1240 -409 1240 -409 687.330078125 -408.724609375 c 0,2,3
 101 -409 101 -409 101.752929688 169.043945312 c 0,4,5
 102 330 102 330 163.028320312 508.120117188 c 1,6,-1
 335.548828125 508.120117188 l 1,7,8
 282 320 282 320 282.268554688 170.860351562 c 0,9,10
 283 -225 283 -225 694.400390625 -225.203125 c 0,11,12
 1083 -225 1083 -225 1121.00683594 74.380859375 c 1,13,-1
 1051.08789062 73.9638671875 l 0,14,15
 607 74 607 74 606.912109375 412.505859375 c 0,16,17
 607 567 607 567 693.907226562 677.036132812 c 0,18,19
 782 787 782 787 938.012695312 787.229492188 c 0,20,21
 1216.93876955 787.019610157 1216.93876955 787.019610157 1282.51553201 343 c 0,22,23
 1305.26659663 188.952766481 1305.26659663 188.952766481 1292.15429688 68.720703125 c 4,0,1
1119.53710938 256.754882812 m 1,24,25
 1097 603 1097 603 926.3125 603.276367188 c 0,26,27
 852 603 852 603 812.907226562 548.6875 c 0,28,29
 774 495 774 495 774.06640625 424.71484375 c 0,30,31
 774 260 774 260 1037.86132812 257.515625 c 0,32,33
 1079 257 1079 257 1119.53710938 256.754882812 c 1,24,25
EndSplineSet
Substitution2: "'init' Initial Forms in Arabic lookup 13 subtable" uni066F.init
Substitution2: "'medi' Medial Forms in Arabic lookup 11 subtable" uni066F.medi
Substitution2: "'fina' Terminal Forms in Arabic lookup 9 subtable" uni066F.fina
EndChar

StartChar: uni0670
Encoding: 1648 1648 75
GlifName: uni0670
Width: -29
VWidth: 2574
GlyphClass: 4
Flags: W
AnchorPoint: "Anchor-10" 636.984 1500.61 mark 0
AnchorPoint: "Anchor-9" 636.984 1500.61 mark 0
AnchorPoint: "Anchor-1" 636.984 2087.18 basemark 0
AnchorPoint: "Anchor-1" 636.984 1500.61 mark 0
LayerCount: 2
Fore
SplineSet
593.435546875 1568.26757812 m 1,0,-1
 593.435546875 2019.51660156 l 1,1,-1
 680.533203125 2019.51660156 l 1,2,-1
 680.533203125 1568.26757812 l 1,3,-1
 593.435546875 1568.26757812 l 1,0,-1
EndSplineSet
EndChar

StartChar: uni0674
Encoding: 1652 1652 76
GlifName: uni0674
Width: 711
VWidth: 2537
GlyphClass: 2
Flags: W
LayerCount: 2
Fore
SplineSet
254.625976562 1990.5 m 1,0,1
 161 2063 161 2063 160.783203125 2170.51855469 c 0,2,3
 161 2259 161 2259 219.695328434 2321 c 0,4,5
 289 2394 289 2394 397.013671875 2394.015625 c 0,6,7
 492 2394 492 2394 567.86328125 2351.47949219 c 1,8,-1
 568.565429688 2219.95410156 l 1,9,10
 476 2261 476 2261 411 2261.26163149 c 0,11,12
 348 2261 348 2261 314 2226.9296875 c 0,13,14
 286 2198 286 2198 286.4921875 2158 c 4,15,16
 288 2083 288 2083 400.916015625 2043.80957031 c 0,17,18
 412 2040 412 2040 425 2041.29396973 c 0,19,20
 474 2047 474 2047 594.747070312 2068.54394531 c 1,21,-1
 594.747070312 1933.015625 l 1,22,-1
 158.286132812 1835.02734375 l 1,23,-1
 158.286132812 1968.27050781 l 1,24,-1
 254.625976562 1990.5 l 1,0,1
EndSplineSet
EndChar

StartChar: uni06A1
Encoding: 1697 1697 80
GlifName: uni06A_1
Width: 1851
VWidth: 2952
GlyphClass: 2
Flags: W
AnchorPoint: "Anchor-10" 670.853 1630.62 basechar 0
AnchorPoint: "Anchor-7" 653.182 -352.248 basechar 0
LayerCount: 2
Fore
SplineSet
283.424804688 504.521484375 m 4,0,1
 283.000510149 188.380111291 283.000510149 188.380111291 871.8671875 188.13671875 c 2,2,-1
 1205.00878906 187.999023438 l 2,3,4
 1567 188 1567 188 1578.65820312 351.5546875 c 1,5,-1
 1508.73925781 351.137695312 l 0,6,7
 1068 351 1068 351 1068.56347656 689.6796875 c 0,8,9
 1069 844 1069 844 1155.55859375 954.209960938 c 0,10,11
 1242 1064 1242 1064 1399.6640625 1064.40332031 c 0,12,13
 1728 1065 1728 1065 1753.55859375 542.326171875 c 0,14,15
 1755 513 1755 513 1755.94921875 477.473632812 c 8,16,17
 1756 381 1756 381 1736 304.14512768 c 0,18,19
 1656 0 1656 0 1193.86816406 0 c 2,20,-1
 890.911132812 0 l 2,21,22
 104 0 104 0 104.16015625 485.872070312 c 4,23,24
 104 616 104 616 132 709 c 5,25,-1
 312 709 l 5,26,27
 283 607 283 607 283.424804688 504.521484375 c 4,0,1
1581.18847656 533.928710938 m 1,28,29
 1558.55859375 880.326171875 1558.55859375 880.326171875 1387.96386719 880.450195312 c 0,30,31
 1315.55859375 880.326171875 1315.55859375 880.326171875 1274.55859375 825.861328125 c 0,32,33
 1235.55859375 772.326171875 1235.55859375 772.326171875 1235.71777344 701.888671875 c 0,34,35
 1235.56445312 537.025390625 1235.56445312 537.025390625 1499.51269531 534.689453125 c 0,36,37
 1540.55859375 534.326171875 1540.55859375 534.326171875 1581.18847656 533.928710938 c 1,28,29
EndSplineSet
Substitution2: "'init' Initial Forms in Arabic lookup 13 subtable" uni06A1.init
Substitution2: "'medi' Medial Forms in Arabic lookup 11 subtable" uni06A1.medi
Substitution2: "'fina' Terminal Forms in Arabic lookup 9 subtable" uni06A1.fina
EndChar

StartChar: uni06A9
Encoding: 1705 1705 81
GlifName: uni06A_9
Width: 1898
VWidth: 2952
GlyphClass: 2
Flags: W
AnchorPoint: "Anchor-7" 750.268 -236.468 basechar 0
AnchorPoint: "Anchor-10" 693.878 1374.89 basechar 0
LayerCount: 2
Fore
SplineSet
283.424804688 504.521484375 m 0,0,1
 285 188 285 188 871.8671875 188.13671875 c 0,2,-1
 1073.27441406 187.9921875 l 6,3,4
 1478 188 1478 188 1477.21679688 415.118164062 c 0,5,6
 1477 501 1477 501 1396.78710938 582 c 0,7,8
 1348 631 1348 631 1097.4921875 825 c 0,9,10
 987 910 987 910 986.411132812 1004.45703125 c 0,11,12
 986 1067 986 1067 1023.26953125 1115.70605469 c 0,13,14
 1060.76952998 1164.69889649 1060.76952998 1164.69889649 1126.60644531 1190.84472656 c 2,15,-1
 1839.86328125 1474.10058594 l 1,16,-1
 1839.86328125 1279.46191406 l 1,17,-1
 1147.06640625 1008.55859375 l 1,18,-1
 1489.2578125 729.663085938 l 2,19,20
 1659 591 1659 591 1656.70996094 410.357421875 c 0,21,22
 1652 0 1652 0 1074.10449219 0 c 6,23,-1
 890.911132812 0 l 2,24,25
 104 0 104 0 104.16015625 485.872070312 c 0,26,27
 104 616 104 616 132 709 c 1,28,-1
 312 709 l 1,29,30
 283 607 283 607 283.424804688 504.521484375 c 0,0,1
EndSplineSet
Substitution2: "'init' Initial Forms in Arabic lookup 13 subtable" uniFB90
Substitution2: "'medi' Medial Forms in Arabic lookup 11 subtable" uniFB91
Substitution2: "'fina' Terminal Forms in Arabic lookup 9 subtable" uniFB8F
EndChar

StartChar: afii57514
Encoding: 1722 1722 83
GlifName: afii57514
Width: 1405
VWidth: 2952
GlyphClass: 2
Flags: W
AnchorPoint: "Anchor-10" 697.479 1237.75 basechar 0
AnchorPoint: "Anchor-7" 728.023 -683.042 basechar 0
LayerCount: 2
Fore
SplineSet
1299.91992188 124.049804688 m 4,0,1
 1260.1668486 -409.001310355 1260.1668486 -409.001310355 687.330078125 -408.724609375 c 4,2,3
 100.865234375 -409 100.865234375 -409 101.752929688 169.043945312 c 4,4,5
 102 329.995117188 102 329.995117188 163.028320312 508.120117188 c 5,6,-1
 335.548828125 508.120117188 l 5,7,8
 282 320.333007812 282 320.333007812 282.268554688 170.860351562 c 4,9,10
 282.979492188 -225 282.979492188 -225 694.400390625 -225.203125 c 4,11,12
 1129.55175781 -225 1129.55175781 -225 1130.5546875 209.93359375 c 4,13,14
 1131 403.000976562 1131 403.000976562 1090.44628906 578.76953125 c 5,15,-1
 1263.08789062 578.76953125 l 5,16,17
 1312 306 1312 306 1299.91992188 124.049804688 c 4,0,1
EndSplineSet
Substitution2: "'init' Initial Forms in Arabic lookup 13 subtable" uni06BA.init
Substitution2: "'medi' Medial Forms in Arabic lookup 11 subtable" uni06BA.medi
Substitution2: "'fina' Terminal Forms in Arabic lookup 9 subtable" uniFB9F
EndChar

StartChar: uni06F4
Encoding: 1780 1780 90
GlifName: uni06F_4
Width: 1244
VWidth: 2952
GlyphClass: 2
Flags: W
LayerCount: 2
Fore
SplineSet
1086.33496094 1380.42285156 m 1,0,-1
 1043.33984375 1208.03417969 l 1,1,2
 966 1239 966 1239 883.235351562 1238.92675781 c 0,3,4
 780 1239 780 1239 710.057617188 1187.72753906 c 0,5,6
 599 1106 599 1106 584.663085938 967.193359375 c 0,7,8
 580 922 580 922 665.494140625 877.66796875 c 0,9,10
 736 841 736 841 855.942382812 840.590820312 c 0,11,12
 996 841 996 841 1118.12207031 890.52734375 c 1,13,-1
 1141.44921875 715.890625 l 1,14,15
 1017 661 1017 661 877.0078125 661.180664062 c 0,16,-1
 876.217773438 661.181640625 l 2,17,18
 605 662 605 662 485.182617188 806.000976562 c 1,19,-1
 486.708984375 795.439453125 l 2,20,21
 519.115234375 570.199060804 519.115234375 570.199060804 519.115234375 308.771484375 c 2,22,-1
 519.115234375 11.5537109375 l 1,23,-1
 334.796875 11.5537109375 l 1,24,-1
 334.791992188 311.91796875 l 2,25,26
 335 973 335 973 144.876953125 1357.90820312 c 1,27,-1
 314.573242188 1415.96386719 l 1,28,29
 330.711701609 1365.20774976 330.711701609 1365.20774976 398.782226562 1172.296875 c 0,30,31
 419 1115 419 1115 439.536132812 1056.83789062 c 1,32,-1
 454.734375 1107 l 2,33,34
 501 1259 501 1259 599 1340 c 0,35,36
 707 1430 707 1430 858.047851562 1429.43164062 c 0,37,38
 979 1429 979 1429 1086.33496094 1380.42285156 c 1,0,-1
EndSplineSet
EndChar

StartChar: uni06F5
Encoding: 1781 1781 91
GlifName: uni06F_5
Width: 1328
VWidth: 2952
GlyphClass: 2
Flags: W
LayerCount: 2
Fore
SplineSet
283.965820312 339.41015625 m 0,0,1
 284 198 284 198 398.05078125 197.844726562 c 0,2,3
 543 198 543 198 609.71484375 512.583007812 c 1,4,-1
 734.022460938 512.477539062 l 1,5,6
 788 194 788 194 939.256835938 194.079101562 c 4,7,8
 1044 194 1044 194 1043.97877215 339.676082649 c 0,9,10
 1044 664 1044 664 629 1080.5703125 c 1,11,12
 284 626 284 626 283.965820312 339.41015625 c 0,0,1
383.447265625 11.9833984375 m 0,13,14
 109 12 109 12 109.2421875 339.344726562 c 0,15,16
 109.000136701 692.800381327 109.000136701 692.800381327 493.814453125 1209.56445312 c 2,17,-1
 495.415039062 1211.71386719 l 1,18,-1
 493.458007812 1213.54589844 l 1,19,-1
 439.18359375 1264.34960938 l 1,20,-1
 563.442382812 1416.19042969 l 1,21,-1
 688.700195312 1297.3671875 l 1,22,23
 1219.44199292 775.548625437 1219.44199292 775.548625437 1219.44199292 349.259552463 c 0,24,25
 1219.22123267 12.0000473414 1219.22123267 12.0000473414 954.309570312 11.943359375 c 0,26,27
 755.581427089 12.0001195516 755.581427089 12.0001195516 672.232421875 243.266601562 c 1,28,29
 595.436436011 12.0000342492 595.436436011 12.0000342492 383.447265625 11.9833984375 c 0,13,14
EndSplineSet
EndChar

StartChar: uni06F6
Encoding: 1782 1782 92
GlifName: uni06F_6
Width: 1104
VWidth: 2952
GlyphClass: 2
Flags: W
LayerCount: 2
Fore
SplineSet
752.499023438 1224.92382812 m 1,0,1
 700 1230 700 1230 637.673828125 1230.46582031 c 0,2,3
 446 1230 446 1230 369 1143.24804688 c 0,4,5
 312 1079 312 1079 311.594726562 1003.765625 c 0,6,7
 312 789 312 789 688.764648438 788.364257812 c 1,8,-1
 690.079101562 788.666992188 l 1,9,10
 891 898 891 898 973.879882812 931.765625 c 1,11,-1
 981.556640625 745.63671875 l 1,12,13
 558 554 558 554 318.25390625 -28.4091796875 c 1,14,-1
 149.010742188 28.2734375 l 1,15,16
 307 421 307 421 524.650390625 635.670898438 c 1,17,18
 126 674 126 674 127.644752774 1008.8920182 c 0,19,20
 128 1103 128 1103 166.403320312 1182.42578125 c 0,21,22
 283 1418 283 1418 606.012119682 1416.40801443 c 0,23,24
 686 1416 686 1416 778.365234375 1402.23242188 c 1,25,-1
 752.499023438 1224.92382812 l 1,0,1
EndSplineSet
EndChar

StartChar: uniFB8F
Encoding: 64399 64399 107
GlifName: uniF_B_8F_
Width: 1954
VWidth: 2952
GlyphClass: 2
Flags: W
AnchorPoint: "Anchor-10" 743.878 1374.89 basechar 0
AnchorPoint: "Anchor-7" 750.268 -236.468 basechar 0
LayerCount: 2
Fore
SplineSet
283.424804688 504.521484375 m 0,0,1
 284 188 284 188 871.8671875 188.13671875 c 0,2,-1
 1076.97753906 187.9921875 l 6,3,4
 1480 188 1480 188 1480.91992188 415.118164062 c 0,5,6
 1481 501 1481 501 1400.49023438 582 c 0,7,8
 1352 631 1352 631 1101.1953125 825 c 0,9,10
 990 911 990 911 990.114257812 1004.45703125 c 0,11,12
 990 1067 990 1067 1026.97265625 1115.70605469 c 0,13,14
 1064.89803786 1164.8678289 1064.89803786 1164.8678289 1130.30957031 1190.84472656 c 2,15,-1
 1843.56640625 1474.10058594 l 1,16,-1
 1843.56640625 1279.46191406 l 1,17,-1
 1150.76953125 1008.55859375 l 1,18,-1
 1492.9609375 729.663085938 l 2,19,20
 1654 598 1654 598 1660.41308594 410.357421875 c 8,21,22
 1668.00023324 187.993164062 1668.00023324 187.993164062 1950.109375 187.993164062 c 2,23,-1
 1966.44238281 187.993164062 l 2,24,25
 1986.51953125 187.999840232 1986.51953125 187.999840232 1986.51953125 107.174804688 c 2,26,-1
 1986.51953125 88.3046875 l 2,27,28
 1987 0 1987 0 1966.44140625 0 c 2,29,-1
 1950.00292969 0 l 2,30,31
 1670 0 1670 0 1584.1953125 179 c 1,32,33
 1455 0 1455 0 1077.80761719 0 c 6,34,-1
 890.911132812 0 l 2,35,36
 105 0 105 0 104.16015625 485.872070312 c 0,37,38
 104 616 104 616 132 709 c 1,39,-1
 312 709 l 1,40,41
 283 607 283 607 283.424804688 504.521484375 c 0,0,1
EndSplineSet
EndChar

StartChar: uniFB9F
Encoding: 64415 64415 115
GlifName: uniF_B_9F_
Width: 1469
VWidth: 2952
GlyphClass: 2
Flags: W
AnchorPoint: "Anchor-10" 673.458 1366.61 basechar 0
AnchorPoint: "Anchor-7" 565.902 -800.086 basechar 0
LayerCount: 2
Fore
SplineSet
1299.91992188 56.0498046875 m 5,0,1
 1257 -477 1257 -477 687.330078125 -476.724609375 c 4,2,3
 100.86559463 -477.000063128 100.86559463 -477.000063128 101.752929688 101.043945312 c 4,4,5
 102 261.995 102 261.995 163.028320312 440.12 c 5,6,-1
 335.548828125 440.12 l 5,7,8
 282 252.332890625 282 252.332890625 282.268554688 102.860351562 c 4,9,10
 282.979790902 -293.000482589 282.979790902 -293.000482589 694.400390625 -293.203125 c 4,11,12
 1129.55832251 -292.999739049 1129.55832251 -292.999739049 1130.5546875 141.93359375 c 4,13,14
 1131 336.321445312 1131 336.321445312 1090.44628906 512.09 c 5,15,-1
 1263.08789062 512.09 l 5,16,-1
 1286.26855469 398.080078125 l 6,17,18
 1329.00019864 187.999023438 1329.00019864 187.999023438 1459.02050781 187.999023438 c 2,19,-1
 1478.13476562 187.999023438 l 2,20,21
 1498.21875 188.000010754 1498.21875 188.000010754 1498.21875 111.889648438 c 2,22,-1
 1498.21875 88.3115234375 l 2,23,24
 1498 0 1498 0 1478.13671875 0 c 2,25,-1
 1463.41894531 0 l 2,26,27
 1359 0 1359 0 1299.91992188 56.0498046875 c 5,0,1
EndSplineSet
EndChar

StartChar: uniFBE8
Encoding: 64488 64488 118
GlifName: uniF_B_E_8
Width: 626
VWidth: 2952
GlyphClass: 2
Flags: W
AnchorPoint: "Anchor-10" 311.384 1353 basechar 0
AnchorPoint: "Anchor-7" 303.422 -223.625 basechar 0
LayerCount: 2
Fore
SplineSet
108.673828125 0 m 2,0,-1
 -6.9384765625 0 l 2,1,2
 -84.7783203125 0 -84.7783203125 0 -84.7783203125 88.3134765625 c 2,3,-1
 -84.7783203125 107.176757812 l 2,4,5
 -84.9999812506 187.993164062 -84.9999812506 187.993164062 -6.9384765625 187.993164062 c 2,6,-1
 108.684570312 187.993164062 l 2,7,8
 350.33984375 188.000009627 350.33984375 188.000009627 350.33984375 489.034179688 c 2,9,-1
 350.33984375 719.633789062 l 1,10,-1
 517.419921875 719.629882812 l 5,11,-1
 517.419921875 488.328125 l 2,12,13
 517 0 517 0 108.673828125 0 c 2,0,-1
EndSplineSet
EndChar

StartChar: uniFBE9
Encoding: 64489 64489 119
GlifName: uniF_B_E_9
Width: 697
VWidth: 2952
GlyphClass: 2
Flags: W
AnchorPoint: "Anchor-10" 315.665 1297.09 basechar 0
AnchorPoint: "Anchor-7" 350.537 -177.742 basechar 0
LayerCount: 2
Fore
SplineSet
724.731445312 88.3408203125 m 2,0,1
 724.731445312 0 724.731445312 0 704.650390625 0 c 2,2,-1
 695.006835938 0 l 2,3,4
 527 0 527 0 452.424804688 141.114257812 c 1,5,6
 353 0 353 0 95.759765625 0 c 2,7,-1
 -8.1171875 0 l 2,8,9
 -84.7783203125 0 -84.7783203125 0 -84.7783203125 88.3134765625 c 2,10,-1
 -84.7783203125 107.186523438 l 2,11,12
 -84.9999812483 187.993164062 -84.9999812483 187.993164062 -8.1171875 187.993164062 c 2,13,-1
 91.0126953125 187.993164062 l 2,14,15
 342.956531534 187.999998821 342.956531534 187.999998821 354.509765625 395.680664062 c 6,16,-1
 364.509765625 575.440429688 l 5,17,-1
 509.3203125 575.440429688 l 5,18,-1
 519.3203125 393.607421875 l 6,19,20
 531.000388321 187.993164062 531.000388321 187.993164062 696.57421875 187.993164062 c 2,21,-1
 704.651367188 187.993164062 l 2,22,23
 724.731445312 187.999909781 724.731445312 187.999909781 724.731445312 98.322265625 c 2,24,-1
 724.731445312 88.3408203125 l 2,0,1
EndSplineSet
EndChar

StartChar: uniFE73
Encoding: 65139 65139 127
GlifName: uniF_E_73
Width: 742
VWidth: 2952
GlyphClass: 2
Flags: W
AnchorPoint: "Anchor-10" 274.943 1718.47 basechar 0
AnchorPoint: "Anchor-7" 274.943 -172.304 basechar 0
LayerCount: 2
Fore
SplineSet
370.336914062 456.018554688 m 2,0,1
 370.336914062 408.051757812 370.336914062 408.051757812 391.009765625 363.41015625 c 128,-1,2
 411.681640625 318.768554688 411.681640625 318.768554688 452.857421875 277.594726562 c 0,3,4
 471.848632812 258.599609375 471.848632812 258.599609375 496.211914062 244.408203125 c 128,-1,5
 520.525390625 230.2421875 520.525390625 230.2421875 550.138671875 220.869140625 c 0,6,7
 564.8046875 216.227539062 564.8046875 216.227539062 580.756835938 212.750976562 c 128,-1,8
 596.709960938 209.275390625 596.709960938 209.275390625 613.950195312 206.961914062 c 0,9,10
 648.384765625 202.342773438 648.384765625 202.342773438 688.00390625 202.342773438 c 2,11,-1
 758.674804688 202.342773438 l 1,12,-1
 758.674804688 11.5537109375 l 1,13,-1
 608.006835938 11.5537109375 l 2,14,15
 417.389648438 11.5537109375 417.389648438 11.5537109375 294.831054688 134.111328125 c 0,16,17
 179.544921875 249.3984375 179.544921875 249.3984375 179.544921875 438.563476562 c 2,18,-1
 179.544921875 462.69140625 l 1,19,-1
 370.336914062 462.69140625 l 1,20,-1
 370.336914062 456.018554688 l 2,0,1
EndSplineSet
EndChar

StartChar: uniFE8E
Encoding: 65166 65166 153
GlifName: uniF_E_8E_
Width: 571
VWidth: 2952
GlyphClass: 2
Flags: W
AnchorPoint: "Anchor-10" 246.697 1613.11 basechar 0
AnchorPoint: "Anchor-7" 316.078 -239.903 basechar 0
LayerCount: 2
Fore
SplineSet
598.618164062 88.310546875 m 1,0,1
 600 0 600 0 578.537109375 0 c 2,2,-1
 557.658203125 0 l 2,3,4
 164.283203125 0 164.283203125 0 164.283203125 438.395507812 c 2,5,-1
 164.283203125 1448.171875 l 1,6,-1
 333.598632812 1448.171875 l 5,7,-1
 333.598632812 440.450195312 l 6,8,9
 334.000010868 187.993164062 334.000010868 187.993164062 560.712890625 187.993164062 c 2,10,-1
 578.538085938 187.993164062 l 2,11,12
 598.618164062 187.999872436 598.618164062 187.999872436 598.618164062 107.174804688 c 2,13,-1
 598.618164062 88.310546875 l 1,0,1
EndSplineSet
EndChar

StartChar: uniFEA2
Encoding: 65186 65186 173
GlifName: uniF_E_A_2
Width: 1326
VWidth: 2952
GlyphClass: 2
Flags: W
AnchorPoint: "Anchor-10" 593.478 1366.07 basechar 0
AnchorPoint: "Anchor-7" 496.833 -922.619 basechar 0
LayerCount: 2
Fore
SplineSet
839 376.759765625 m 1,0,1
 285 232 285 232 285.249023438 -89.302734375 c 0,2,3
 285 -468 285 -468 816.383789062 -467.783203125 c 0,4,5
 1008 -468 1008 -468 1188.31152344 -382.284179688 c 1,6,-1
 1188 -578 l 1,7,8
 1036 -651 1036 -651 801.528320312 -651.249023438 c 0,9,10
 422 -651 422 -651 244 -459.306640625 c 0,11,12
 115 -320 115 -320 114.987304688 -104.852539062 c 0,13,14
 115 390 115 390 781 537.776367188 c 2,15,-1
 791 539.994140625 l 1,16,17
 734 563 734 563 677.876953125 585.083007812 c 0,18,19
 478.502561795 663.40970004 478.502561795 663.40970004 364.310546875 663.686523438 c 0,20,21
 234.998789062 664 234.998789062 664 101.99 608.029296875 c 1,22,-1
 101.99 771.029296875 l 1,23,24
 206.998789062 851 206.998789062 851 372.32421875 851.841796875 c 0,25,26
 515.676690813 852.571712794 515.676690813 852.571712794 715.991210938 766.029296875 c 0,27,28
 1071 612 1071 612 1198.90820312 606.69140625 c 1,29,-1
 1184.91894531 426.9296875 l 1,30,31
 1058 419 1058 419 989.759765625 409 c 0,32,-1
 989.759765625 398.13671875 l 2,33,34
 989.754882812 184.998046875 989.754882812 184.998046875 1310.62011719 188.061523438 c 2,35,-1
 1333.89257812 188.279296875 l 2,36,37
 1354 188.467773438 1354 188.467773438 1353.97851562 111.889648438 c 2,38,-1
 1353.97851562 88.3115234375 l 2,39,40
 1353.97851562 0 1353.97851562 0 1333.8984375 0 c 2,41,-1
 1311.49511719 0 l 2,42,43
 845 0 845 0 839.192382812 364.001953125 c 2,44,-1
 839 376.759765625 l 1,0,1
EndSplineSet
EndChar

StartChar: uniFEA3
Encoding: 65187 65187 174
GlifName: uniF_E_A_3
Width: 1307
VWidth: 2952
GlyphClass: 2
Flags: W
AnchorPoint: "Anchor-10" 551.825 1372.07 basechar 0
AnchorPoint: "Anchor-7" 483.524 -234.745 basechar 0
LayerCount: 2
Fore
SplineSet
-6.9384765625 0 m 2,0,1
 -84.7783203125 0 -84.7783203125 0 -84.7783203125 88.3134765625 c 2,2,-1
 -84.7783203125 107.186523438 l 2,3,4
 -84.9999973212 187.999023439 -84.9999973212 187.999023439 -6.9384765625 187.999023438 c 2,5,-1
 22.54296875 187.999023438 l 2,6,7
 360.951482598 187.99999986 360.951482598 187.99999986 839 434.836914062 c 2,8,-1
 912.827148438 472.95703125 l 1,9,10
 887 480 887 480 696.885742188 557.053710938 c 4,11,12
 502.635224769 635.34096823 502.635224769 635.34096823 383.319335938 635.657226562 c 4,13,14
 254 636 254 636 121 580 c 5,15,-1
 121 743 l 5,16,17
 226 823 226 823 391.333007812 823.8125 c 4,18,19
 536 824 536 824 735 738 c 4,20,21
 1090 584 1090 584 1217.91699219 578.662109375 c 1,22,-1
 1216.09179688 398.993164062 l 1,23,24
 1124 391 1124 391 791.682617188 216.151367188 c 0,25,26
 382 0 382 0 10.767578125 0 c 2,27,-1
 -6.9384765625 0 l 2,0,1
EndSplineSet
EndChar

StartChar: uniFEA4
Encoding: 65188 65188 175
GlifName: uniF_E_A_4
Width: 1321
VWidth: 2952
GlyphClass: 2
Flags: W
AnchorPoint: "Anchor-7" 483.524 -234.745 basechar 0
AnchorPoint: "Anchor-10" 551.825 1372.07 basechar 0
LayerCount: 2
Fore
SplineSet
736 738 m 4,0,1
 1090 584 1090 584 1217.91699219 578.662109375 c 1,2,-1
 1216.09179688 398.993164062 l 1,3,4
 1129 396 1129 396 998 316.838867188 c 1,5,6
 1041.90461681 188.279296875 1041.90461681 188.279296875 1316.61132812 188.279296875 c 2,7,-1
 1330.39746094 188.279296875 l 2,8,9
 1350.50585938 188.006698783 1350.50585938 188.006698783 1350.50585938 111.889648438 c 2,10,-1
 1350.50585938 88.3271484375 l 2,11,12
 1351 0 1351 0 1330.42773438 0 c 2,13,-1
 1311.09667969 0 l 2,14,15
 935 0 935 0 855 250 c 1,16,17
 823 233 823 233 791.682617188 216.151367188 c 0,18,19
 382 0 382 0 10.767578125 0 c 2,20,-1
 -6.9384765625 0 l 2,21,22
 -84.7783203125 0 -84.7783203125 0 -84.7783203125 88.3134765625 c 2,23,-1
 -84.7783203125 107.186523438 l 2,24,25
 -84.9999973212 187.999023438 -84.9999973212 187.999023438 -6.9384765625 187.999023438 c 2,26,-1
 22.54296875 187.999023438 l 2,27,28
 360.951482602 187.99999986 360.951482602 187.99999986 839 434.836914062 c 2,29,-1
 912.827148438 472.95703125 l 1,30,31
 887 480 887 480 697.885742188 557.053710938 c 4,32,33
 504 635 504 635 383.319335938 635.657226562 c 0,34,35
 254 636 254 636 121 580 c 1,36,-1
 121 743 l 1,37,38
 226 823 226 823 391.333007812 823.8125 c 0,39,40
 537 824 537 824 736 738 c 4,0,1
EndSplineSet
EndChar

StartChar: uniFEAA
Encoding: 65194 65194 181
GlifName: uniF_E_A_A_
Width: 1061
VWidth: 2952
GlyphClass: 2
Flags: W
AnchorPoint: "Anchor-7" 377.24 -239.316 basechar 0
AnchorPoint: "Anchor-10" 538.848 1381.53 basechar 0
LayerCount: 2
Fore
SplineSet
327.559570312 0.8193359375 m 0,0,1
 254 1 254 1 102.096679688 29.5419921875 c 1,2,-1
 102.096679688 219.252929688 l 1,3,4
 247 189 247 189 332.981445312 189.068359375 c 0,5,6
 673 189 673 189 673.088867188 329.063476562 c 0,7,8
 673.000152807 377.915853661 673.000152807 377.915853661 581.83984375 608.408203125 c 2,9,-1
 459 919 l 1,10,-1
 651 920 l 1,11,-1
 812.5625 491.860351562 l 2,12,13
 927.002574497 187.993164062 927.002574497 187.993164062 1048.87988281 187.993164062 c 2,14,-1
 1068.51855469 187.993164062 l 2,15,16
 1088.59765625 187.999865713 1088.59765625 187.999865713 1088.59765625 107.174804688 c 2,17,-1
 1088.59765625 88.318359375 l 2,18,19
 1089 55 1089 55 1085.83691406 37.974609375 c 0,20,21
 1083 18 1083 18 1078.71386719 8.8349609375 c 0,22,23
 1074 0 1074 0 1068.51757812 0 c 2,24,-1
 1048.53222656 0 l 2,25,26
 896 0 896 0 792 164 c 1,27,28
 658 0 658 0 327.559570312 0.8193359375 c 0,0,1
EndSplineSet
EndChar

StartChar: uniFEAE
Encoding: 65198 65198 185
GlifName: uniF_E_A_E_
Width: 874
VWidth: 2144
GlyphClass: 2
Flags: W
AnchorPoint: "Anchor-7" 364.969 -769.998 basechar 0
AnchorPoint: "Anchor-10" 459.256 1370.2 basechar 0
LayerCount: 2
Fore
SplineSet
703.154296875 353 m 6,0,1
 745.087829771 187.999023437 745.087829771 187.999023437 855.31640625 187.999023438 c 2,2,-1
 882.57421875 187.999023438 l 2,3,4
 902.638671875 187.999982725 902.638671875 187.999982725 902.638671875 112.322265625 c 2,5,-1
 902.638671875 88.208984375 l 2,6,7
 903 0 903 0 882.57421875 0 c 2,8,-1
 865.80078125 0 l 2,9,10
 770 0 770 0 730.983398438 53 c 1,11,12
 703 -456 703 -456 -13 -492.319335938 c 1,13,-1
 -13.130859375 -309.87890625 l 1,14,15
 558 -283 558 -283 558.250976562 112.243164062 c 0,16,17
 558 313 558 313 465 512 c 1,18,-1
 663 511 l 1,19,-1
 703.154296875 353 l 6,0,1
EndSplineSet
PairPos2: "'kern' Horizontal Kerning lookup 15-2" uniFBFE dx=60 dy=0 dh=60 dv=0 dx=0 dy=0 dh=0 dv=0
PairPos2: "'kern' Horizontal Kerning lookup 15-1" uniFEE7 dx=-178 dy=0 dh=-178 dv=0 dx=0 dy=0 dh=0 dv=0
PairPos2: "'kern' Horizontal Kerning lookup 15-2" uniFB90 dx=-226 dy=0 dh=-226 dv=0 dx=0 dy=0 dh=0 dv=0
PairPos2: "'kern' Horizontal Kerning lookup 15-2" uniFB8E dx=-226 dy=0 dh=-226 dv=0 dx=0 dy=0 dh=0 dv=0
PairPos2: "'kern' Horizontal Kerning lookup 15-2" uni06A9 dx=-226 dy=0 dh=-226 dv=0 dx=0 dy=0 dh=0 dv=0
PairPos2: "'kern' Horizontal Kerning lookup 15-2" uni064A dx=-60 dy=0 dh=-60 dv=0 dx=0 dy=0 dh=0 dv=0
PairPos2: "'kern' Horizontal Kerning lookup 15-2" afii57414 dx=-60 dy=0 dh=-60 dv=0 dx=0 dy=0 dh=0 dv=0
PairPos2: "'kern' Horizontal Kerning lookup 15-2" uni0649 dx=-60 dy=0 dh=-60 dv=0 dx=0 dy=0 dh=0 dv=0
PairPos2: "'kern' Horizontal Kerning lookup 15-2" uniFEEB dx=-178 dy=0 dh=-178 dv=0 dx=0 dy=0 dh=0 dv=0
PairPos2: "'kern' Horizontal Kerning lookup 15-2" uni0647 dx=-178 dy=0 dh=-178 dv=0 dx=0 dy=0 dh=0 dv=0
PairPos2: "'kern' Horizontal Kerning lookup 15-2" uni0646 dx=-60 dy=0 dh=-60 dv=0 dx=0 dy=0 dh=0 dv=0
PairPos2: "'kern' Horizontal Kerning lookup 15-2" uniFEE3 dx=-178 dy=0 dh=-178 dv=0 dx=0 dy=0 dh=0 dv=0
PairPos2: "'kern' Horizontal Kerning lookup 15-2" uni0645 dx=-178 dy=0 dh=-178 dv=0 dx=0 dy=0 dh=0 dv=0
PairPos2: "'kern' Horizontal Kerning lookup 15-2" uniFEFB dx=-143 dy=0 dh=-143 dv=0 dx=0 dy=0 dh=0 dv=0
PairPos2: "'kern' Horizontal Kerning lookup 15-2" uniFEDF dx=-143 dy=0 dh=-143 dv=0 dx=0 dy=0 dh=0 dv=0
PairPos2: "'kern' Horizontal Kerning lookup 15-2" uni0644 dx=-60 dy=0 dh=-60 dv=0 dx=0 dy=0 dh=0 dv=0
PairPos2: "'kern' Horizontal Kerning lookup 15-2" uniFEDB dx=-226 dy=0 dh=-226 dv=0 dx=0 dy=0 dh=0 dv=0
PairPos2: "'kern' Horizontal Kerning lookup 15-2" uni0643 dx=-143 dy=0 dh=-143 dv=0 dx=0 dy=0 dh=0 dv=0
PairPos2: "'kern' Horizontal Kerning lookup 15-2" uniFED7 dx=-178 dy=0 dh=-178 dv=0 dx=0 dy=0 dh=0 dv=0
PairPos2: "'kern' Horizontal Kerning lookup 15-2" uni0642 dx=-60 dy=0 dh=-60 dv=0 dx=0 dy=0 dh=0 dv=0
PairPos2: "'kern' Horizontal Kerning lookup 15-2" uniFED3 dx=-178 dy=0 dh=-178 dv=0 dx=0 dy=0 dh=0 dv=0
PairPos2: "'kern' Horizontal Kerning lookup 15-2" uni0641 dx=-178 dy=0 dh=-178 dv=0 dx=0 dy=0 dh=0 dv=0
PairPos2: "'kern' Horizontal Kerning lookup 15-2" uniFECF dx=-178 dy=0 dh=-178 dv=0 dx=0 dy=0 dh=0 dv=0
PairPos2: "'kern' Horizontal Kerning lookup 15-2" uniFECB dx=-178 dy=0 dh=-178 dv=0 dx=0 dy=0 dh=0 dv=0
PairPos2: "'kern' Horizontal Kerning lookup 15-2" uniFEC7 dx=-178 dy=0 dh=-178 dv=0 dx=0 dy=0 dh=0 dv=0
PairPos2: "'kern' Horizontal Kerning lookup 15-2" uni0638 dx=-178 dy=0 dh=-178 dv=0 dx=0 dy=0 dh=0 dv=0
PairPos2: "'kern' Horizontal Kerning lookup 15-2" uniFEC3 dx=-178 dy=0 dh=-178 dv=0 dx=0 dy=0 dh=0 dv=0
PairPos2: "'kern' Horizontal Kerning lookup 15-2" uni0637 dx=-178 dy=0 dh=-178 dv=0 dx=0 dy=0 dh=0 dv=0
PairPos2: "'kern' Horizontal Kerning lookup 15-2" uniFEBF dx=-178 dy=0 dh=-178 dv=0 dx=0 dy=0 dh=0 dv=0
PairPos2: "'kern' Horizontal Kerning lookup 15-2" uni0636 dx=-178 dy=0 dh=-178 dv=0 dx=0 dy=0 dh=0 dv=0
PairPos2: "'kern' Horizontal Kerning lookup 15-2" uniFEBB dx=-178 dy=0 dh=-178 dv=0 dx=0 dy=0 dh=0 dv=0
PairPos2: "'kern' Horizontal Kerning lookup 15-2" uni0635 dx=-178 dy=0 dh=-178 dv=0 dx=0 dy=0 dh=0 dv=0
PairPos2: "'kern' Horizontal Kerning lookup 15-2" uniFEB7 dx=-178 dy=0 dh=-178 dv=0 dx=0 dy=0 dh=0 dv=0
PairPos2: "'kern' Horizontal Kerning lookup 15-2" uni0634 dx=-178 dy=0 dh=-178 dv=0 dx=0 dy=0 dh=0 dv=0
PairPos2: "'kern' Horizontal Kerning lookup 15-2" uniFEB3 dx=-178 dy=0 dh=-178 dv=0 dx=0 dy=0 dh=0 dv=0
PairPos2: "'kern' Horizontal Kerning lookup 15-2" uni0633 dx=-178 dy=0 dh=-178 dv=0 dx=0 dy=0 dh=0 dv=0
PairPos2: "'kern' Horizontal Kerning lookup 15-2" uni0630 dx=-178 dy=0 dh=-178 dv=0 dx=0 dy=0 dh=0 dv=0
PairPos2: "'kern' Horizontal Kerning lookup 15-2" uni062F dx=-178 dy=0 dh=-178 dv=0 dx=0 dy=0 dh=0 dv=0
PairPos2: "'kern' Horizontal Kerning lookup 15-2" uniFEA7 dx=-178 dy=0 dh=-178 dv=0 dx=0 dy=0 dh=0 dv=0
PairPos2: "'kern' Horizontal Kerning lookup 15-2" uniFEA3 dx=-178 dy=0 dh=-178 dv=0 dx=0 dy=0 dh=0 dv=0
PairPos2: "'kern' Horizontal Kerning lookup 15-2" uniFE9F dx=-178 dy=0 dh=-178 dv=0 dx=0 dy=0 dh=0 dv=0
PairPos2: "'kern' Horizontal Kerning lookup 15-2" uniFE9B dx=-178 dy=0 dh=-178 dv=0 dx=0 dy=0 dh=0 dv=0
PairPos2: "'kern' Horizontal Kerning lookup 15-2" uni062B dx=-178 dy=0 dh=-178 dv=0 dx=0 dy=0 dh=0 dv=0
PairPos2: "'kern' Horizontal Kerning lookup 15-2" uniFE97 dx=-178 dy=0 dh=-178 dv=0 dx=0 dy=0 dh=0 dv=0
PairPos2: "'kern' Horizontal Kerning lookup 15-2" uni062A dx=-178 dy=0 dh=-178 dv=0 dx=0 dy=0 dh=0 dv=0
PairPos2: "'kern' Horizontal Kerning lookup 15-2" uni0629 dx=-178 dy=0 dh=-178 dv=0 dx=0 dy=0 dh=0 dv=0
PairPos2: "'kern' Horizontal Kerning lookup 15-2" uni0628 dx=-178 dy=0 dh=-178 dv=0 dx=0 dy=0 dh=0 dv=0
PairPos2: "'kern' Horizontal Kerning lookup 15-2" uni0627 dx=-143 dy=0 dh=-143 dv=0 dx=0 dy=0 dh=0 dv=0
PairPos2: "'kern' Horizontal Kerning lookup 15-2" uni0623 dx=-143 dy=0 dh=-143 dv=0 dx=0 dy=0 dh=0 dv=0
PairPos2: "'kern' Horizontal Kerning lookup 15-2" uni0622 dx=-143 dy=0 dh=-143 dv=0 dx=0 dy=0 dh=0 dv=0
PairPos2: "'kern' Horizontal Kerning lookup 15-2" uni0621 dx=-178 dy=0 dh=-178 dv=0 dx=0 dy=0 dh=0 dv=0
PairPos2: "'kern' Horizontal Kerning lookup 15-2" uniFB94 dx=-226 dy=0 dh=-226 dv=0 dx=0 dy=0 dh=0 dv=0
PairPos2: "'kern' Horizontal Kerning lookup 15-2" uniFB92 dx=-226 dy=0 dh=-226 dv=0 dx=0 dy=0 dh=0 dv=0
PairPos2: "'kern' Horizontal Kerning lookup 15-2" uni06AF dx=-226 dy=0 dh=-226 dv=0 dx=0 dy=0 dh=0 dv=0
PairPos2: "'kern' Horizontal Kerning lookup 15-2" afii57506 dx=-178 dy=0 dh=-178 dv=0 dx=0 dy=0 dh=0 dv=0
PairPos2: "'kern' Horizontal Kerning lookup 15-2" afii57440 dx=-178 dy=0 dh=-178 dv=0 dx=0 dy=0 dh=0 dv=0
PairPos2: "'kern' Horizontal Kerning lookup 15-2" uniFE8B dx=-178 dy=0 dh=-178 dv=0 dx=0 dy=0 dh=0 dv=0
EndChar

StartChar: uniFEB2
Encoding: 65202 65202 189
GlifName: uniF_E_B_2
Width: 2593
VWidth: 2952
GlyphClass: 2
Flags: W
AnchorPoint: "Anchor-7" 565.902 -799.086 basechar 0
AnchorPoint: "Anchor-10" 1764.53 1378.1 basechar 0
LayerCount: 2
Fore
SplineSet
2060.16210938 0.912109375 m 0,0,1
 1865 1 1865 1 1806.15527344 140.961914062 c 1,2,3
 1705 0 1705 0 1501.80664062 -0.0810546875 c 0,4,5
 1368 0 1368 0 1299.91992188 56.0498046875 c 1,6,7
 1257 -477 1257 -477 687.330078125 -476.724609375 c 0,8,9
 101 -477 101 -477 101.752929688 101.043945312 c 0,10,11
 102 262 102 262 163.028320312 440.125 c 1,12,-1
 335.548828125 439.787109375 l 1,13,14
 282 252 282 252 282.268554688 102.860351562 c 0,15,16
 282 -293 282 -293 694.400390625 -293.203125 c 0,17,18
 1129 -293 1129 -293 1130.5546875 141.93359375 c 0,19,20
 1131 335 1131 335 1090.44628906 510.768554688 c 1,21,-1
 1263.08789062 512.0859375 l 1,22,-1
 1286.26855469 398.080078125 l 2,23,24
 1329 188 1329 188 1503.50097656 187.9921875 c 16,25,26
 1694.92997562 187.999997143 1694.92997562 187.999997143 1708.81640625 412.627929688 c 2,27,-1
 1718.81640625 574.388671875 l 1,28,-1
 1863.62695312 574.388671875 l 1,29,-1
 1873.62695312 412.563476562 l 2,30,31
 1887 189 1887 189 2056.93359375 188.45703125 c 0,32,33
 2227.41699219 187.998879388 2227.41699219 187.998879388 2227.41699219 409.317382812 c 2,34,-1
 2227.41699219 624.228515625 l 1,35,-1
 2399.36621094 624.228515625 l 1,36,-1
 2399.36621094 410.418945312 l 2,37,38
 2398.99983046 187.897031626 2398.99983046 187.897031626 2583.75488281 187.916992188 c 2,39,-1
 2601.83300781 187.918945312 l 2,40,41
 2621.92285156 187.999689927 2621.92285156 187.999689927 2621.92285156 107.092773438 c 2,42,-1
 2621.92285156 88.2802734375 l 2,43,44
 2622.00007083 -0.0810546875 2622.00007083 -0.0810546875 2601.84179688 -0.0810546875 c 2,45,-1
 2585.51660156 -0.0810546875 l 2,46,47
 2395 -0 2395 -0 2336.94335938 138.918945312 c 5,48,49
 2256 1 2256 1 2060.16210938 0.912109375 c 0,0,1
EndSplineSet
EndChar

StartChar: uniFEB3
Encoding: 65203 65203 190
GlifName: uniF_E_B_3
Width: 1713
VWidth: 2952
GlyphClass: 2
Flags: W
AnchorPoint: "Anchor-10" 889.961 1380.67 basechar 0
AnchorPoint: "Anchor-7" 789.534 -236.974 basechar 0
LayerCount: 2
Fore
SplineSet
1264.72558594 0.9931640625 m 0,0,1
 1070 1 1070 1 1010.71875 141.04296875 c 1,2,3
 910 0 910 0 706.370117188 0 c 0,4,5
 492 1 492 1 402.125 141.07421875 c 1,6,7
 322 0 322 0 78.849609375 0 c 2,8,-1
 -6.9384765625 0 l 2,9,10
 -84.7783203125 0 -84.7783203125 0 -84.7783203125 88.3134765625 c 2,11,-1
 -84.7783203125 107.186523438 l 2,12,13
 -84.9999973212 187.999023438 -84.9999973212 187.999023438 -6.9384765625 187.999023438 c 2,14,-1
 81.00390625 187.999023438 l 2,15,16
 299.091766104 188.000000411 299.091766104 188.000000411 313.139648438 413.767578125 c 2,17,-1
 323.139648438 574.48046875 l 5,18,-1
 467.870117188 574.469726562 l 5,19,-1
 477.870117188 412.646484375 l 2,20,21
 492 188 492 188 708.064453125 188.073242188 c 0,22,23
 899.488429997 187.99981264 899.488429997 187.99981264 913.379882812 412.708984375 c 2,24,-1
 923.379882812 574.469726562 l 5,25,-1
 1068.19042969 574.469726562 l 5,26,-1
 1078.19042969 412.64453125 l 2,27,28
 1092 189 1092 189 1261.49707031 188.538085938 c 0,29,30
 1431.98046875 188.000061638 1431.98046875 188.000061638 1431.98046875 409.3984375 c 2,31,32
 1431.98046875 717.309570312 l 1,33,-1
 1606.9296875 717.309570312 l 1,34,35
 1606.9296875 410.5 l 2,36,37
 1607 1 1607 1 1264.72558594 0.9931640625 c 0,0,1
EndSplineSet
EndChar

StartChar: uniFEB4
Encoding: 65204 65204 191
GlifName: uniF_E_B_4
Width: 1798
VWidth: 2945
GlyphClass: 2
Flags: W
AnchorPoint: "Anchor-7" 759.534 -236.974 basechar 0
AnchorPoint: "Anchor-10" 839.961 1380.67 basechar 0
LayerCount: 2
Fore
SplineSet
1539.50683594 139 m 1,0,1
 1459 1 1459 1 1264.72558594 0.9931640625 c 0,2,3
 1070 1 1070 1 1010.71875 141.04296875 c 1,4,5
 910 0 910 0 706.370117188 0 c 0,6,7
 492 1 492 1 402.125 141.07421875 c 1,8,9
 322 0 322 0 78.849609375 0 c 2,10,-1
 -6.9384765625 0 l 2,11,12
 -84.7783203125 0 -84.7783203125 0 -84.7783203125 88.3134765625 c 2,13,-1
 -84.7783203125 107.186523438 l 2,14,15
 -84.9999973212 187.999023438 -84.9999973212 187.999023438 -6.9384765625 187.999023438 c 2,16,-1
 81.00390625 187.999023438 l 2,17,18
 299.091766103 188.000000411 299.091766103 188.000000411 313.139648438 413.767578125 c 2,19,-1
 323.139648438 574.48046875 l 1,20,-1
 467.870117188 574.469726562 l 1,21,-1
 477.870117188 412.646484375 l 2,22,23
 492 188 492 188 708.064453125 188.073242188 c 0,24,25
 899.488429997 187.99981264 899.488429997 187.99981264 913.379882812 412.708984375 c 6,26,-1
 923.379882812 574.469726562 l 5,27,-1
 1068.19042969 574.469726562 l 5,28,-1
 1078.19042969 412.64453125 l 6,29,30
 1092 189 1092 189 1261.49707031 188.538085938 c 0,31,32
 1431.98046875 188.000061638 1431.98046875 188.000061638 1431.98046875 409.3984375 c 2,33,-1
 1431.98046875 624.309570312 l 1,34,-1
 1603.9296875 624.309570312 l 1,35,-1
 1603.9296875 410.5 l 2,36,37
 1604.00000691 187.978133483 1604.00000691 187.978133483 1788.31835938 187.998046875 c 2,38,-1
 1806.39648438 188 l 2,39,40
 1826.48632812 188 1826.48632812 188 1826.48632812 107.173828125 c 2,41,-1
 1826.48632812 88.361328125 l 2,42,43
 1826 0 1826 0 1806.40527344 0 c 2,44,-1
 1790.08007812 0 l 2,45,46
 1598 0 1598 0 1539.50683594 139 c 1,0,1
EndSplineSet
EndChar

StartChar: uniFEBA
Encoding: 65210 65210 197
GlifName: uniF_E_B_A_
Width: 2606
VWidth: 2952
GlyphClass: 2
Flags: W
AnchorPoint: "Anchor-10" 2084.53 1377.1 basechar 0
AnchorPoint: "Anchor-7" 595.902 -800.086 basechar 0
LayerCount: 2
Fore
SplineSet
1289.26855469 358.080078125 m 2,0,1
 1315.11627889 206.028856754 1315.11627889 206.028856754 1363.78710938 218.107421875 c 1,2,3
 1713 809 1713 809 2089.83105469 810.423828125 c 0,4,5
 2298 811 2298 811 2410.26367188 652.060546875 c 0,6,7
 2477 557 2477 557 2477.06152344 435.608398438 c 0,8,9
 2477 314 2477 314 2394.90722656 201.994140625 c 1,10,11
 2410 188 2410 188 2595.73828125 188 c 2,12,-1
 2614.37109375 188 l 2,13,14
 2634 188 2634 188 2634.49316406 107.174804688 c 2,15,-1
 2634.49316406 88.3056640625 l 2,16,17
 2634.49316406 0 2634.49316406 0 2614.41210938 0 c 2,18,-1
 2590.2265625 0 l 2,19,20
 2350 0 2350 0 2236.97851562 91.7001953125 c 1,21,22
 2075 0 2075 0 1703.15136719 0 c 2,23,-1
 1652.34082031 0 l 2,24,25
 1413 0 1413 0 1299.91992188 56.0498046875 c 1,26,27
 1257 -477 1257 -477 687.330078125 -476.724609375 c 0,28,29
 100 -477 100 -477 101.752929688 101.043945312 c 0,30,31
 102 262 102 262 163.028320312 440.120117188 c 1,32,-1
 335.548828125 440.120117188 l 1,33,34
 282 252 282 252 282.268554688 102.860351562 c 0,35,36
 283 -293 283 -293 694.400390625 -293.203125 c 0,37,38
 1128 -293 1128 -293 1130.5546875 141.93359375 c 0,39,40
 1131 336 1131 336 1090.44628906 512.08984375 c 1,41,-1
 1263.08789062 512.08984375 l 1,42,-1
 1289.26855469 358.080078125 l 2,0,1
1554.65625 188.416992188 m 1,43,-1
 1708.75292969 188.416992188 l 2,44,45
 2295.08455747 187.698409341 2295.08455747 187.698409341 2292.66894531 431.143554688 c 4,46,47
 2292 496 2292 496 2257.95605469 541 c 0,48,49
 2199 618 2199 618 2092.11816406 618.573242188 c 0,50,51
 1828 618 1828 618 1554.65625 188.416992188 c 1,43,-1
EndSplineSet
EndChar

StartChar: uniFEBB
Encoding: 65211 65211 198
GlifName: uniF_E_B_B_
Width: 1730
VWidth: 2952
GlyphClass: 2
Flags: W
AnchorPoint: "Anchor-10" 1160.91 1376.52 basechar 0
AnchorPoint: "Anchor-7" 699.209 -240.348 basechar 0
LayerCount: 2
Fore
SplineSet
428.190429688 412.64453125 m 6,0,1
 439 235 439 235 516.76953125 217.107421875 c 5,2,3
 868 811 868 811 1242.31542969 810.42578125 c 0,4,5
 1453 810 1453 810 1563.24414062 652.0625 c 0,6,7
 1629 557 1629 557 1628.45214844 443.2265625 c 0,8,9
 1628 389 1628 389 1614.48828125 327.893554688 c 0,10,11
 1542 0 1542 0 856.133789062 0 c 2,12,-1
 805.323242188 0 l 2,13,14
 435 0 435 0 348.349609375 145.178710938 c 1,15,16
 242 0 242 0 9.984375 0 c 2,17,-1
 -6.9384765625 0 l 2,18,19
 -85 0 -85 0 -84.7783203125 88.3134765625 c 2,20,-1
 -84.7783203125 107.186523438 l 2,21,22
 -84.7783203125 188 -84.7783203125 188 -5.9384765625 188 c 2,23,-1
 10.1103515625 188 l 6,24,25
 249 188 249 188 263.379882812 412.708984375 c 6,26,-1
 273.379882812 574.469726562 l 5,27,-1
 418.190429688 574.469726562 l 5,28,-1
 428.190429688 412.64453125 l 6,0,1
707.638671875 188.416992188 m 1,29,-1
 861.735351562 188.416992188 l 2,30,31
 1444.4751108 187.7007433 1444.4751108 187.7007433 1445.65234375 430.596679688 c 0,32,33
 1446 495 1446 495 1410.93847656 541 c 0,34,35
 1352 618 1352 618 1245.10058594 618.573242188 c 0,36,37
 982 618 982 618 707.638671875 188.416992188 c 1,29,-1
EndSplineSet
EndChar

StartChar: uniFEBC
Encoding: 65212 65212 199
GlifName: uniF_E_B_C_
Width: 1759
VWidth: 2952
GlyphClass: 2
Flags: W
AnchorPoint: "Anchor-7" 699.209 -240.348 basechar 0
AnchorPoint: "Anchor-10" 1160.91 1376.52 basechar 0
LayerCount: 2
Fore
SplineSet
10.1103515625 188 m 6,0,1
 249 188 249 188 263.379882812 412.708984375 c 6,2,-1
 273.379882812 574.469726562 l 5,3,-1
 418.190429688 574.469726562 l 5,4,-1
 428.190429688 412.64453125 l 6,5,6
 439.170409494 234.960793576 439.170409494 234.960793576 516.76953125 217.107421875 c 5,7,8
 868 811 868 811 1244.31640625 810.42578125 c 0,9,10
 1451 810 1451 810 1563.24609375 652.060546875 c 0,11,12
 1630 557 1630 557 1630.04394531 435.608398438 c 0,13,14
 1630 314 1630 314 1547.88964844 202.994140625 c 1,15,16
 1563 189 1563 189 1748.72070312 189 c 2,17,-1
 1767.35351562 189 l 2,18,19
 1787 189 1787 189 1787.47558594 107.174804688 c 2,20,21
 1787.47558594 88.3056640625 l 2,22,23
 1787.47558594 0 1787.47558594 0 1767.39453125 0 c 2,24,-1
 1743.20898438 0 l 2,25,26
 1503 0 1503 0 1389.9609375 91.7001953125 c 1,27,28
 1228 0 1228 0 856.133789062 0 c 2,29,-1
 805.323242188 0 l 2,30,31
 439 0 439 0 348.349609375 145.178710938 c 1,32,33
 242 0 242 0 9.984375 0 c 2,34,-1
 -6.9384765625 0 l 2,35,36
 -85 0 -85 0 -84.7783203125 88.3134765625 c 2,37,-1
 -84.7783203125 107.186523438 l 2,38,39
 -84.7783203125 188 -84.7783203125 188 -6.9384765625 188 c 2,40,-1
 10.1103515625 188 l 6,0,1
707.638671875 188.416992188 m 1,41,-1
 861.735351562 188.416992188 l 2,42,43
 1444.475121 187.702848263 1444.475121 187.702848263 1445.65234375 430.596679688 c 0,44,45
 1446 495 1446 495 1410.93847656 541 c 0,46,47
 1352 618 1352 618 1245.10058594 618.573242188 c 0,48,49
 982 618 982 618 707.638671875 188.416992188 c 1,41,-1
EndSplineSet
EndChar

StartChar: uniFEC2
Encoding: 65218 65218 205
GlifName: uniF_E_C_2
Width: 1566
VWidth: 2952
GlyphClass: 2
Flags: W
AnchorPoint: "Anchor-7" 641.602 -236.453 basechar 0
AnchorPoint: "Anchor-10" 475.36 1612.58 basechar 0
LayerCount: 2
Fore
SplineSet
515.197265625 188.533203125 m 1,0,-1
 663.836914062 188.533203125 l 2,1,2
 1246.37580929 189.354331286 1246.37580929 189.354331286 1247.7421875 429.373046875 c 4,3,4
 1248 472 1248 472 1233.15820312 505.984375 c 0,5,6
 1219 540 1219 540 1189.31640625 566.749023438 c 0,7,8
 1132 619 1132 619 1044.49804688 618.557617188 c 0,9,10
 778.278743954 616.002675143 778.278743954 616.002675143 512.657226562 193.12890625 c 2,11,-1
 509.770507812 188.533203125 l 1,12,-1
 515.197265625 188.533203125 l 1,0,-1
658.232421875 -0.0009765625 m 2,13,-1
 101.302734375 0 l 1,14,-1
 101.302734375 188.221679688 l 1,15,-1
 321.826171875 188.376953125 l 1,16,-1
 323.553710938 188.377929688 l 1,17,-1
 324.419921875 189.873046875 l 2,18,19
 362 246 362 246 399.215820312 301.155273438 c 2,20,-1
 399.638671875 301.865234375 l 1,21,-1
 399.638671875 302.69140625 l 1,22,-1
 399.638671875 1448.87304688 l 1,23,-1
 568.950195312 1448.87304688 l 1,24,-1
 568.950195312 536.758789062 l 1,25,-1
 568.950195312 528.208984375 l 1,26,-1
 574.291992188 534.884765625 l 2,27,28
 794 810 794 810 1046.31347656 810.420898438 c 0,29,30
 1256 811 1256 811 1369.52832031 651.024414062 c 0,31,32
 1400 608 1400 608 1414.55175781 557.1953125 c 0,33,34
 1430 507 1430 507 1429.67675781 449.413085938 c 0,35,36
 1430 381 1430 381 1411.49023438 320.201171875 c 0,37,38
 1393 259 1393 259 1353.92285156 202.946289062 c 1,39,40
 1363.69120009 188.458007812 1363.69120009 188.458007812 1554.70800781 188.458007812 c 2,41,-1
 1573.34082031 188.458007812 l 2,42,43
 1593.46289062 187.989215851 1593.46289062 187.989215851 1593.46289062 107.173828125 c 2,44,-1
 1593.46289062 88.3134765625 l 2,45,46
 1592.99999488 -0.0009765625 1592.99999488 -0.0009765625 1573.38183594 -0.0009765625 c 2,47,-1
 1549.19628906 -0.0009765625 l 2,48,49
 1299 -0 1299 -0 1185.94726562 91.6923828125 c 1,50,51
 1013 -0 1013 -0 658.232421875 -0.0009765625 c 2,13,-1
EndSplineSet
EndChar

StartChar: uniFEC3
Encoding: 65219 65219 206
GlifName: uniF_E_C_3
Width: 1390
VWidth: 2952
GlyphClass: 2
Flags: W
AnchorPoint: "Anchor-7" 501.602 -236.453 basechar 0
AnchorPoint: "Anchor-10" 335.36 1612.58 basechar 0
LayerCount: 2
Fore
SplineSet
515.5703125 0 m 2,0,-1
 -6.9384765625 0 l 2,1,2
 -84.7783203125 0 -84.7783203125 0 -84.7783203125 88.3134765625 c 2,3,-1
 -84.7783203125 107.186523438 l 2,4,5
 -84.9995385857 187.831791109 -84.9995385857 187.831791109 -6.943359375 187.993164062 c 2,6,-1
 179.16796875 188.377929688 l 1,7,-1
 180.875976562 188.381835938 l 1,8,-1
 181.745117188 189.8515625 l 2,9,10
 219 246 219 246 256.567382812 301.178710938 c 2,11,-1
 256.9765625 301.879882812 l 1,12,-1
 256.9765625 302.692382812 l 1,13,-1
 256.9765625 1448.87402344 l 1,14,-1
 426.288085938 1448.87402344 l 1,15,-1
 426.288085938 536.759765625 l 1,16,-1
 426.288085938 528.198242188 l 1,17,-1
 431.631835938 534.887695312 l 2,18,19
 651 810 651 810 903.650390625 810.421875 c 0,20,21
 1115 811 1115 811 1226.86035156 651.033203125 c 0,22,23
 1257 608 1257 608 1271.68554688 557.196289062 c 0,24,25
 1287 507 1287 507 1287.01464844 449.4296875 c 0,26,27
 1287 0 1287 0 515.5703125 0 c 2,0,-1
372.53515625 188.534179688 m 1,28,-1
 521.174804688 188.534179688 l 2,29,30
 1104.93378277 189.353667759 1104.93378277 189.353667759 1105.08007812 429.388671875 c 4,31,32
 1105 514 1105 514 1046.64648438 566.756835938 c 0,33,34
 1018 593 1018 593 981.403320312 606.041992188 c 128,-1,35
 945 619 945 619 901.8359375 618.55859375 c 0,36,37
 636.163647875 616.001575063 636.163647875 616.001575063 369.99609375 193.1328125 c 2,38,-1
 367.1015625 188.534179688 l 1,39,-1
 372.53515625 188.534179688 l 1,28,-1
EndSplineSet
EndChar

StartChar: uniFEC4
Encoding: 65220 65220 207
GlifName: uniF_E_C_4
Width: 1424
VWidth: 2952
GlyphClass: 2
Flags: W
AnchorPoint: "Anchor-10" 335.36 1612.58 basechar 0
AnchorPoint: "Anchor-7" 501.602 -236.453 basechar 0
LayerCount: 2
Fore
SplineSet
372.53515625 188.534179688 m 1,0,-1
 521.174804688 188.534179688 l 2,1,2
 1104.9337858 189.35863699 1104.9337858 189.35863699 1105.08007812 429.388671875 c 4,3,4
 1105 514 1105 514 1046.64648438 566.756835938 c 0,5,6
 1018 593 1018 593 981.403320312 606.041992188 c 128,-1,7
 945 619 945 619 901.8359375 618.55859375 c 0,8,9
 636.163647875 616.001575063 636.163647875 616.001575063 369.99609375 193.1328125 c 2,10,-1
 367.1015625 188.534179688 l 1,11,-1
 372.53515625 188.534179688 l 1,0,-1
515.5703125 0 m 2,12,-1
 -6.9384765625 0 l 2,13,14
 -84.7783203125 0 -84.7783203125 0 -84.7783203125 88.3134765625 c 2,15,-1
 -84.7783203125 107.186523438 l 2,16,17
 -84.999538158 187.831635211 -84.999538158 187.831635211 -6.943359375 187.993164062 c 2,18,-1
 180.875976562 188.381835938 l 1,19,20
 254.872775194 298.274824852 254.872775194 298.274824852 256.567382812 301.178710938 c 2,21,-1
 256.9765625 301.879882812 l 1,22,-1
 256.9765625 302.692382812 l 1,23,-1
 256.9765625 1448.87402344 l 1,24,-1
 426.288085938 1448.87402344 l 1,25,-1
 426.288085938 536.759765625 l 1,26,-1
 426.288085938 528.198242188 l 1,27,-1
 431.631835938 534.887695312 l 2,28,29
 651 810 651 810 903.650390625 810.421875 c 0,30,31
 1119 811 1119 811 1226.86035156 651.033203125 c 0,32,33
 1287 562 1287 562 1287.01464844 449.422851562 c 0,34,35
 1286.99995821 312.610816545 1286.99995821 312.610816545 1212.52246094 204.764648438 c 2,36,-1
 1211.25390625 202.927734375 l 1,37,-1
 1212.64941406 201.185546875 l 2,38,39
 1222.63969965 188.458984375 1222.63969965 188.458984375 1412.04589844 188.458984375 c 2,40,-1
 1430.67871094 188.458984375 l 2,41,42
 1450.80078125 188.004499631 1450.80078125 188.004499631 1450.80078125 107.174804688 c 2,43,-1
 1450.80078125 88.3271484375 l 2,44,45
 1451 0 1451 0 1430.71972656 0 c 2,46,-1
 1406.53417969 0 l 2,47,48
 1156 0 1156 0 1043.29003906 91.6943359375 c 1,49,50
 860 0 860 0 515.5703125 0 c 2,12,-1
EndSplineSet
EndChar

StartChar: uniFECA
Encoding: 65226 65226 213
GlifName: uniF_E_C_A_
Width: 1128
VWidth: 2952
GlyphClass: 2
Flags: W
AnchorPoint: "Anchor-7" 486.833 -922.619 basechar 0
AnchorPoint: "Anchor-10" 526.833 1376.24 basechar 0
LayerCount: 2
Fore
SplineSet
436 332 m 5,0,1
 195 511 195 511 194.880859375 562.676757812 c 0,2,3
 195 644 195 644 336.684570312 702.70703125 c 0,4,5
 445 748 445 748 575.977539062 747.208007812 c 0,6,7
 730 747 730 747 830.684570312 696.70703125 c 0,8,9
 951 638 951 638 950.895507812 567.676757812 c 0,10,11
 951 517 951 517 684.038085938 308.290039062 c 1,12,13
 816.508991698 184.458984375 816.508991698 184.458984375 1108.421875 184.458984375 c 2,14,-1
 1136.30078125 184.458984375 l 2,15,16
 1156.42285156 183.990147718 1156.42285156 183.990147718 1156.42285156 103.174804688 c 2,17,-1
 1156.42285156 84.3095703125 l 2,18,19
 1156 -4 1156 -4 1136.34179688 -4 c 2,20,-1
 1108.11914062 -4 l 2,21,22
 786 -4 786 -4 553 209 c 1,23,24
 275 55 275 55 274.666015625 -186.051757812 c 0,25,26
 274 -467 274 -467 678.583984375 -467.788085938 c 0,27,28
 846 -468 846 -468 1022.91503906 -395.033203125 c 1,29,-1
 1026 -590 l 1,30,31
 889 -652 889 -652 677.8046875 -651.228515625 c 0,32,33
 105 -648 105 -648 104.403320312 -186.177734375 c 0,34,35
 104 115 104 115 436 332 c 5,0,1
686.7109375 531.612304688 m 0,36,37
 660.684570312 572.70703125 660.684570312 572.70703125 578.184570312 573.20703125 c 128,-1,38
 495.57421875 573.719726562 495.57421875 573.719726562 463.979492188 529.838867188 c 0,39,40
 456.684570312 519.70703125 456.684570312 519.70703125 580.380859375 425.5703125 c 1,41,42
 690.684570312 524.70703125 690.684570312 524.70703125 686.7109375 531.612304688 c 0,36,37
EndSplineSet
EndChar

StartChar: uniFECB
Encoding: 65227 65227 214
GlifName: uniF_E_C_B_
Width: 1068
VWidth: 2952
GlyphClass: 2
Flags: W
AnchorPoint: "Anchor-10" 526.493 1375.05 basechar 0
AnchorPoint: "Anchor-7" 484.511 -235.021 basechar 0
LayerCount: 2
Fore
SplineSet
862.840820312 584.266601562 m 1,0,1
 738 687 738 687 616.54296875 687.30078125 c 0,2,3
 553 688 553 688 501.90625 669.456054688 c 128,-1,4
 451 651 451 651 414.06640625 615.015625 c 0,5,6
 379 580 379 580 360.668945312 537.108398438 c 0,7,8
 343 494 343 494 342.602539062 442.439453125 c 0,9,10
 343 310 343 310 498.905273438 235.798828125 c 0,11,12
 520.68838002 225.152304696 520.68838002 225.152304696 525.38671875 226.29296875 c 2,13,-1
 961.0703125 332.068359375 l 1,14,-1
 961.0703125 148.317382812 l 1,15,16
 484.633034833 -0.114326207272 484.633034833 -0.114326207272 85.4384765625 -0.021484375 c 2,17,-1
 -6.9384765625 0 l 2,18,19
 -84.7783203125 0 -84.7783203125 0 -84.7783203125 88.3134765625 c 2,20,-1
 -84.7783203125 107.186523438 l 2,21,22
 -85.0012559806 188.457868565 -85.0012559806 188.457868565 -6.9453125 188.458984375 c 2,23,-1
 266.314453125 188.462890625 l 1,24,-1
 273.065429688 188.462890625 l 1,25,26
 250.022500316 213.982698656 250.022500316 213.982698656 223.862304688 251.3359375 c 4,27,28
 168 338 168 338 168.720703125 451.967773438 c 0,29,30
 170 616 170 616 258.1328125 726.904296875 c 0,31,32
 305 786 305 786 375.700195312 824.130859375 c 0,33,34
 468 874 468 874 591.578125 873.232421875 c 0,35,36
 797 872 797 872 929.883789062 734.323242188 c 1,37,-1
 862.840820312 584.266601562 l 1,0,1
EndSplineSet
EndChar

StartChar: uniFECC
Encoding: 65228 65228 215
GlifName: uniF_E_C_C_
Width: 1051
VWidth: 2952
GlyphClass: 2
Flags: W
AnchorPoint: "Anchor-7" 544.511 -235.021 basechar 0
AnchorPoint: "Anchor-10" 599.107 1352.89 basechar 0
LayerCount: 2
Fore
SplineSet
677.353515625 256.583007812 m 1,0,1
 793.011526939 187.993164062 793.011526939 187.993164062 1034.80175781 187.993164062 c 6,2,-1
 1058.37792969 187.993164062 l 6,3,4
 1078.45703125 188.000159221 1078.45703125 188.000159221 1078.45703125 107.174804688 c 6,5,-1
 1078.45703125 88.3037109375 l 5,6,7
 1077 0 1077 0 1058.37695312 0 c 6,8,-1
 1035.1875 0 l 6,9,10
 762 0 762 0 577.05859375 143.149414062 c 1,11,12
 410 0 410 0 17.048828125 0 c 2,13,-1
 -6.9384765625 0 l 2,14,15
 -84.7783203125 0 -84.7783203125 0 -84.7783203125 88.3134765625 c 2,16,-1
 -84.7783203125 107.186523438 l 2,17,18
 -84.9999812483 187.993164062 -84.9999812483 187.993164062 -6.9384765625 187.993164062 c 2,19,-1
 20.412109375 187.993164062 l 2,20,21
 358 188 358 188 462.299804688 257.163085938 c 1,22,23
 188 457 188 457 188.196289062 510.969726562 c 0,24,25
 188 592 188 592 330 651 c 0,26,27
 438 696 438 696 569.29296875 695.500976562 c 0,28,29
 723 695 723 695 824 645 c 0,30,31
 944 586 944 586 944.2109375 515.969726562 c 0,32,33
 944 465 944 465 677.353515625 256.583007812 c 1,0,1
680.026367188 479.905273438 m 0,34,35
 654 521 654 521 571.5 521.5 c 128,-1,36
 488.889438536 522.013109077 488.889438536 522.013109077 457.294921875 478.131835938 c 0,37,38
 450 468 450 468 573.696289062 373.86328125 c 1,39,40
 684 473 684 473 680.026367188 479.905273438 c 0,34,35
EndSplineSet
EndChar

StartChar: uniFEDA
Encoding: 65242 65242 229
GlifName: uniF_E_D_A_
Width: 2071
VWidth: 2952
GlyphClass: 2
Flags: W
AnchorPoint: "Anchor-10" 943.11 1606.05 basechar 0
AnchorPoint: "Anchor-7" 750.268 -236.468 basechar 0
LayerCount: 2
Fore
SplineSet
726.16015625 772.014648438 m 1,0,1
 820 762 820 762 888.541992188 761.266601562 c 0,2,3
 995 761 995 761 1048.5078125 782.905273438 c 128,-1,4
 1102 805 1102 805 1102.74707031 851.642578125 c 0,5,6
 1103 895 1103 895 1072.24511719 920.521484375 c 0,7,8
 1042 947 1042 947 981.092773438 955.450195312 c 0,9,10
 767 988 767 988 770.930664062 1168.4921875 c 0,11,12
 776 1375 776 1375 1163.61035156 1403.55273438 c 1,13,-1
 1163.61035156 1274.98925781 l 1,14,15
 904 1251 904 1251 904.139648438 1160.4453125 c 0,16,17
 904 1086 904 1086 1042.91601562 1064.75683594 c 0,18,19
 1236 1035 1236 1035 1235.36425781 856.126953125 c 0,20,21
 1235 737 1235 737 1116.39941406 670.239257812 c 0,22,23
 1041.21972656 628.532226562 1041.21972656 628.532226562 906 629.088867188 c 0,24,25
 826.465820312 629.416992188 826.465820312 629.416992188 726.16015625 644.366210938 c 1,26,-1
 726.16015625 772.014648438 l 1,0,1
871.8671875 188.13671875 m 0,27,28
 1036 188 1036 188 1149.71875 198.809570312 c 0,29,30
 1643 246 1643 246 1636.82910156 551.963867188 c 5,31,-1
 1636.82910156 1445.27539062 l 5,32,-1
 1809.70996094 1445.27539062 l 1,33,-1
 1809.70996094 552.920898438 l 2,34,35
 1809.99977801 188.279296875 1809.99977801 188.279296875 2055.68261719 188.279296875 c 2,36,-1
 2078.84570312 188.279296875 l 2,37,38
 2098.95703125 188.000595458 2098.95703125 188.000595458 2098.95703125 111.889648438 c 2,39,-1
 2098.95703125 88.3203125 l 2,40,41
 2099 0 2099 0 2078.875 0 c 2,42,-1
 2047.96875 0 l 2,43,44
 1909 0 1909 0 1821.4765625 56.826171875 c 0,45,46
 1733.85708046 114.093410817 1733.85708046 114.093410817 1697.37207031 227.538085938 c 2,47,-1
 1695.5234375 233.286132812 l 1,48,-1
 1692.05957031 228.33984375 l 2,49,50
 1615 119 1615 119 1432.52148438 58.119140625 c 0,51,52
 1257 0 1257 0 892.133789062 0 c 0,53,-1
 890.911132812 0 l 2,54,55
 105 0 105 0 104.16015625 485.872070312 c 0,56,57
 104 616 104 616 132 709 c 1,58,-1
 312 709 l 1,59,60
 283 607 283 607 283.424804688 504.521484375 c 0,61,62
 285 188 285 188 871.8671875 188.13671875 c 0,27,28
EndSplineSet
EndChar

StartChar: uniFEDB
Encoding: 65243 65243 230
GlifName: uniF_E_D_B_
Width: 1000
VWidth: 2952
GlyphClass: 2
Flags: W
AnchorPoint: "Anchor-7" 350.991 -231.935 basechar 0
LayerCount: 2
Fore
SplineSet
175.612304688 0 m 6,0,-1
 -6.9384765625 0 l 2,1,2
 -84.7783203125 0 -84.7783203125 0 -84.7783203125 88.3134765625 c 2,3,-1
 -84.7783203125 107.186523438 l 2,4,5
 -84.9999823991 187.993583562 -84.9999823991 187.993583562 -6.9384765625 187.993164062 c 2,6,-1
 174.782226562 187.9921875 l 6,7,8
 578 188 578 188 578.724609375 415.118164062 c 0,9,10
 579 501 579 501 498.294921875 582 c 0,11,12
 450 631 450 631 199 825 c 0,13,14
 88 911 88 911 87.9189453125 1004.45703125 c 0,15,16
 88 1067 88 1067 124.77734375 1115.70605469 c 0,17,18
 162.984185991 1164.97960542 162.984185991 1164.97960542 228.114257812 1190.84472656 c 2,19,-1
 941.37109375 1474.10058594 l 1,20,-1
 941.37109375 1279.46191406 l 1,21,-1
 248.57421875 1008.55859375 l 1,22,-1
 590.765625 729.663085938 l 2,23,24
 761 591 761 591 758.217773438 410.357421875 c 0,25,26
 754 0 754 0 175.612304688 0 c 6,0,-1
EndSplineSet
EndChar

StartChar: uniFEDC
Encoding: 65244 65244 231
GlifName: uniF_E_D_C_
Width: 1057
VWidth: 2952
GlyphClass: 2
Flags: W
AnchorPoint: "Anchor-7" 350.991 -231.935 basechar 0
LayerCount: 2
Fore
SplineSet
682 179 m 1,0,1
 553 0 553 0 175.612304688 0 c 6,2,-1
 -6.9384765625 0 l 2,3,4
 -84.7783203125 0 -84.7783203125 0 -84.7783203125 88.3134765625 c 2,5,-1
 -84.7783203125 107.186523438 l 2,6,7
 -84.9999823991 187.993583562 -84.9999823991 187.993583562 -6.9384765625 187.993164062 c 2,8,-1
 174.782226562 187.9921875 l 6,9,10
 578 188 578 188 578.724609375 415.118164062 c 0,11,12
 579 501 579 501 498.294921875 582 c 0,13,14
 450 631 450 631 199 825 c 0,15,16
 88 911 88 911 87.9189453125 1004.45703125 c 0,17,18
 88 1067 88 1067 124.77734375 1115.70605469 c 0,19,20
 162.984185991 1164.97960542 162.984185991 1164.97960542 228.114257812 1190.84472656 c 2,21,-1
 941.37109375 1474.10058594 l 1,22,-1
 941.37109375 1279.46191406 l 1,23,-1
 248.57421875 1008.55859375 l 1,24,-1
 590.765625 729.663085938 l 2,25,26
 752 598 752 598 758.217773438 410.357421875 c 8,27,28
 766.000239249 187.993164062 766.000239249 187.993164062 1047.9140625 187.993164062 c 2,29,-1
 1064.24707031 187.993164062 l 2,30,31
 1084.32421875 188.000112203 1084.32421875 188.000112203 1084.32421875 107.174804688 c 2,32,-1
 1084.32421875 88.3046875 l 2,33,34
 1084 0 1084 0 1064.24609375 0 c 2,35,-1
 1047.80761719 0 l 2,36,37
 768 0 768 0 682 179 c 1,0,1
EndSplineSet
EndChar

StartChar: uniFEDE
Encoding: 65246 65246 233
GlifName: uniF_E_D_E_
Width: 1496
VWidth: 2952
GlyphClass: 2
Flags: W
AnchorPoint: "Anchor-10" 563.908 1221.66 basechar 0
AnchorPoint: "Anchor-7" 565.902 -800.086 basechar 0
LayerCount: 2
Fore
SplineSet
688.229492188 -293.216796875 m 4,0,1
 1084.93066406 -293 1084.93066406 -293 1085.60449219 99.8037109375 c 6,2,-1
 1087.91699219 1446.92285156 l 5,3,-1
 1257.88574219 1446.92285156 l 5,4,-1
 1257.30175781 399.185546875 l 6,5,6
 1257 188.279296875 1257 188.279296875 1484.70410156 188.279296875 c 6,7,-1
 1504.79785156 188.279296875 l 6,8,9
 1524.90722656 188.000976562 1524.90722656 188.000976562 1524.90722656 111.889648438 c 6,10,-1
 1524.90722656 88.3037109375 l 6,11,12
 1525 0 1525 0 1504.82714844 0 c 6,13,-1
 1480.3515625 0 l 6,14,15
 1325 0 1325 0 1249.98144531 75.3076171875 c 5,16,17
 1249 52 1249 52 1247.859375 29.4931640625 c 4,18,19
 1222 -477 1222 -477 687.330078125 -476.724609375 c 4,20,21
 101 -477 101 -477 101.752929688 101.043945312 c 4,22,23
 102 262 102 262 163.028320312 440.125 c 5,24,-1
 335.548828125 439.787109375 l 5,25,26
 282 252 282 252 282.268554688 102.860351562 c 4,27,28
 282 -293 282 -293 688.229492188 -293.216796875 c 4,0,1
EndSplineSet
EndChar

StartChar: uniFEDF
Encoding: 65247 65247 234
GlifName: uniF_E_D_F_
Width: 635
VWidth: 2952
GlyphClass: 2
Flags: W
AnchorPoint: "Anchor-10" 385.751 1607.45 basechar 0
AnchorPoint: "Anchor-7" 279.812 -236.234 basechar 0
LayerCount: 2
Fore
SplineSet
-6.9384765625 0 m 2,0,1
 -84.7783203125 0 -84.7783203125 0 -84.7783203125 88.3134765625 c 2,2,-1
 -84.7783203125 107.186523438 l 2,3,4
 -84.9999812483 187.993164062 -84.9999812483 187.993164062 -6.9384765625 187.993164062 c 2,5,-1
 41.482421875 187.993164062 l 2,6,7
 312.313476562 188.000007922 312.313476562 188.000007922 312.313476562 438.663085938 c 6,8,-1
 312.313476562 1448.171875 l 5,9,-1
 481.627929688 1448.171875 l 1,10,-1
 481.627929688 432.965820312 l 2,11,12
 482 0 482 0 36.2861328125 0 c 2,13,-1
 -6.9384765625 0 l 2,0,1
EndSplineSet
EndChar

StartChar: uniFEE0
Encoding: 65248 65248 235
GlifName: uniF_E_E_0
Width: 728
VWidth: 2952
GlyphClass: 2
Flags: W
AnchorPoint: "Anchor-7" 279.812 -236.234 basechar 0
AnchorPoint: "Anchor-10" 395.751 1607.45 basechar 0
LayerCount: 2
Fore
SplineSet
82.5927734375 0 m 2,0,-1
 -6.9384765625 0 l 2,1,2
 -84.7783203125 0 -84.7783203125 0 -84.7783203125 88.3134765625 c 2,3,-1
 -84.7783203125 107.186523438 l 2,4,5
 -84.9999812483 187.993164062 -84.9999812483 187.993164062 -6.9384765625 187.993164062 c 2,6,-1
 85.109375 187.993164062 l 2,7,8
 321.081054688 188.000002349 321.081054688 188.000002349 321.081054688 395.180664062 c 2,9,-1
 321.081054688 1448.07617188 l 1,10,-1
 489.739257812 1448.07617188 l 1,11,-1
 489.739257812 395.1953125 l 2,12,13
 490.000008603 187.993164062 490.000008603 187.993164062 715.545898438 187.993164062 c 2,14,-1
 732.994140625 187.993164062 l 2,15,16
 756.80078125 187.99994327 756.80078125 187.99994327 756.80078125 107.174804688 c 2,17,-1
 756.80078125 88.298828125 l 2,18,19
 757 0 757 0 732.993164062 0 c 2,20,-1
 718.065429688 0 l 2,21,22
 493 0 493 0 392.25390625 141.560546875 c 1,23,24
 295 0 295 0 82.5927734375 0 c 2,0,-1
EndSplineSet
EndChar

StartChar: uniFEE2
Encoding: 65250 65250 237
GlifName: uniF_E_E_2
Width: 1306
VWidth: 2622
GlyphClass: 2
Flags: W
AnchorPoint: "Anchor-10" 697.239 1374.48 basechar 0
AnchorPoint: "Anchor-7" 724.983 -346.909 basechar 0
LayerCount: 2
Fore
SplineSet
800.723632812 150.75 m 0,0,1
 901 151 901 151 940 221.044921875 c 0,2,3
 957.219726562 251.58984375 957.219726562 251.58984375 957.864257812 289 c 0,4,5
 958.690429688 336.932617188 958.690429688 336.932617188 939.724609375 383 c 0,6,7
 907.21875 461.958007812 907.21875 461.958007812 851 495.620117188 c 0,8,9
 811.836914062 519.069335938 811.836914062 519.069335938 760.614257812 519.158203125 c 0,10,11
 597.599609375 518.90625 597.599609375 518.90625 569.541015625 302.028320312 c 1,12,13
 671 151 671 151 800.723632812 150.75 c 0,0,1
1084.87304688 112 m 1,14,15
 1071 86 1071 86 1052.41796875 64.3955078125 c 0,16,17
 975 -27 975 -27 815.204101562 -27.2431640625 c 4,18,19
 657 -27 657 -27 553 67.9232483932 c 0,20,21
 530 89 530 89 507 110 c 0,22,23
 477 138 477 138 428.370117188 137.747070312 c 0,24,25
 279 136 279 136 279.751475698 -368 c 0,26,27
 280 -564 280 -564 293.813476562 -724.813476562 c 1,28,-1
 110.231445312 -724.813476562 l 1,29,30
 98 -535 98 -535 99.0615234375 -364 c 0,31,32
 102 9 102 9 178 159 c 0,33,34
 258 316 258 316 397.721679688 340 c 1,35,36
 431 489 431 489 495 572.666992188 c 0,37,38
 595 703 595 703 757.327148438 703.532226562 c 0,39,40
 926 704 926 704 1032.42578125 570.094726562 c 0,41,42
 1100 485 1100 485 1118.12207031 375 c 24,43,44
 1148.00015603 187.999023438 1148.00015603 187.999023438 1298.39648438 187.999023438 c 2,45,-1
 1313.78417969 187.999023438 l 2,46,47
 1333.86816406 187.999993631 1333.86816406 187.999993631 1333.86816406 107.174804688 c 2,48,-1
 1333.86816406 88.31640625 l 2,49,50
 1334 0 1334 0 1313.78808594 0 c 2,51,-1
 1298.09472656 0 l 2,52,53
 1157 0 1157 0 1084.87304688 112 c 1,14,15
EndSplineSet
EndChar

StartChar: uniFEE3
Encoding: 65251 65251 238
GlifName: uniF_E_E_3
Width: 1050
VWidth: 2952
GlyphClass: 2
Flags: W
AnchorPoint: "Anchor-10" 549.952 1380.2 basechar 0
AnchorPoint: "Anchor-7" 504.594 -235.063 basechar 0
LayerCount: 2
Fore
SplineSet
610.723632812 160.75 m 0,0,1
 711 161 711 161 750 231.044732756 c 0,2,3
 767.219372301 261.589861842 767.219372301 261.589861842 767.864297782 299 c 0,4,5
 768.690620404 346.932426863 768.690620404 346.932426863 749.724977388 393 c 0,6,7
 717.218557988 471.958137718 717.218557988 471.958137718 661 505.61999559 c 0,8,9
 621.837012366 529.069528463 621.837012366 529.069528463 570.614257812 529.158203125 c 0,10,11
 407.599752439 528.906315171 407.599752439 528.906315171 379.541015625 312.028320312 c 1,12,13
 481 161 481 161 610.723632812 160.75 c 0,0,1
293.192382812 142.71484375 m 1,14,15
 200 0 200 0 12.720703125 0 c 2,16,-1
 -8.1171875 0 l 2,17,18
 -84.7783203125 0 -84.7783203125 0 -84.7783203125 88.3134765625 c 2,19,-1
 -84.7783203125 107.192382812 l 2,20,21
 -84.999981247 187.993164062 -84.999981247 187.993164062 -8.1171875 187.993164062 c 2,22,-1
 8.3251953125 187.993164062 l 2,23,24
 172 188 172 188 207.721683705 350 c 0,25,26
 241 499 241 499 305 582.666992188 c 0,27,28
 403 713 403 713 567.327148438 713.532226562 c 0,29,30
 736 714 736 714 842.42578125 580.094726562 c 0,31,32
 935 464 935 464 934.474609375 301.60546875 c 0,33,34
 934 158 934 158 862.41796875 74.3955078125 c 0,35,36
 785 -17 785 -17 625.204101562 -17.2431640625 c 4,37,38
 436 -17 436 -17 293.192382812 142.71484375 c 1,14,15
EndSplineSet
EndChar

StartChar: uniFEE4
Encoding: 65252 65252 239
GlifName: uniF_E_E_4
Width: 1102
VWidth: 2952
GlyphClass: 2
Flags: W
AnchorPoint: "Anchor-7" 524.594 -235.063 basechar 0
AnchorPoint: "Anchor-10" 569.952 1380.2 basechar 0
LayerCount: 2
Fore
SplineSet
610.723632812 160.75 m 0,0,1
 711 161 711 161 750 231.044732756 c 0,2,3
 767.219372301 261.589861842 767.219372301 261.589861842 767.864297782 299 c 0,4,5
 768.690620404 346.932426863 768.690620404 346.932426863 749.724977388 393 c 0,6,7
 717.218557988 471.958137718 717.218557988 471.958137718 661 505.61999559 c 0,8,9
 621.837012366 529.069528463 621.837012366 529.069528463 570.614257812 529.158203125 c 0,10,11
 407.599752439 528.906315171 407.599752439 528.906315171 379.541015625 312.028320312 c 1,12,13
 481 161 481 161 610.723632812 160.75 c 0,0,1
888.662109375 111 m 1,14,15
 885 101 885 101 862.41796875 74.3955078125 c 0,16,17
 785 -17 785 -17 625.204101562 -17.2431640625 c 4,18,19
 436 -17 436 -17 293.192382812 142.71484375 c 1,20,21
 200 0 200 0 12.720703125 0 c 2,22,-1
 -8.1171875 0 l 2,23,24
 -84.7783203125 0 -84.7783203125 0 -84.7783203125 88.3134765625 c 2,25,-1
 -84.7783203125 107.192382812 l 2,26,27
 -84.999981247 187.993164062 -84.999981247 187.993164062 -8.1171875 187.993164062 c 2,28,-1
 8.3251953125 187.993164062 l 2,29,30
 172 188 172 188 207.721683705 350 c 0,31,32
 241 499 241 499 305 582.666992188 c 0,33,34
 405 713 405 713 567.327148438 713.532226562 c 0,35,36
 736 714 736 714 842.42578125 580.094726562 c 0,37,38
 911 495 911 495 928.283203125 384 c 24,39,40
 959.000153045 187.999023438 959.000153045 187.999023438 1094.79492188 187.999023438 c 2,41,-1
 1110.18261719 187.999023438 l 2,42,43
 1130.26757812 188.000013186 1130.26757812 188.000013186 1130.26757812 107.174804688 c 2,44,-1
 1130.26757812 88.328125 l 2,45,46
 1130 0 1130 0 1110.18652344 0 c 2,47,-1
 1094.49414062 0 l 2,48,49
 961 0 961 0 888.662109375 111 c 1,14,15
EndSplineSet
EndChar

StartChar: uniFEEA
Encoding: 65258 65258 245
GlifName: uniF_E_E_A_
Width: 1023
VWidth: 2952
GlyphClass: 2
Flags: W
AnchorPoint: "Anchor-10" 694.464 1371.36 basechar 0
AnchorPoint: "Anchor-7" 484.642 -234.09 basechar 0
LayerCount: 2
Fore
SplineSet
1031.72070312 188.029296875 m 2,0,1
 1051.80859375 188.086435087 1051.80859375 188.086435087 1051.80859375 111.889648438 c 2,2,-1
 1051.80859375 88.2998046875 l 2,3,4
 1052 0 1052 0 1031.72753906 0 c 2,5,-1
 1012.4609375 0 l 2,6,7
 700.680133426 -3.41060513165e-13 700.680133426 -3.41060513165e-13 653.694335938 338 c 2,8,-1
 630.362304688 505.842773438 l 0,9,10
 613 628 613 628 536.9375 628.033203125 c 0,11,12
 494 628 494 628 433.294921875 591 c 0,13,14
 287 502 287 502 285.614257812 361.591796875 c 0,15,16
 285 221 285 221 447 204.719227457 c 0,17,18
 516 198 516 198 607.04296875 196.973632812 c 1,19,-1
 601 21 l 1,20,21
 420 21 420 21 303.887621427 67 c 0,22,23
 111 145 111 145 111.338867188 357.900390625 c 4,24,25
 111 562 111 562 297.12109375 709 c 0,26,27
 431 815 431 815 553.9765625 815.126953125 c 0,28,29
 686 815 686 815 737 741.60546875 c 0,30,31
 781 680 781 680 794.776367188 554 c 0,32,33
 817 363 817 363 823.63671875 336.928710938 c 0,34,35
 865.123475467 187.555425932 865.123475467 187.555425932 1021.42089844 188 c 2,36,-1
 1031.72070312 188.029296875 l 2,0,1
EndSplineSet
EndChar

StartChar: uniFEEB
Encoding: 65259 65259 246
GlifName: uniF_E_E_B_
Width: 1395
VWidth: 2952
GlyphClass: 2
Flags: W
AnchorPoint: "Anchor-10" 617.134 1376.79 basechar 0
AnchorPoint: "Anchor-7" 530.852 -237.953 basechar 0
LayerCount: 2
Fore
SplineSet
95.4453125 0 m 2,0,-1
 -6.9384765625 0 l 2,1,2
 -84.7783203125 0 -84.7783203125 0 -84.7783203125 88.3134765625 c 2,3,-1
 -84.7783203125 107.186523438 l 2,4,5
 -84.9999812483 187.993164062 -84.9999812483 187.993164062 -6.9384765625 187.993164062 c 2,6,-1
 258 187.993164062 l 0,7,-1
 307.547851562 187.993164062 l 1,8,9
 266 217 266 217 240.334960938 247.45703125 c 0,10,11
 160 340 160 340 160.629882812 459.639648438 c 0,12,13
 161 580 161 580 249.045898438 681.1328125 c 0,14,15
 353 802 353 802 515.150390625 802.310546875 c 0,16,17
 670 802 670 802 781.11328125 697.374023438 c 0,18,19
 868 616 868 616 868.993164062 504.8203125 c 0,20,21
 869 316 869 316 691.041992188 206.763671875 c 1,22,23
 852 184 852 184 919.43359375 183.66015625 c 0,24,25
 987 184 987 184 1023.67382812 198.219726562 c 0,26,27
 1114 233 1114 233 1113.69726562 355.637695312 c 0,28,29
 1114 453 1114 453 1012.95117188 568.756835938 c 0,30,31
 838 772 838 772 615 860 c 1,32,-1
 682 1027 l 5,33,34
 1298 691 1298 691 1293.43513144 355 c 0,35,36
 1291 207 1291 207 1202.50683594 109.940429688 c 0,37,38
 1105 1 1105 1 888.586914062 0.529296875 c 0,39,40
 743 -0 743 -0 515.903320312 72.001953125 c 1,41,42
 273 0 273 0 95.4453125 0 c 2,0,-1
620.763671875 332.3828125 m 0,43,44
 701 405 701 405 699.611328125 492.108398438 c 0,45,46
 699 541 699 541 662.737304688 581.02734375 c 0,47,48
 609 640 609 640 523.657226562 640.331054688 c 0,49,50
 424 640 424 640 369.583984375 553.057617188 c 0,51,52
 343 511 343 511 342.1875 455.844726562 c 0,53,54
 342 376 342 376 406.4140625 318.735351562 c 0,55,56
 433.534158096 294.439034157 433.534158096 294.439034157 467 278.624859429 c 0,57,58
 490.652841904 267.447785929 490.652841904 267.447785929 517.475585938 260.5078125 c 1,59,60
 531.914387687 267.13950335 531.914387687 267.13950335 547 276.273705767 c 0,61,62
 582.12822357 297.543528826 582.12822357 297.543528826 620.763671875 332.3828125 c 0,43,44
EndSplineSet
EndChar

StartChar: uniFEEC
Encoding: 65260 65260 247
GlifName: uniF_E_E_C_
Width: 1022
VWidth: 2952
GlyphClass: 2
Flags: W
AnchorPoint: "Anchor-7" 491.16 -793.603 basechar 0
AnchorPoint: "Anchor-10" 500.648 1375.04 basechar 0
LayerCount: 2
Fore
SplineSet
607 -292 m 1,0,1
 607.999997965 187.999023438 607.999997965 187.999023438 1007.90429688 187.999023438 c 2,2,-1
 1029.85253906 187.999023438 l 2,3,4
 1049.93457031 187.999996829 1049.93457031 187.999996829 1049.93457031 107.174804688 c 2,5,-1
 1049.93457031 88.3349609375 l 2,6,7
 1050 0 1050 0 1029.85546875 0 c 2,8,-1
 1005.52539062 0 l 2,9,10
 718 0 718 0 758.909179688 -451.33984375 c 1,11,-1
 547 -452 l 1,12,13
 319 -351 319 -351 234.737304688 0 c 1,14,-1
 -6.9384765625 0 l 2,15,16
 -84.7783203125 0 -84.7783203125 0 -84.7783203125 88.3134765625 c 2,17,-1
 -84.7783203125 107.186523438 l 2,18,19
 -84.9999973212 187.999023438 -84.9999973212 187.999023438 -6.919921875 187.999023438 c 2,20,-1
 221.975585938 187.999023438 l 1,21,22
 226 825 226 825 548.5 825 c 0,23,24
 670 825 670 825 741.5 738.5 c 132,-1,25
 813 652 813 652 811.58984375 497.955078125 c 0,26,27
 806 67 806 67 397.930664062 -1.2685546875 c 1,28,29
 447 -205 447 -205 607 -292 c 1,0,1
388.877929688 186.854492188 m 1,30,31
 649 223 649 223 649.1796875 503.799804688 c 0,32,33
 649 637 649 637 539.557617188 637.194335938 c 0,34,35
 389.984175207 636.566884321 389.984175207 636.566884321 388.877929688 186.854492188 c 1,30,31
EndSplineSet
EndChar

StartChar: uniFEEE
Encoding: 65262 65262 249
GlifName: uniF_E_E_E_
Width: 893
VWidth: 2144
GlyphClass: 2
Flags: W
AnchorPoint: "Anchor-7" 364.969 -769.998 basechar 0
AnchorPoint: "Anchor-10" 459.256 1370.2 basechar 0
LayerCount: 2
Fore
SplineSet
628.099609375 1.228515625 m 1,0,1
 558.180664062 0.8115234375 l 0,2,3
 118 1 118 1 118.004882812 344.353515625 c 0,4,5
 118 499 118 499 205 608.883789062 c 4,6,7
 293 719 293 719 449.10546875 719.077148438 c 4,8,9
 758 719 758 719 804 188 c 1,10,-1
 900.961914062 187.999023438 l 2,11,12
 921.025390625 188.000001237 921.025390625 188.000001237 921.025390625 97.64453125 c 2,13,-1
 921.025390625 88.208984375 l 2,14,15
 921 0 921 0 900.98828125 0 c 2,16,-1
 802 0 l 1,17,18
 744 -458 744 -458 67 -492.319335938 c 1,19,-1
 66.869140625 -309.87890625 l 1,20,21
 548 -288 548 -288 628.099609375 1.228515625 c 1,0,1
630.629882812 188.602539062 m 1,22,23
 608 535 608 535 437.405273438 535.124023438 c 0,24,25
 365 535 365 535 324 480.534978726 c 0,26,27
 285 427 285 427 285.159179688 356.5625 c 0,28,29
 285.006215842 191.699381116 285.006215842 191.699381116 548.954101562 189.36328125 c 0,30,31
 590 189 590 189 630.629882812 188.602539062 c 1,22,23
EndSplineSet
EndChar

StartChar: uniFEF0
Encoding: 65264 65264 251
GlifName: uniF_E_F_0
Width: 1523
VWidth: 2952
GlyphClass: 2
Flags: W
AnchorPoint: "Anchor-7" 595.902 -800.086 basechar 0
AnchorPoint: "Anchor-10" 717.6 1368.22 basechar 0
LayerCount: 2
Fore
SplineSet
772.400390625 -293.203125 m 0,0,1
 1132 -292 1132 -292 1224.91992188 -152.026367188 c 0,2,3
 1248 -117 1248 -117 1247.83691406 -84.654296875 c 0,4,5
 1248.00082983 0.430748862071 1248.00082983 0.430748862071 1116.36816406 0.7275390625 c 2,6,-1
 1023.24609375 0.9375 l 1,7,8
 965 7 965 7 943.953125 94.537109375 c 0,9,10
 934 137 934 137 933.69140625 160.90625 c 0,11,12
 934 184 934 184 944.831054688 187.999023438 c 1,13,-1
 1529.43554688 187.999023438 l 2,14,15
 1549.51953125 187.999977184 1549.51953125 187.999977184 1549.51953125 107.174804688 c 2,16,-1
 1549.51953125 88.330078125 l 2,17,18
 1550 0 1550 0 1529.45605469 0 c 2,19,-1
 1407 0 l 0,20,-1
 1382.45410156 0 l 1,21,22
 1417 -27 1417 -27 1415 -117 c 4,23,24
 1414 -152 1414 -152 1394.79492188 -203.883789062 c 0,25,26
 1353 -316 1353 -316 1215 -389 c 0,27,28
 1051 -476 1051 -476 765.330078125 -476.724609375 c 0,29,30
 159 -478 159 -478 159.752929688 101.043945312 c 0,31,32
 160 221 160 221 211.028320312 370.125 c 1,33,-1
 383.548828125 369.787109375 l 1,34,35
 340 217 340 217 340.268554688 102.860351562 c 0,36,37
 340 -294 340 -294 772.400390625 -293.203125 c 0,0,1
EndSplineSet
EndChar

StartChar: uniFEFB
Encoding: 65275 65275 262
GlifName: uniF_E_F_B_
Width: 1219
VWidth: 2952
GlyphClass: 3
Flags: W
AnchorPoint: "Anchor-9" 218.642 1549.64 baselig 1
AnchorPoint: "Anchor-6" 288.021 -242.333 baselig 1
AnchorPoint: "Anchor-6" 925.078 -238.55 baselig 0
AnchorPoint: "Anchor-9" 978.01 1613.61 baselig 0
LayerCount: 2
Fore
SplineSet
260.213867188 1387.9921875 m 1,0,1
 521 757 521 757 662.92578125 227.0625 c 1,2,3
 897.066272534 303.021499892 897.066272534 303.021499892 897.17578125 639.9765625 c 6,4,-1
 897.438476562 1448.28222656 l 5,5,-1
 1066.47070312 1448.28222656 l 1,6,-1
 1066.47070312 638.663085938 l 2,7,8
 1066 3 1066 3 396.33984375 3.1279296875 c 0,9,10
 258 3 258 3 173.040039062 18.6806640625 c 1,11,-1
 173.041992188 203.889648438 l 1,12,13
 341 182 341 182 494.444335938 192.280273438 c 1,14,15
 326 773 326 773 99.4189453125 1293.69726562 c 5,16,-1
 260.213867188 1387.9921875 l 1,0,1
EndSplineSet
LCarets2: 1 0
Ligature2: "'rlig' Required Ligatures in Arabic lookup 16 subtable" uniFEDF uniFE8E
EndChar

StartChar: uniFEFC
Encoding: 65276 65276 263
GlifName: uniF_E_F_C_
Width: 1313
VWidth: 2952
GlyphClass: 3
Flags: W
AnchorPoint: "Anchor-9" 978.01 1613.61 baselig 0
AnchorPoint: "Anchor-9" 218.642 1549.64 baselig 1
AnchorPoint: "Anchor-6" 925.078 -238.55 baselig 0
AnchorPoint: "Anchor-6" 288.021 -242.333 baselig 1
LayerCount: 2
Fore
SplineSet
662.92578125 227.0625 m 1,0,1
 897.066272534 303.021499892 897.066272534 303.021499892 897.17578125 639.9765625 c 2,2,-1
 897.438476562 1448.28222656 l 1,3,-1
 1066.47070312 1448.28222656 l 1,4,-1
 1066.47070312 548.663085938 l 2,5,6
 1065.99999873 187.999023438 1065.99999873 187.999023438 1296.61425781 187.999023438 c 2,7,-1
 1322.09667969 187.999023438 l 2,8,9
 1342.1796875 188.000008816 1342.1796875 188.000008816 1342.1796875 107.174804688 c 2,10,-1
 1342.1796875 88.3232421875 l 2,11,12
 1342 0 1342 0 1322.09960938 0 c 2,13,-1
 1283.0859375 0 l 2,14,15
 1020 0 1020 0 955 226.224609375 c 1,16,17
 793 3 793 3 396.33984375 3.1279296875 c 0,18,19
 258 3 258 3 173.040039062 18.6806640625 c 1,20,-1
 173.041992188 203.889648438 l 1,21,22
 341 182 341 182 494.444335938 192.280273438 c 1,23,24
 326 773 326 773 99.4189453125 1293.69726562 c 5,25,-1
 260.213867188 1387.9921875 l 1,26,27
 521 757 521 757 662.92578125 227.0625 c 1,0,1
EndSplineSet
LCarets2: 1 0
Ligature2: "'rlig' Required Ligatures in Arabic lookup 16 subtable" uniFEE0 uniFE8E
EndChar

StartChar: arabic_dot
Encoding: 65536 -1 264
GlifName: arabic_dot
Width: 193
VWidth: 2646
GlyphClass: 2
Flags: W
LayerCount: 2
Fore
SplineSet
-32.7626953125 102.962890625 m 1,0,-1
 96.12109375 231.84765625 l 1,1,-1
 225.762695312 102.206054688 l 1,2,-1
 96.87890625 -26.6787109375 l 1,3,-1
 -32.7626953125 102.962890625 l 1,0,-1
EndSplineSet
EndChar

StartChar: arabic_2dots
Encoding: 65537 -1 265
GlifName: arabic_2dots
Width: 494
VWidth: 2646
GlyphClass: 2
Flags: W
LayerCount: 2
Fore
SplineSet
259.646484375 102.962890625 m 5,0,-1
 388.530273438 231.84765625 l 5,1,-1
 518.171875 102.206054688 l 5,2,-1
 389.287109375 -26.6787109375 l 5,3,-1
 259.646484375 102.962890625 l 5,0,-1
-24.171875 102.962890625 m 5,4,-1
 104.711914062 231.84765625 l 5,5,-1
 234.353515625 102.206054688 l 5,6,-1
 105.469726562 -26.6787109375 l 5,7,-1
 -24.171875 102.962890625 l 5,4,-1
EndSplineSet
EndChar

StartChar: arabic_3dots
Encoding: 65538 -1 266
GlifName: arabic_3dots
Width: 494
VWidth: 2646
GlyphClass: 2
Flags: W
LayerCount: 2
Fore
SplineSet
120.91796875 314.940429688 m 5,0,-1
 246.62109375 440.645507812 l 5,1,-1
 373.08203125 314.182617188 l 5,2,-1
 247.37890625 188.48046875 l 5,3,-1
 120.91796875 314.940429688 l 5,0,-1
262.827148438 83.8486328125 m 1,4,-1
 388.530273438 209.551757812 l 1,5,-1
 514.9921875 83.091796875 l 1,6,-1
 389.287109375 -42.611328125 l 1,7,-1
 262.827148438 83.8486328125 l 1,4,-1
-20.9921875 83.8486328125 m 1,8,-1
 104.711914062 209.551757812 l 1,9,-1
 231.173828125 83.091796875 l 1,10,-1
 105.469726562 -42.611328125 l 1,11,-1
 -20.9921875 83.8486328125 l 1,8,-1
EndSplineSet
EndChar

StartChar: arabic_3dots_a
Encoding: 65539 -1 267
GlifName: arabic_3dots_a
Width: 494
VWidth: 2646
GlyphClass: 2
Flags: W
LayerCount: 2
Fore
SplineSet
120.91796875 -114.268554688 m 5,0,-1
 247.37890625 12.19140625 l 5,1,-1
 373.08203125 -113.51171875 l 5,2,-1
 246.62109375 -239.973632812 l 5,3,-1
 120.91796875 -114.268554688 l 5,0,-1
262.827148438 116.822265625 m 1,4,-1
 389.287109375 243.283203125 l 1,5,-1
 514.9921875 117.580078125 l 1,6,-1
 388.530273438 -8.8818359375 l 1,7,-1
 262.827148438 116.822265625 l 1,4,-1
-20.9921875 116.822265625 m 1,8,-1
 105.469726562 243.283203125 l 1,9,-1
 231.173828125 117.580078125 l 1,10,-1
 104.711914062 -8.8818359375 l 1,11,-1
 -20.9921875 116.822265625 l 1,8,-1
EndSplineSet
EndChar

StartChar: uni066E.fina
Encoding: 65540 -1 268
GlifName: uni066E_.fina
Width: 1931
VWidth: 2952
GlyphClass: 2
Flags: W
AnchorPoint: "Anchor-10" 925.51 1427.59 basechar 0
AnchorPoint: "Anchor-7" 828.357 -257.261 basechar 0
LayerCount: 2
Fore
SplineSet
283.424804688 504.521484375 m 0,0,1
 284 188 284 188 871.8671875 188.13671875 c 0,2,3
 1385 188 1385 188 1530 297 c 0,4,5
 1582.27266487 337.209742207 1582.27266487 337.209742207 1585.52539062 395.680664062 c 2,6,-1
 1595.52539062 575.440429688 l 1,7,-1
 1740.3359375 575.440429688 l 1,8,-1
 1750.3359375 393.607421875 l 2,9,10
 1762.0003878 187.993164062 1762.0003878 187.993164062 1927.58984375 187.993164062 c 2,11,-1
 1935.66699219 187.993164062 l 2,12,13
 1955.74707031 187.999914965 1955.74707031 187.999914965 1955.74707031 98.322265625 c 2,14,-1
 1955.74707031 88.3408203125 l 2,15,16
 1956 0 1956 0 1935.66601562 0 c 2,17,-1
 1926.02246094 0 l 2,18,19
 1741 0 1741 0 1646 177 c 5,20,21
 1489 0 1489 0 894.356445312 0 c 2,22,-1
 890.911132812 0 l 2,23,24
 105 0 105 0 104.16015625 485.872070312 c 0,25,26
 104 616 104 616 132 709 c 1,27,-1
 312 709 l 1,28,29
 283 607 283 607 283.424804688 504.521484375 c 0,0,1
EndSplineSet
EndChar

StartChar: uni06A1.fina
Encoding: 65543 -1 269
GlifName: uni06A_1.fina
Width: 2025
VWidth: 2952
GlyphClass: 2
Flags: W
AnchorPoint: "Anchor-10" 746.816 1573.03 basechar 0
AnchorPoint: "Anchor-7" 623.121 -309.592 basechar 0
LayerCount: 2
Fore
SplineSet
1537.84277344 670.752929688 m 4,0,1
 1485.98144531 672 1485.98144531 672 1435.0390625 630.73828125 c 4,2,3
 1364.98144531 574 1364.98144531 574 1364.75878906 484.80859375 c 4,4,5
 1363.98144531 424 1363.98144531 424 1428.44042969 350.631835938 c 4,6,7
 1489.43066406 279.80078125 1489.43066406 279.80078125 1540.7109375 275.817382812 c 28,8,9
 1584.98144531 272 1584.98144531 272 1651.81640625 349.1328125 c 4,10,11
 1715.98144531 423 1715.98144531 423 1715.49804688 483.309570312 c 4,12,13
 1715.98144531 572 1715.98144531 572 1645.21777344 629.239257812 c 4,14,15
 1595.98144531 669 1595.98144531 669 1537.84277344 670.752929688 c 4,0,1
1731.23828125 196.19921875 m 5,16,17
 1738 194 1738 194 1761 192.314112759 c 0,18,19
 1822 188 1822 188 2000.82714844 187.993164062 c 2,20,-1
 2033.37109375 187.993164062 l 2,21,22
 2053.44824219 188.000156104 2053.44824219 188.000156104 2053.44824219 107.174804688 c 2,23,-1
 2053.44824219 88.3076171875 l 2,24,25
 2053 0 2053 0 2033.37011719 0 c 2,26,-1
 2003.02246094 0 l 2,27,28
 1669 0 1669 0 1535.67871094 99.3876953125 c 1,29,30
 1392 0 1392 0 894.356445312 0 c 2,31,-1
 890.911132812 0 l 2,32,33
 104.758148156 -1.40628611187e-13 104.758148156 -1.40628611187e-13 104.16015625 485.872070312 c 0,34,35
 104 616 104 616 132 709 c 1,36,-1
 312 709 l 1,37,38
 283 607 283 607 283.424804688 504.521484375 c 0,39,40
 284 188 284 188 871.8671875 188.13671875 c 0,41,42
 1184 188 1184 188 1318 193.057342219 c 0,43,44
 1343 194 1343 194 1348.23828125 196.169921875 c 5,45,46
 1188.98144531 329 1188.98144531 329 1188.6328125 484.500976562 c 4,47,48
 1187.98144531 633 1187.98144531 633 1272.97851562 733 c 4,49,50
 1378.98144531 858 1378.98144531 858 1539.22265625 857.41796875 c 4,51,52
 1695.98144531 857 1695.98144531 857 1801.83398438 737 c 4,53,54
 1891.98144531 635 1891.98144531 635 1891.62402344 486.001953125 c 4,55,56
 1891.98144531 328 1891.98144531 328 1731.23828125 196.19921875 c 5,16,17
EndSplineSet
EndChar

StartChar: uni06A1.init
Encoding: 65544 -1 270
GlifName: uni06A_1.init
Width: 914
VWidth: 2952
GlyphClass: 2
Flags: W
AnchorPoint: "Anchor-10" 427.443 1606.02 basechar 0
AnchorPoint: "Anchor-7" 347.886 -245.023 basechar 0
LayerCount: 2
Fore
SplineSet
629.188476562 531.928710938 m 5,0,1
 606.55859375 878.326171875 606.55859375 878.326171875 435.963867188 878.450195312 c 4,2,3
 363.55859375 878.326171875 363.55859375 878.326171875 322.55859375 823.861328125 c 4,4,5
 283.55859375 770.326171875 283.55859375 770.326171875 283.717773438 699.888671875 c 4,6,7
 283.564453125 535.025390625 283.564453125 535.025390625 547.512695312 532.689453125 c 4,8,9
 588.55859375 532.326171875 588.55859375 532.326171875 629.188476562 531.928710938 c 5,0,1
801.55859375 540.326171875 m 28,10,11
 803 511 803 511 803.94921875 475.473632812 c 4,12,13
 823 0 823 0 244.868164062 0 c 2,14,-1
 -6.9384765625 0 l 2,15,16
 -84.7783203125 0 -84.7783203125 0 -84.7783203125 88.3134765625 c 2,17,-1
 -84.7783203125 107.186523438 l 2,18,19
 -84.9999973212 187.999023438 -84.9999973212 187.999023438 -6.9384765625 187.999023438 c 2,20,-1
 256.008789062 187.999023438 l 2,21,22
 616 188 616 188 626.658203125 349.5546875 c 5,23,-1
 556.739257812 349.137695312 l 4,24,25
 116 349 116 349 116.563476562 687.6796875 c 4,26,27
 117 842 117 842 203.55859375 952.209960938 c 4,28,29
 290 1062 290 1062 447.6640625 1062.40332031 c 4,30,31
 776 1063 776 1063 801.55859375 540.326171875 c 28,10,11
EndSplineSet
EndChar

StartChar: uni06A1.medi
Encoding: 65545 -1 271
GlifName: uni06A_1.medi
Width: 1052
VWidth: 2952
GlyphClass: 2
Flags: W
AnchorPoint: "Anchor-10" 562.544 1388.06 basechar 0
AnchorPoint: "Anchor-7" 527.517 -245.023 basechar 0
LayerCount: 2
Fore
SplineSet
564.861328125 670.752929688 m 4,0,1
 513 672 513 672 462.057617188 630.73828125 c 4,2,3
 392 574 392 574 391.77734375 484.80859375 c 4,4,5
 391 424 391 424 455.458984375 350.631835938 c 4,6,7
 516.449511205 279.800655884 516.449511205 279.800655884 567.729492188 275.817382812 c 28,8,9
 612 272 612 272 678.834960938 349.1328125 c 4,10,11
 743 423 743 423 742.516601562 483.309570312 c 4,12,13
 743 572 743 572 672.236328125 629.239257812 c 4,14,15
 623 669 623 669 564.861328125 670.752929688 c 4,0,1
566.241210938 857.41796875 m 4,16,17
 723 857 723 857 828.852539062 737 c 4,18,19
 919 635 919 635 918.642578125 486.001953125 c 4,20,21
 919 328 919 328 758.256835938 196.19921875 c 5,22,23
 765 194 765 194 787 192.386073102 c 0,24,25
 848.095071881 187.993164062 848.095071881 187.993164062 1027.84570312 187.993164062 c 2,26,-1
 1060.38964844 187.993164062 l 2,27,28
 1080.46679688 188.00016272 1080.46679688 188.00016272 1080.46679688 107.174804688 c 2,29,-1
 1080.46679688 88.3076171875 l 2,30,31
 1080 0 1080 0 1060.38867188 0 c 2,32,-1
 1030.04101562 0 l 2,33,34
 696 0 696 0 562.697265625 99.3876953125 c 1,35,36
 429 0 429 0 34.2099609375 0 c 2,37,-1
 -6.9384765625 0 l 2,38,39
 -84.7783203125 0 -84.7783203125 0 -84.7783203125 88.3134765625 c 2,40,-1
 -84.7783203125 107.186523438 l 2,41,42
 -84.9990464761 187.652392226 -84.9990464761 187.652392226 -6.91015625 187.993164062 c 2,43,-1
 34.0419921875 188.171875 l 2,44,45
 299 189 299 189 348 193.489117044 c 0,46,47
 367 195 367 195 375.256835938 196.169921875 c 5,48,49
 216 329 216 329 215.651367188 484.500976562 c 4,50,51
 215 633 215 633 299.997070312 733 c 4,52,53
 406 858 406 858 566.241210938 857.41796875 c 4,16,17
EndSplineSet
EndChar

StartChar: uni066F.fina
Encoding: 65546 -1 272
GlifName: uni066F_.fina
Width: 1396
VWidth: 2952
GlyphClass: 2
Flags: W
AnchorPoint: "Anchor-10" 404.297 1209.41 basechar 0
AnchorPoint: "Anchor-7" 479.744 -852.409 basechar 0
LayerCount: 2
Fore
SplineSet
694.400390625 -293.203125 m 4,0,1
 1079 -293 1079 -293 1117.00683594 1.380859375 c 5,2,-1
 1047.08789062 0.9638671875 l 4,3,4
 607 1 607 1 606.912109375 344.505859375 c 4,5,6
 607 499 607 499 693.907226562 609.036132812 c 4,7,8
 782 719 782 719 938.012695312 719.229492188 c 4,9,10
 1247 719 1247 719 1292.90722656 188.15234375 c 5,11,-1
 1404.03417969 187.999023438 l 6,12,13
 1424.12207031 188.000005971 1424.12207031 188.000005971 1424.12207031 106.174804688 c 6,14,-1
 1424.12207031 87.318359375 l 6,15,16
 1423.99982078 -0.128198879355 1423.99982078 -0.128198879355 1404.08886719 0 c 6,17,-1
 1292.15429688 0.720703125 l 5,18,19
 1240 -477 1240 -477 687.330078125 -476.724609375 c 0,20,21
 101 -477 101 -477 101.752929688 101.043945312 c 0,22,23
 102 262 102 262 163.028320312 440.125 c 1,24,-1
 335.548828125 440.12 l 1,25,26
 282 252 282 252 282.268554688 102.860351562 c 0,27,28
 283 -293 283 -293 694.400390625 -293.203125 c 4,0,1
1119.53710938 188.754882812 m 5,29,30
 1097 535 1097 535 926.3125 535.276367188 c 4,31,32
 852 535 852 535 812.907226562 480.6875 c 4,33,34
 774 427 774 427 774.06640625 356.71484375 c 4,35,36
 774 192 774 192 1037.86132812 189.515625 c 4,37,38
 1079 189 1079 189 1119.53710938 188.754882812 c 5,29,30
EndSplineSet
EndChar

StartChar: arabic_gaf_bar
Encoding: 65550 -1 273
GlifName: arabic_gaf_bar
Width: 751
VWidth: 2767
GlyphClass: 2
Flags: W
LayerCount: 2
Fore
SplineSet
757.040039062 1893.2578125 m 5,0,-1
 6.15625 1586.48242188 l 1,1,-1
 6.15625 1706.21191406 l 1,2,-1
 757.040039062 2012.984375 l 5,3,-1
 757.040039062 1893.2578125 l 5,0,-1
EndSplineSet
EndChar

StartChar: guillemotleft
Encoding: 171 171 283
GlifName: guillemotleft
Width: 1184
VWidth: 2318
Flags: W
LayerCount: 2
Fore
SplineSet
447.580078125 0.5234375 m 1,0,1
 135.568359375 493.866210938 135.568359375 493.866210938 134.8515625 555.50390625 c 0,2,3
 134.536132812 623.879882812 134.536132812 623.879882812 448.26953125 1048.22167969 c 1,4,-1
 648.497070312 1048.22167969 l 1,5,-1
 629.506835938 1022.26269531 l 2,6,7
 482.3046875 821.133789062 482.3046875 821.133789062 409.75 705.420898438 c 128,-1,8
 337.1953125 589.708007812 337.1953125 589.708007812 337.235351562 554.916992188 c 0,9,10
 337.158203125 492.530273438 337.158203125 492.530273438 630.267578125 25.5205078125 c 2,11,-1
 645.95703125 0.5234375 l 1,12,-1
 447.580078125 0.5234375 l 1,0,1
875.946289062 0.5234375 m 1,13,14
 563.31640625 493.853515625 563.31640625 493.853515625 563.219726562 555.512695312 c 0,15,16
 562.286132812 623.890625 562.286132812 623.890625 876.63671875 1048.22167969 c 1,17,-1
 1076.86425781 1048.22167969 l 1,18,-1
 1057.87402344 1022.26171875 l 2,19,20
 999.267578125 942.069335938 999.267578125 942.069335938 952.877929688 876.045898438 c 128,-1,21
 906.48828125 810.021484375 906.48828125 810.021484375 871.202148438 756.490234375 c 128,-1,22
 835.916015625 702.958984375 835.916015625 702.958984375 812.608398438 663.052734375 c 128,-1,23
 789.301757812 623.145507812 789.301757812 623.145507812 777.48828125 596.041015625 c 128,-1,24
 765.67578125 568.936523438 765.67578125 568.936523438 765.603515625 554.912109375 c 0,25,26
 765.952148438 491.87890625 765.952148438 491.87890625 1058.63574219 25.5205078125 c 2,27,-1
 1074.32421875 0.5234375 l 1,28,-1
 875.946289062 0.5234375 l 1,13,14
EndSplineSet
EndChar

StartChar: guillemotright
Encoding: 187 187 284
GlifName: guillemotright
Width: 1184
VWidth: 2318
Flags: W
LayerCount: 2
Fore
SplineSet
736.953125 0.5234375 m 1,0,-1
 538.577148438 0.5234375 l 1,1,-1
 554.264648438 25.5205078125 l 2,2,3
 847.431640625 493.072265625 847.431640625 493.072265625 847.258789062 555.109375 c 0,4,5
 847.431640625 622.546875 847.431640625 622.546875 555.025390625 1022.26367188 c 2,6,-1
 536.036132812 1048.22167969 l 1,7,-1
 736.26171875 1048.22167969 l 1,8,9
 1050.05175781 622.836914062 1050.05175781 622.836914062 1049.68359375 555.860351562 c 0,10,11
 1049.01953125 493.865234375 1049.01953125 493.865234375 736.953125 0.5234375 c 1,0,-1
308.583984375 0.5234375 m 1,12,-1
 110.208984375 0.5234375 l 1,13,-1
 125.896484375 25.51953125 l 2,14,15
 418.638671875 492.014648438 418.638671875 492.014648438 418.889648438 555.127929688 c 0,16,17
 418.637695312 623.130859375 418.637695312 623.130859375 126.657226562 1022.26367188 c 2,18,-1
 107.66796875 1048.22167969 l 1,19,-1
 307.889648438 1048.22167969 l 1,20,21
 621.270507812 621.78515625 621.270507812 621.78515625 621.315429688 555.853515625 c 0,22,23
 620.23828125 493.874023438 620.23828125 493.874023438 308.583984375 0.5234375 c 1,12,-1
EndSplineSet
EndChar

StartChar: NameMe.302
Encoding: 65562 -1 293
GlifName: N_ameM_e.302
Width: 645
VWidth: 2952
Flags: W
LayerCount: 2
Fore
SplineSet
327.154296875 136.7265625 m 2,0,1
 233.400478311 2.84217094304e-14 233.400478311 2.84217094304e-14 21.625 0 c 2,2,-1
 -6.9384765625 0 l 2,3,4
 -84.7783203125 0 -84.7783203125 0 -84.7783203125 88.3134765625 c 2,5,-1
 -84.7783203125 107.186523438 l 2,6,7
 -84.9999812483 187.993164062 -84.9999812483 187.993164062 -6.9384765625 187.993164062 c 2,8,-1
 24.140625 187.993164062 l 2,9,10
 255.919921875 187.999997639 255.919921875 187.999997639 255.919921875 435.180664062 c 6,11,-1
 255.919921875 1193.66699219 l 5,12,-1
 428.772460938 1193.66699219 l 1,13,-1
 428.772460938 435.1953125 l 2,14,15
 429.000006292 187.993164062 429.000006292 187.993164062 632.400390625 187.993164062 c 2,16,-1
 642.509765625 187.993164062 l 2,17,18
 673.65625 187.999925378 673.65625 187.999925378 673.65625 107.174804688 c 2,19,-1
 673.65625 88.291015625 l 2,20,21
 674 40 674 40 665.409179688 20.720703125 c 0,22,23
 657 0 657 0 642.508789062 0 c 2,24,-1
 634.920898438 0 l 2,25,26
 432.540028514 -5.68434188608e-14 432.540028514 -5.68434188608e-14 335.515625 136.79296875 c 2,27,-1
 333.776367188 139.245117188 l 1,28,-1
 331.287109375 142.75390625 l 1,29,-1
 328.854492188 139.206054688 l 1,30,-1
 327.154296875 136.7265625 l 2,0,1
EndSplineSet
EndChar

StartChar: NameMe.303
Encoding: 65563 -1 294
GlifName: N_ameM_e.303
Width: 574
VWidth: 2952
Flags: W
LayerCount: 2
Fore
SplineSet
-6.9384765625 0 m 2,0,1
 -84.7783203125 0 -84.7783203125 0 -84.7783203125 88.3134765625 c 2,2,-1
 -84.7783203125 107.186523438 l 2,3,4
 -84.9999812483 187.993164062 -84.9999812483 187.993164062 -6.9384765625 187.993164062 c 2,5,-1
 50.515625 187.993164062 l 2,6,7
 251.345703125 188.000011787 251.345703125 188.000011787 251.345703125 398.663085938 c 6,8,-1
 251.345703125 1356.52832031 l 5,9,-1
 420.66015625 1356.52832031 l 1,10,-1
 420.66015625 392.965820312 l 2,11,12
 421 0 421 0 45.318359375 0 c 2,13,-1
 -6.9384765625 0 l 2,0,1
EndSplineSet
EndChar

StartChar: NameMe.65564
Encoding: 65564 -1 297
GlifName: N_ameM_e.65564
Width: 571
VWidth: 2952
Flags: W
AnchorPoint: "Anchor-10" 256.697 1493.11 basechar 0
AnchorPoint: "Anchor-7" 316.078 -239.903 basechar 0
LayerCount: 2
Fore
SplineSet
598.618164062 88.310546875 m 1,0,1
 600 0 600 0 578.537109375 0 c 2,2,-1
 557.658203125 0 l 2,3,4
 164.283203125 0 164.283203125 0 164.283203125 438.395507812 c 2,5,-1
 164.283203125 1328.171875 l 1,6,-1
 333.598632812 1328.171875 l 5,7,-1
 333.598632812 440.450195312 l 6,8,9
 334.000010868 187.993164062 334.000010868 187.993164062 560.712890625 187.993164062 c 2,10,-1
 578.538085938 187.993164062 l 2,11,12
 598.618164062 187.999872436 598.618164062 187.999872436 598.618164062 107.174804688 c 2,13,-1
 598.618164062 88.310546875 l 1,0,1
EndSplineSet
EndChar

StartChar: NameMe.65565
Encoding: 65565 -1 298
GlifName: N_ameM_e.65565
Width: 722
VWidth: 2955
Flags: W
LayerCount: 2
Fore
SplineSet
117.484081484 -281.085777218 m 1,0,1
 178.529096084 -294.479463758 178.529096084 -294.479463758 232.546566513 -294.479463758 c 0,2,3
 356.258675598 -294.479463758 356.258675598 -294.479463758 443.110429119 -224.227888506 c 0,4,5
 500.296452324 -177.966839579 500.296452324 -177.966839579 500.296452324 -133.516811718 c 0,6,7
 500.296452324 -109.405081056 500.296452324 -109.405081056 462.975161408 -108.455057992 c 2,8,-1
 363.110509694 -105.932766685 l 2,9,10
 246.001551157 -102.723190999 246.001551157 -102.723190999 246.001551157 14.7506346382 c 0,11,12
 246.001551157 157.126561045 246.001551157 157.126561045 371.376752973 236.668023965 c 0,13,14
 460.238023828 293.048373629 460.238023828 293.048373629 618.490326484 293.995231635 c 1,15,-1
 608.990969331 168.038063927 l 1,16,17
 384.035851969 162.525423144 384.035851969 162.525423144 366.854903386 27.1294758791 c 2,18,-1
 365.534858625 16.7230754944 l 1,19,-1
 476.735207742 13.399816896 l 2,20,21
 588.784841964 10.0007547332 588.784841964 10.0007547332 614.149073737 -88.206495882 c 0,22,23
 619.228743177 -111.653180613 619.228743177 -111.653180613 619.228743177 -134.21060901 c 0,24,25
 619.228743177 -259.128478712 619.228743177 -259.128478712 463.450997334 -356.775607887 c 0,26,27
 364.691216918 -418.185986418 364.691216918 -418.185986418 225.575393716 -418.185986418 c 0,28,29
 165.751155985 -418.185986418 165.751155985 -418.185986418 98.4639797821 -406.829524167 c 1,30,-1
 117.484081484 -281.085777218 l 1,0,1
EndSplineSet
EndChar
